0
SECTION
2
HEADER
9
$INSUNITS
70
4
9
$ACADVER
1
AC1014
9
$HANDSEED
5
FFFF
0
ENDSEC
0
SECTION
2
TABLES
0
TABLE
2
VPORT
5
8
100
AcDbSymbolTable
0
ENDTAB
0
TABLE
2
LTYPE
5
5
100
AcDbSymbolTable
0
LTYPE
5
14
100
AcDbSymbolTableRecord
100
AcDbLinetypeTableRecord
2
BYBLOCK
70
0
0
LTYPE
5
15
100
AcDbSymbolTableRecord
100
AcDbLinetypeTableRecord
2
BYLAYER
70
0
0
ENDTAB
0
TABLE
2
LAYER
5
2
100
AcDbSymbolTable
70
2
0
LAYER
5
50
100
AcDbSymbolTableRecord
100
AcDbLayerTableRecord
2
0
70
0
6
CONTINUOUS
0
ENDTAB
0
TABLE
2
STYLE
5
3
100
AcDbSymbolTable
70
1
0
STYLE
5
11
100
AcDbSymbolTableRecord
100
AcDbTextStyleTableRecord
2
STANDARD
70
0
0
ENDTAB
0
TABLE
2
VIEW
5
6
100
AcDbSymbolTable
70
0
0
ENDTAB
0
TABLE
2
UCS
5
7
100
AcDbSymbolTable
70
0
0
ENDTAB
0
TABLE
2
APPID
5
9
100
AcDbSymbolTable
70
2
0
APPID
5
12
100
AcDbSymbolTableRecord
100
AcDbRegAppTableRecord
2
ACAD
70
0
0
ENDTAB
0
TABLE
2
DIMSTYLE
5
A
100
AcDbSymbolTable
70
1
0
ENDTAB
0
TABLE
2
BLOCK_RECORD
5
1
100
AcDbSymbolTable
70
1
0
BLOCK_RECORD
5
1F
100
AcDbSymbolTableRecord
100
AcDbBlockTableRecord
2
*MODEL_SPACE
0
BLOCK_RECORD
5
1B
100
AcDbSymbolTableRecord
100
AcDbBlockTableRecord
2
*PAPER_SPACE
0
ENDTAB
0
ENDSEC
0
SECTION
2
BLOCKS
0
BLOCK
5
20
100
AcDbEntity
100
AcDbBlockBegin
2
*MODEL_SPACE
0
ENDBLK
5
21
100
AcDbEntity
100
AcDbBlockEnd
0
BLOCK
5
1C
100
AcDbEntity
100
AcDbBlockBegin
2
*PAPER_SPACE
0
ENDBLK
5
1D
100
AcDbEntity
100
AcDbBlockEnd
0
ENDSEC
0
SECTION
2
ENTITIES
0
LINE
5
100
100
AcDbEntity
8
0
100
AcDbLine
10
-68.150609500786913
20
96.092076396673406
30
0
11
-66.795564599763111
21
10.431812286376953
31
0
0
LINE
5
101
100
AcDbEntity
8
0
100
AcDbLine
10
-107.57575473178669
20
95.468416843760963
30
0
11
-108.89531547591666
21
10.431812286376953
31
0
0
LINE
5
102
100
AcDbEntity
8
0
100
AcDbLine
10
-108.89531547591666
20
10.431812286376953
30
0
11
-66.795564599763111
21
10.431812286376953
31
0
0
LINE
5
103
100
AcDbEntity
8
0
100
AcDbLine
10
-68.416781425476074
20
10.431812286376953
30
0
11
-107.27509498596191
21
10.431812286376953
31
0
0
ARC
5
104
100
AcDbEntity
8
0
100
AcDbCircle
10
-87.845935821533203
20
94.690008088342225
30
0
40
19.745168381705643
210
0
220
0
230
1
100
AcDbArc
50
-2.2593424407643776
51
180.48130357689379
0
LWPOLYLINE
5
105
100
AcDbEntity
8
0
100
AcDbPolyline
90
4
70
1
43
0.0
10
-12.201699789649263
20
91.19317770924502
10
-7.1679017078392082
20
10.682218551635742
10
-43.082226885494343
20
10.682218551635749
10
-38.03808523829565
20
91.194814496093841
42
-0.93936989459337872
0
LINE
5
106
100
AcDbEntity
8
0
100
AcDbLine
10
-8.3944228220954642
20
10.682218551635742
30
0
11
-41.954965591430664
21
10.682218551635742
31
0
0
LWPOLYLINE
5
107
100
AcDbEntity
8
0
100
AcDbPolyline
90
4
70
1
43
0.0
10
13.846035991142253
20
15.003436088562019
10
50.137490238716147
20
15.003436088562012
10
45.340039304098525
20
81.438551777359265
42
0.93039136050898186
10
18.643486925759902
20
81.438551777359294
0
LINE
5
108
100
AcDbEntity
8
0
100
AcDbLine
10
49.491763114929199
20
15.003436088562012
30
0
11
14.491763114929199
21
15.003436088562012
31
0
0
LINE
5
109
100
AcDbEntity
8
0
100
AcDbLine
10
31.991763114929199
20
15.003436088562012
30
0
11
31.991763114929217
21
103.98295352001297
31
0
0
LWPOLYLINE
5
110
100
AcDbEntity
8
0
100
AcDbPolyline
90
4
70
1
43
0.0
10
71.958874905709592
20
-23.961591243743896
10
102.75921630859375
20
-23.961591243743904
10
102.75921630859375
20
23.116011619567864
42
0.99983945244562855
10
71.97399409502404
20
23.120954508522765
0
LINE
5
111
100
AcDbEntity
8
0
100
AcDbLine
10
100.74217796325684
20
-23.961591243743896
30
0
11
73.991031646728516
21
-23.961591243743896
31
0
0
LINE
5
112
100
AcDbEntity
8
0
100
AcDbLine
10
87.366604804992676
20
-23.961591243743896
30
0
11
87.366604804992676
21
51.088128325798607
31
0
0
LINE
5
113
100
AcDbEntity
8
0
100
AcDbLine
10
68.544113998003724
20
38.508623123168945
30
0
11
105.53750027631195
21
38.508623123168938
31
0
0
LINE
5
114
100
AcDbEntity
8
0
100
AcDbLine
10
9.578314192573302
20
-94.610330581665039
30
0
11
46.098572867987819
21
-94.610330581665039
31
0
0
LINE
5
115
100
AcDbEntity
8
0
100
AcDbLine
10
44.192132949829102
20
-94.610330581665039
30
0
11
11.75113320350647
21
-94.610330581665039
31
0
0
LINE
5
116
100
AcDbEntity
8
0
100
AcDbLine
10
46.098572867987819
20
-94.610330581665039
30
0
11
43.561071173256032
21
-31.591391375238128
31
0
0
LINE
5
117
100
AcDbEntity
8
0
100
AcDbLine
10
9.578314192573302
20
-94.610330581665039
30
0
11
12.617605549719224
21
-31.227406843036178
31
0
0
LINE
5
118
100
AcDbEntity
8
0
100
AcDbLine
10
27.968132495880127
20
-94.610349300409951
30
0
11
27.968132495880123
21
3.846528146743216
31
0
0
ARC
5
119
100
AcDbEntity
8
0
100
AcDbCircle
10
42.583175056620078
20
-32.664293800000166
30
0
40
30
210
0
220
0
230
1
100
AcDbArc
50
119.15461737581234
51
177.25469773156468
0
ARC
5
120
100
AcDbEntity
8
0
100
AcDbCircle
10
42.583175056620078
20
-32.664293800000166
30
0
40
30.000000000000004
210
0
220
0
230
1
100
AcDbArc
50
240.84538262418766
51
241.36365519943439
0
ARC
5
121
100
AcDbEntity
8
0
100
AcDbCircle
10
13.585361539120143
20
-32.798384303955203
30
0
40
30
210
0
220
0
230
1
100
AcDbArc
50
298.64790019967955
51
299.16623062697676
0
ARC
5
122
100
AcDbEntity
8
0
100
AcDbCircle
10
13.585361539120143
20
-32.798384303955203
30
0
40
30.000000000000004
210
0
220
-0
230
1
100
AcDbArc
50
2.3058090458007765
51
61.36365519943439
0
LWPOLYLINE
5
123
100
AcDbEntity
8
0
100
AcDbPolyline
90
4
70
1
43
0.0
10
-104.39664378673154
20
-97.507316589355469
10
-67.96858868385155
20
-97.507316589355469
10
-59.849161148071289
20
-24.290288450287633
42
0.46859506150946412
10
-107.82848369399593
20
-38.180117495304991
0
LINE
5
124
100
AcDbEntity
8
0
100
AcDbLine
10
-69.960761070251465
20
-97.507316589355469
30
0
11
-102.14262008666992
21
-97.507316589355469
31
0
0
ENDSEC
0
SECTION
2
OBJECTS
0
DICTIONARY
5
C
100
AcDbDictionary
3
ACAD_GROUP
350
D
3
ACAD_MLINESTYLE
350
17
0
DICTIONARY
5
D
100
AcDbDictionary
0
DICTIONARY
5
1A
330
C
100
AcDbDictionary
0
DICTIONARY
5
17
100
AcDbDictionary
0
ENDSEC
0
EOF
