0
SECTION
2
HEADER
9
$INSUNITS
70
4
9
$ACADVER
1
AC1014
9
$HANDSEED
5
FFFF
0
ENDSEC
0
SECTION
2
TABLES
0
TABLE
2
VPORT
5
8
100
AcDbSymbolTable
0
ENDTAB
0
TABLE
2
LTYPE
5
5
100
AcDbSymbolTable
0
LTYPE
5
14
100
AcDbSymbolTableRecord
100
AcDbLinetypeTableRecord
2
BYBLOCK
70
0
0
LTYPE
5
15
100
AcDbSymbolTableRecord
100
AcDbLinetypeTableRecord
2
BYLAYER
70
0
0
ENDTAB
0
TABLE
2
LAYER
5
2
100
AcDbSymbolTable
70
2
0
LAYER
5
50
100
AcDbSymbolTableRecord
100
AcDbLayerTableRecord
2
0
70
0
6
CONTINUOUS
0
ENDTAB
0
TABLE
2
STYLE
5
3
100
AcDbSymbolTable
70
1
0
STYLE
5
11
100
AcDbSymbolTableRecord
100
AcDbTextStyleTableRecord
2
STANDARD
70
0
0
ENDTAB
0
TABLE
2
VIEW
5
6
100
AcDbSymbolTable
70
0
0
ENDTAB
0
TABLE
2
UCS
5
7
100
AcDbSymbolTable
70
0
0
ENDTAB
0
TABLE
2
APPID
5
9
100
AcDbSymbolTable
70
2
0
APPID
5
12
100
AcDbSymbolTableRecord
100
AcDbRegAppTableRecord
2
ACAD
70
0
0
ENDTAB
0
TABLE
2
DIMSTYLE
5
A
100
AcDbSymbolTable
70
1
0
ENDTAB
0
TABLE
2
BLOCK_RECORD
5
1
100
AcDbSymbolTable
70
1
0
BLOCK_RECORD
5
1F
100
AcDbSymbolTableRecord
100
AcDbBlockTableRecord
2
*MODEL_SPACE
0
BLOCK_RECORD
5
1B
100
AcDbSymbolTableRecord
100
AcDbBlockTableRecord
2
*PAPER_SPACE
0
ENDTAB
0
ENDSEC
0
SECTION
2
BLOCKS
0
BLOCK
5
20
100
AcDbEntity
100
AcDbBlockBegin
2
*MODEL_SPACE
0
ENDBLK
5
21
100
AcDbEntity
100
AcDbBlockEnd
0
BLOCK
5
1C
100
AcDbEntity
100
AcDbBlockBegin
2
*PAPER_SPACE
0
ENDBLK
5
1D
100
AcDbEntity
100
AcDbBlockEnd
0
ENDSEC
0
SECTION
2
ENTITIES
0
LWPOLYLINE
5
100
100
AcDbEntity
8
0
100
AcDbPolyline
90
4
70
1
43
0.0
10
-270
20
180
10
-239.99999999999997
20
180
10
-239.99999999999997
20
240
10
-270
20
240
0
LWPOLYLINE
5
101
100
AcDbEntity
8
0
100
AcDbPolyline
90
4
70
1
43
0.0
10
-270
20
120
10
-239.99999999999997
20
120
10
-239.99999999999997
20
180
10
-270
20
180
0
LWPOLYLINE
5
102
100
AcDbEntity
8
0
100
AcDbPolyline
90
4
70
1
43
0.0
10
-270
20
60
10
-239.99999999999997
20
60
10
-239.99999999999997
20
120
10
-270
20
120
0
LWPOLYLINE
5
103
100
AcDbEntity
8
0
100
AcDbPolyline
90
4
70
1
43
0.0
10
-270
20
0
10
-239.99999999999997
20
0
10
-239.99999999999997
20
60
10
-270
20
60
0
LWPOLYLINE
5
104
100
AcDbEntity
8
0
100
AcDbPolyline
90
4
70
1
43
0.0
10
-270
20
-60
10
-239.99999999999997
20
-60
10
-239.99999999999997
20
0
10
-270
20
0
0
LWPOLYLINE
5
105
100
AcDbEntity
8
0
100
AcDbPolyline
90
4
70
1
43
0.0
10
-270
20
-120
10
-239.99999999999997
20
-120
10
-239.99999999999997
20
-60
10
-270
20
-60
0
LWPOLYLINE
5
106
100
AcDbEntity
8
0
100
AcDbPolyline
90
4
70
1
43
0.0
10
-270
20
-180
10
-239.99999999999997
20
-180
10
-239.99999999999997
20
-120
10
-270
20
-120
0
LWPOLYLINE
5
107
100
AcDbEntity
8
0
100
AcDbPolyline
90
4
70
1
43
0.0
10
-270
20
-240
10
-239.99999999999997
20
-240
10
-239.99999999999997
20
-180
10
-270
20
-180
0
LWPOLYLINE
5
108
100
AcDbEntity
8
0
100
AcDbPolyline
90
4
70
1
43
0.0
10
270.0000017881394
20
240.00000000000003
10
240.00000178813937
20
240.00000000000003
10
240.00000178813937
20
180.00000000000003
10
270.0000017881394
20
180.00000000000003
0
LWPOLYLINE
5
109
100
AcDbEntity
8
0
100
AcDbPolyline
90
4
70
1
43
0.0
10
270.0000017881394
20
60
10
240.00000178813934
20
60
10
240.00000178813934
20
0
10
270.0000017881394
20
0
0
LWPOLYLINE
5
110
100
AcDbEntity
8
0
100
AcDbPolyline
90
4
70
1
43
0.0
10
270.00000178813934
20
-180
10
240.00000178813931
20
-180
10
240.00000178813931
20
-240
10
270.00000178813934
20
-240
0
LWPOLYLINE
5
111
100
AcDbEntity
8
0
100
AcDbPolyline
90
4
70
1
43
0.0
10
270.0000017881394
20
0
10
240.00000178813934
20
0
10
240.00000178813934
20
-60
10
270.0000017881394
20
-60
0
LWPOLYLINE
5
112
100
AcDbEntity
8
0
100
AcDbPolyline
90
4
70
1
43
0.0
10
270.0000017881394
20
120.00000000000003
10
240.00000178813934
20
120.00000000000003
10
240.00000178813934
20
60
10
270.0000017881394
20
60
0
LWPOLYLINE
5
113
100
AcDbEntity
8
0
100
AcDbPolyline
90
4
70
1
43
0.0
10
270.0000017881394
20
180.00000000000003
10
240.00000178813937
20
180.00000000000003
10
240.00000178813934
20
120.00000000000003
10
270.0000017881394
20
120.00000000000003
0
LWPOLYLINE
5
114
100
AcDbEntity
8
0
100
AcDbPolyline
90
4
70
1
43
0.0
10
270.0000017881394
20
-120
10
240.00000178813934
20
-120
10
240.00000178813931
20
-180
10
270.00000178813934
20
-180
0
LWPOLYLINE
5
115
100
AcDbEntity
8
0
100
AcDbPolyline
90
4
70
1
43
0.0
10
270.0000017881394
20
-60
10
240.00000178813934
20
-60
10
240.00000178813934
20
-120
10
270.0000017881394
20
-120
0
LWPOLYLINE
5
116
100
AcDbEntity
8
0
100
AcDbPolyline
90
4
70
1
43
0.0
10
-239.99999999999997
20
-270
10
-179.99999999999997
20
-270
10
-179.99999999999997
20
-240
10
-239.99999999999997
20
-240
0
LWPOLYLINE
5
117
100
AcDbEntity
8
0
100
AcDbPolyline
90
4
70
1
43
0.0
10
-179.99999999999997
20
-270
10
-119.99999999999997
20
-270
10
-119.99999999999997
20
-240
10
-179.99999999999997
20
-240
0
LWPOLYLINE
5
118
100
AcDbEntity
8
0
100
AcDbPolyline
90
4
70
1
43
0.0
10
-119.99999999999997
20
-270
10
-59.999999999999964
20
-270
10
-59.999999999999964
20
-240
10
-119.99999999999997
20
-240
0
LWPOLYLINE
5
119
100
AcDbEntity
8
0
100
AcDbPolyline
90
4
70
1
43
0.0
10
-59.999999999999964
20
-270
10
3.5527136788005009e-14
20
-270
10
3.5527136788005009e-14
20
-240
10
-59.999999999999964
20
-240
0
LWPOLYLINE
5
120
100
AcDbEntity
8
0
100
AcDbPolyline
90
4
70
1
43
0.0
10
60.000000000000036
20
-270
10
120.00000000000003
20
-270
10
120.00000000000003
20
-240
10
60.000000000000036
20
-240
0
LWPOLYLINE
5
121
100
AcDbEntity
8
0
100
AcDbPolyline
90
4
70
1
43
0.0
10
120.00000000000003
20
-270
10
180.00000000000003
20
-270
10
180.00000000000003
20
-240
10
120.00000000000003
20
-240
0
LWPOLYLINE
5
122
100
AcDbEntity
8
0
100
AcDbPolyline
90
4
70
1
43
0.0
10
3.5527136788005009e-14
20
-270
10
60.000000000000036
20
-270
10
60.000000000000036
20
-240
10
3.5527136788005009e-14
20
-240
0
LWPOLYLINE
5
123
100
AcDbEntity
8
0
100
AcDbPolyline
90
4
70
1
43
0.0
10
180.00000000000003
20
-270
10
240.00000000000003
20
-270
10
240.00000000000003
20
-240
10
180.00000000000003
20
-240
0
LWPOLYLINE
5
124
100
AcDbEntity
8
0
100
AcDbPolyline
90
4
70
1
43
0.0
10
239.99999910593033
20
269.71570730209356
10
179.99999910593033
20
269.71570730209356
10
179.99999910593033
20
239.71570730209356
10
239.99999910593033
20
239.71570730209356
0
LWPOLYLINE
5
125
100
AcDbEntity
8
0
100
AcDbPolyline
90
4
70
1
43
0.0
10
179.99999910593033
20
269.71570730209356
10
119.99999910593033
20
269.71570730209356
10
119.99999910593033
20
239.71570730209353
10
179.99999910593033
20
239.71570730209356
0
LWPOLYLINE
5
126
100
AcDbEntity
8
0
100
AcDbPolyline
90
4
70
1
43
0.0
10
119.99999910593033
20
269.71570730209356
10
59.999999105930328
20
269.71570730209356
10
59.999999105930328
20
239.71570730209353
10
119.99999910593033
20
239.71570730209353
0
LWPOLYLINE
5
127
100
AcDbEntity
8
0
100
AcDbPolyline
90
4
70
1
43
0.0
10
59.999999105930328
20
269.71570730209356
10
-8.9406967163085938e-07
20
269.71570730209356
10
-8.9406967163085938e-07
20
239.71570730209353
10
59.999999105930328
20
239.71570730209353
0
LWPOLYLINE
5
128
100
AcDbEntity
8
0
100
AcDbPolyline
90
4
70
1
43
0.0
10
-8.9406967163085938e-07
20
269.71570730209356
10
-60.000000894069672
20
269.71570730209356
10
-60.000000894069672
20
239.71570730209353
10
-8.9406967163085938e-07
20
239.71570730209353
0
LWPOLYLINE
5
129
100
AcDbEntity
8
0
100
AcDbPolyline
90
4
70
1
43
0.0
10
-60.000000894069672
20
269.71570730209356
10
-120.00000089406967
20
269.71570730209356
10
-120.00000089406967
20
239.71570730209353
10
-60.000000894069672
20
239.71570730209353
0
LWPOLYLINE
5
130
100
AcDbEntity
8
0
100
AcDbPolyline
90
4
70
1
43
0.0
10
-120.00000089406967
20
269.71570730209356
10
-180.00000089406967
20
269.71570730209351
10
-180.00000089406967
20
239.71570730209351
10
-120.00000089406967
20
239.71570730209353
0
LWPOLYLINE
5
131
100
AcDbEntity
8
0
100
AcDbPolyline
90
4
70
1
43
0.0
10
-180.00000089406967
20
269.71570730209351
10
-240.00000089406967
20
269.71570730209351
10
-240.00000089406967
20
239.71570730209351
10
-180.00000089406967
20
239.71570730209351
0
LWPOLYLINE
5
132
100
AcDbEntity
8
0
100
AcDbPolyline
90
4
70
1
43
0.0
10
-300
20
2.5931888107094258e-15
10
300
20
-2.5931888107094258e-15
10
300
20
300
10
-300
20
300
0
LWPOLYLINE
5
133
100
AcDbEntity
8
0
100
AcDbPolyline
90
4
70
1
43
0.0
10
-300
20
2.5931888107094258e-15
10
300
20
2.5931888107094258e-15
10
300
20
-300
10
-300
20
-300
0
LWPOLYLINE
5
134
100
AcDbEntity
8
0
100
AcDbPolyline
90
4
70
1
43
0.0
10
-240
20
-179.99999999999997
10
-180
20
-180
10
-180
20
-240
10
-240
20
-239.99999999999994
0
LWPOLYLINE
5
135
100
AcDbEntity
8
0
100
AcDbPolyline
90
4
70
1
43
0.0
10
-120
20
-240
10
-180
20
-239.99999999999994
10
-180
20
-179.99999999999997
10
-120
20
-180
0
LWPOLYLINE
5
136
100
AcDbEntity
8
0
100
AcDbPolyline
90
4
70
1
43
0.0
10
-60
20
-240
10
-120
20
-239.99999999999994
10
-120
20
-179.99999999999997
10
-60
20
-180
0
LWPOLYLINE
5
137
100
AcDbEntity
8
0
100
AcDbPolyline
90
4
70
1
43
0.0
10
0
20
-240
10
-60
20
-239.99999999999994
10
-60
20
-179.99999999999997
10
0
20
-180
0
LWPOLYLINE
5
138
100
AcDbEntity
8
0
100
AcDbPolyline
90
4
70
1
43
0.0
10
60
20
-240
10
0
20
-239.99999999999994
10
0
20
-179.99999999999997
10
60
20
-180
0
LWPOLYLINE
5
139
100
AcDbEntity
8
0
100
AcDbPolyline
90
4
70
1
43
0.0
10
120
20
-240
10
60
20
-239.99999999999994
10
60
20
-179.99999999999997
10
120
20
-180
0
LWPOLYLINE
5
140
100
AcDbEntity
8
0
100
AcDbPolyline
90
4
70
1
43
0.0
10
180
20
-240
10
120
20
-239.99999999999994
10
120
20
-179.99999999999997
10
180
20
-180
0
LWPOLYLINE
5
141
100
AcDbEntity
8
0
100
AcDbPolyline
90
4
70
1
43
0.0
10
240
20
-240
10
180
20
-239.99999999999994
10
180
20
-179.99999999999997
10
240
20
-180
0
LWPOLYLINE
5
142
100
AcDbEntity
8
0
100
AcDbPolyline
90
4
70
1
43
0.0
10
-180
20
-180
10
-240
20
-179.99999999999994
10
-240
20
-119.99999999999994
10
-180
20
-119.99999999999999
0
LWPOLYLINE
5
143
100
AcDbEntity
8
0
100
AcDbPolyline
90
4
70
1
43
0.0
10
-120
20
-180
10
-180
20
-179.99999999999994
10
-180
20
-119.99999999999994
10
-120
20
-119.99999999999999
0
LWPOLYLINE
5
144
100
AcDbEntity
8
0
100
AcDbPolyline
90
4
70
1
43
0.0
10
-60
20
-180
10
-120
20
-179.99999999999994
10
-120
20
-119.99999999999994
10
-60
20
-119.99999999999999
0
LWPOLYLINE
5
145
100
AcDbEntity
8
0
100
AcDbPolyline
90
4
70
1
43
0.0
10
0
20
-180
10
-60
20
-179.99999999999994
10
-60
20
-119.99999999999994
10
0
20
-119.99999999999999
0
LWPOLYLINE
5
146
100
AcDbEntity
8
0
100
AcDbPolyline
90
4
70
1
43
0.0
10
60
20
-180
10
0
20
-179.99999999999994
10
0
20
-119.99999999999994
10
60
20
-119.99999999999999
0
LWPOLYLINE
5
147
100
AcDbEntity
8
0
100
AcDbPolyline
90
4
70
1
43
0.0
10
120
20
-180
10
60
20
-179.99999999999994
10
60
20
-119.99999999999994
10
120
20
-119.99999999999999
0
LWPOLYLINE
5
148
100
AcDbEntity
8
0
100
AcDbPolyline
90
4
70
1
43
0.0
10
180
20
-180
10
120
20
-179.99999999999994
10
120
20
-119.99999999999994
10
180
20
-119.99999999999999
0
LWPOLYLINE
5
149
100
AcDbEntity
8
0
100
AcDbPolyline
90
4
70
1
43
0.0
10
240
20
-180
10
180
20
-179.99999999999994
10
180
20
-119.99999999999994
10
240
20
-119.99999999999999
0
LWPOLYLINE
5
150
100
AcDbEntity
8
0
100
AcDbPolyline
90
4
70
1
43
0.0
10
-180
20
-119.99999999999999
10
-240
20
-119.99999999999994
10
-240
20
-59.999999999999943
10
-180
20
-59.999999999999986
0
LWPOLYLINE
5
151
100
AcDbEntity
8
0
100
AcDbPolyline
90
4
70
1
43
0.0
10
-120
20
-119.99999999999999
10
-180
20
-119.99999999999994
10
-180
20
-59.999999999999943
10
-120
20
-59.999999999999986
0
LWPOLYLINE
5
152
100
AcDbEntity
8
0
100
AcDbPolyline
90
4
70
1
43
0.0
10
-60
20
-119.99999999999999
10
-120
20
-119.99999999999994
10
-120
20
-59.999999999999943
10
-60
20
-59.999999999999986
0
LWPOLYLINE
5
153
100
AcDbEntity
8
0
100
AcDbPolyline
90
4
70
1
43
0.0
10
0
20
-119.99999999999999
10
-60
20
-119.99999999999994
10
-60
20
-59.999999999999943
10
0
20
-59.999999999999986
0
LWPOLYLINE
5
154
100
AcDbEntity
8
0
100
AcDbPolyline
90
4
70
1
43
0.0
10
60
20
-119.99999999999999
10
0
20
-119.99999999999994
10
0
20
-59.999999999999943
10
60
20
-59.999999999999986
0
LWPOLYLINE
5
155
100
AcDbEntity
8
0
100
AcDbPolyline
90
4
70
1
43
0.0
10
120
20
-119.99999999999999
10
60
20
-119.99999999999994
10
60
20
-59.999999999999943
10
120
20
-59.999999999999986
0
LWPOLYLINE
5
156
100
AcDbEntity
8
0
100
AcDbPolyline
90
4
70
1
43
0.0
10
180
20
-119.99999999999999
10
120
20
-119.99999999999994
10
120
20
-59.999999999999943
10
180
20
-59.999999999999986
0
LWPOLYLINE
5
157
100
AcDbEntity
8
0
100
AcDbPolyline
90
4
70
1
43
0.0
10
240
20
-119.99999999999999
10
180
20
-119.99999999999994
10
180
20
-59.999999999999943
10
240
20
-59.999999999999986
0
LWPOLYLINE
5
158
100
AcDbEntity
8
0
100
AcDbPolyline
90
4
70
1
43
0.0
10
-180
20
-59.999999999999986
10
-240
20
-59.999999999999943
10
-240
20
3.5527136788005009e-14
10
-180
20
0
0
LWPOLYLINE
5
159
100
AcDbEntity
8
0
100
AcDbPolyline
90
4
70
1
43
0.0
10
-120
20
-59.999999999999986
10
-180
20
-59.999999999999943
10
-180
20
3.5527136788005009e-14
10
-120
20
0
0
LWPOLYLINE
5
160
100
AcDbEntity
8
0
100
AcDbPolyline
90
4
70
1
43
0.0
10
-60
20
-59.999999999999986
10
-120
20
-59.999999999999943
10
-120
20
3.5527136788005009e-14
10
-60
20
0
0
LWPOLYLINE
5
161
100
AcDbEntity
8
0
100
AcDbPolyline
90
4
70
1
43
0.0
10
0
20
-59.999999999999986
10
-60
20
-59.999999999999943
10
-60
20
3.5527136788005009e-14
10
0
20
0
0
LWPOLYLINE
5
162
100
AcDbEntity
8
0
100
AcDbPolyline
90
4
70
1
43
0.0
10
60
20
-59.999999999999986
10
0
20
-59.999999999999943
10
0
20
3.5527136788005009e-14
10
60
20
0
0
LWPOLYLINE
5
163
100
AcDbEntity
8
0
100
AcDbPolyline
90
4
70
1
43
0.0
10
120
20
-59.999999999999986
10
60
20
-59.999999999999943
10
60
20
3.5527136788005009e-14
10
120
20
0
0
LWPOLYLINE
5
164
100
AcDbEntity
8
0
100
AcDbPolyline
90
4
70
1
43
0.0
10
180
20
-59.999999999999986
10
120
20
-59.999999999999943
10
120
20
3.5527136788005009e-14
10
180
20
0
0
LWPOLYLINE
5
165
100
AcDbEntity
8
0
100
AcDbPolyline
90
4
70
1
43
0.0
10
240
20
-59.999999999999986
10
180
20
-59.999999999999943
10
180
20
3.5527136788005009e-14
10
240
20
0
0
LWPOLYLINE
5
166
100
AcDbEntity
8
0
100
AcDbPolyline
90
4
70
1
43
0.0
10
-180
20
0
10
-240
20
7.1054273576010019e-14
10
-240
20
60.000000000000036
10
-180
20
60
0
LWPOLYLINE
5
167
100
AcDbEntity
8
0
100
AcDbPolyline
90
4
70
1
43
0.0
10
-120
20
0
10
-180
20
7.1054273576010019e-14
10
-180
20
60.000000000000036
10
-120
20
60
0
LWPOLYLINE
5
168
100
AcDbEntity
8
0
100
AcDbPolyline
90
4
70
1
43
0.0
10
-60
20
0
10
-120
20
7.1054273576010019e-14
10
-120
20
60.000000000000036
10
-60
20
60
0
LWPOLYLINE
5
169
100
AcDbEntity
8
0
100
AcDbPolyline
90
4
70
1
43
0.0
10
0
20
0
10
-60
20
7.1054273576010019e-14
10
-60
20
60.000000000000036
10
0
20
60
0
LWPOLYLINE
5
170
100
AcDbEntity
8
0
100
AcDbPolyline
90
4
70
1
43
0.0
10
60
20
0
10
0
20
7.1054273576010019e-14
10
0
20
60.000000000000036
10
60
20
60
0
LWPOLYLINE
5
171
100
AcDbEntity
8
0
100
AcDbPolyline
90
4
70
1
43
0.0
10
120
20
0
10
60
20
7.1054273576010019e-14
10
60
20
60.000000000000036
10
120
20
60
0
LWPOLYLINE
5
172
100
AcDbEntity
8
0
100
AcDbPolyline
90
4
70
1
43
0.0
10
180
20
0
10
120
20
7.1054273576010019e-14
10
120
20
60.000000000000036
10
180
20
60
0
LWPOLYLINE
5
173
100
AcDbEntity
8
0
100
AcDbPolyline
90
4
70
1
43
0.0
10
240
20
0
10
180
20
7.1054273576010019e-14
10
180
20
60.000000000000036
10
240
20
60
0
LWPOLYLINE
5
174
100
AcDbEntity
8
0
100
AcDbPolyline
90
4
70
1
43
0.0
10
-180
20
60
10
-240
20
60.000000000000071
10
-240
20
120.00000000000003
10
-180
20
120
0
LWPOLYLINE
5
175
100
AcDbEntity
8
0
100
AcDbPolyline
90
4
70
1
43
0.0
10
-120
20
60
10
-180
20
60.000000000000071
10
-180
20
120.00000000000003
10
-120
20
120
0
LWPOLYLINE
5
176
100
AcDbEntity
8
0
100
AcDbPolyline
90
4
70
1
43
0.0
10
-60
20
60
10
-120
20
60.000000000000071
10
-120
20
120.00000000000003
10
-60
20
120
0
LWPOLYLINE
5
177
100
AcDbEntity
8
0
100
AcDbPolyline
90
4
70
1
43
0.0
10
0
20
60
10
-60
20
60.000000000000071
10
-60
20
120.00000000000003
10
0
20
120
0
LWPOLYLINE
5
178
100
AcDbEntity
8
0
100
AcDbPolyline
90
4
70
1
43
0.0
10
60
20
60
10
0
20
60.000000000000071
10
0
20
120.00000000000003
10
60
20
120
0
LWPOLYLINE
5
179
100
AcDbEntity
8
0
100
AcDbPolyline
90
4
70
1
43
0.0
10
120
20
60
10
60
20
60.000000000000071
10
60
20
120.00000000000003
10
120
20
120
0
LWPOLYLINE
5
180
100
AcDbEntity
8
0
100
AcDbPolyline
90
4
70
1
43
0.0
10
180
20
60
10
120
20
60.000000000000071
10
120
20
120.00000000000003
10
180
20
120
0
LWPOLYLINE
5
181
100
AcDbEntity
8
0
100
AcDbPolyline
90
4
70
1
43
0.0
10
240
20
60
10
180
20
60.000000000000071
10
180
20
120.00000000000003
10
240
20
120
0
LWPOLYLINE
5
182
100
AcDbEntity
8
0
100
AcDbPolyline
90
4
70
1
43
0.0
10
-180
20
120
10
-240
20
120.00000000000007
10
-240
20
180.00000000000006
10
-180
20
180
0
LWPOLYLINE
5
183
100
AcDbEntity
8
0
100
AcDbPolyline
90
4
70
1
43
0.0
10
-120
20
120
10
-180
20
120.00000000000007
10
-180
20
180.00000000000006
10
-120
20
180
0
LWPOLYLINE
5
184
100
AcDbEntity
8
0
100
AcDbPolyline
90
4
70
1
43
0.0
10
-60
20
120
10
-120
20
120.00000000000007
10
-120
20
180.00000000000006
10
-60
20
180
0
LWPOLYLINE
5
185
100
AcDbEntity
8
0
100
AcDbPolyline
90
4
70
1
43
0.0
10
0
20
120
10
-60
20
120.00000000000007
10
-60
20
180.00000000000006
10
0
20
180
0
LWPOLYLINE
5
186
100
AcDbEntity
8
0
100
AcDbPolyline
90
4
70
1
43
0.0
10
60
20
120
10
0
20
120.00000000000007
10
0
20
180.00000000000006
10
60
20
180
0
LWPOLYLINE
5
187
100
AcDbEntity
8
0
100
AcDbPolyline
90
4
70
1
43
0.0
10
120
20
120
10
60
20
120.00000000000007
10
60
20
180.00000000000006
10
120
20
180
0
LWPOLYLINE
5
188
100
AcDbEntity
8
0
100
AcDbPolyline
90
4
70
1
43
0.0
10
180
20
120
10
120
20
120.00000000000007
10
120
20
180.00000000000006
10
180
20
180
0
LWPOLYLINE
5
189
100
AcDbEntity
8
0
100
AcDbPolyline
90
4
70
1
43
0.0
10
240
20
120
10
180
20
120.00000000000007
10
180
20
180.00000000000006
10
240
20
180
0
LWPOLYLINE
5
190
100
AcDbEntity
8
0
100
AcDbPolyline
90
4
70
1
43
0.0
10
-180
20
180
10
-240
20
180.00000000000006
10
-240
20
240.00000000000006
10
-180
20
240
0
LWPOLYLINE
5
191
100
AcDbEntity
8
0
100
AcDbPolyline
90
4
70
1
43
0.0
10
-120
20
180
10
-180
20
180.00000000000006
10
-180
20
240.00000000000006
10
-120
20
240
0
LWPOLYLINE
5
192
100
AcDbEntity
8
0
100
AcDbPolyline
90
4
70
1
43
0.0
10
-60
20
180
10
-120
20
180.00000000000006
10
-120
20
240.00000000000006
10
-60
20
240
0
LWPOLYLINE
5
193
100
AcDbEntity
8
0
100
AcDbPolyline
90
4
70
1
43
0.0
10
0
20
180
10
-60
20
180.00000000000006
10
-60
20
240.00000000000006
10
0
20
240
0
LWPOLYLINE
5
194
100
AcDbEntity
8
0
100
AcDbPolyline
90
4
70
1
43
0.0
10
60
20
180
10
0
20
180.00000000000006
10
0
20
240.00000000000006
10
60
20
240
0
LWPOLYLINE
5
195
100
AcDbEntity
8
0
100
AcDbPolyline
90
4
70
1
43
0.0
10
120
20
180
10
60
20
180.00000000000006
10
60
20
240.00000000000006
10
120
20
240
0
LWPOLYLINE
5
196
100
AcDbEntity
8
0
100
AcDbPolyline
90
4
70
1
43
0.0
10
180
20
180
10
120
20
180.00000000000006
10
120
20
240.00000000000006
10
180
20
240
0
LWPOLYLINE
5
197
100
AcDbEntity
8
0
100
AcDbPolyline
90
4
70
1
43
0.0
10
240
20
180
10
180
20
180.00000000000006
10
180
20
240.00000000000006
10
240
20
240
0
LWPOLYLINE
5
198
100
AcDbEntity
8
0
100
AcDbPolyline
90
4
70
1
43
0.0
10
-270
20
2.5931888107094258e-15
10
270
20
2.5931888107094258e-15
10
270
20
270
10
-270
20
270
0
LWPOLYLINE
5
199
100
AcDbEntity
8
0
100
AcDbPolyline
90
4
70
1
43
0.0
10
-270
20
2.5931888107094258e-15
10
270
20
2.5931888107094258e-15
10
270
20
-270
10
-270
20
-270
0
LINE
5
200
100
AcDbEntity
8
0
100
AcDbLine
10
-240
20
240.00000000000006
30
0
11
-180
21
180.00000000000006
31
0
0
LINE
5
201
100
AcDbEntity
8
0
100
AcDbLine
10
-240
20
180.00000000000006
30
0
11
-180
21
240
31
0
0
LINE
5
202
100
AcDbEntity
8
0
100
AcDbLine
10
-199.69223593595584
20
230.00000000000003
30
0
11
-199.69223593595584
21
190.00000000000003
31
0
0
LWPOLYLINE
5
203
100
AcDbEntity
8
0
100
AcDbPolyline
90
4
70
1
43
0.0
10
-201.98285017241008
20
194.44444444444446
42
0.60961179679779121
10
-201.98285017241005
20
225.55555555555557
42
-0.99999999999999989
10
-197.40162169950156
20
234.44444444444443
42
-0.60961179679779165
10
-197.40162169950156
20
185.5555555555556
42
-0.99999999999999989
0
LWPOLYLINE
5
204
100
AcDbEntity
8
0
100
AcDbPolyline
90
4
70
1
43
0.0
10
-141.98285017241008
20
194.44444444444446
42
0.60961179679779121
10
-141.98285017241005
20
225.55555555555557
42
-0.99999999999999989
10
-137.40162169950159
20
234.44444444444443
42
-0.60961179679779165
10
-137.40162169950156
20
185.5555555555556
42
-0.99999999999999989
0
LWPOLYLINE
5
205
100
AcDbEntity
8
0
100
AcDbPolyline
90
4
70
1
43
0.0
10
-81.982850172410082
20
194.44444444444446
42
0.60961179679779121
10
-81.982850172410053
20
225.55555555555557
42
-0.99999999999999989
10
-77.40162169950159
20
234.44444444444443
42
-0.60961179679779165
10
-77.401621699501561
20
185.5555555555556
42
-0.99999999999999989
0
LWPOLYLINE
5
206
100
AcDbEntity
8
0
100
AcDbPolyline
90
4
70
1
43
0.0
10
-21.982850172410089
20
194.44444444444446
42
0.60961179679779121
10
-21.982850172410053
20
225.55555555555557
42
-0.99999999999999989
10
-17.401621699501575
20
234.44444444444443
42
-0.60961179679779165
10
-17.401621699501568
20
185.5555555555556
42
-0.99999999999999989
0
LWPOLYLINE
5
207
100
AcDbEntity
8
0
100
AcDbPolyline
90
4
70
1
43
0.0
10
38.017149827589911
20
194.44444444444446
42
0.60961179679779121
10
38.017149827589947
20
225.55555555555557
42
-0.99999999999999989
10
42.598378300498425
20
234.44444444444443
42
-0.60961179679779165
10
42.598378300498432
20
185.5555555555556
42
-0.99999999999999989
0
LWPOLYLINE
5
208
100
AcDbEntity
8
0
100
AcDbPolyline
90
4
70
1
43
0.0
10
98.017149827589918
20
194.44444444444446
42
0.60961179679779121
10
98.017149827589947
20
225.55555555555557
42
-0.99999999999999989
10
102.59837830049841
20
234.44444444444443
42
-0.60961179679779165
10
102.59837830049844
20
185.5555555555556
42
-0.99999999999999989
0
LWPOLYLINE
5
209
100
AcDbEntity
8
0
100
AcDbPolyline
90
4
70
1
43
0.0
10
158.01714982758992
20
194.44444444444446
42
0.60961179679779121
10
158.01714982758995
20
225.55555555555557
42
-0.99999999999999989
10
162.59837830049844
20
234.44444444444443
42
-0.60961179679779165
10
162.59837830049844
20
185.5555555555556
42
-0.99999999999999989
0
LWPOLYLINE
5
210
100
AcDbEntity
8
0
100
AcDbPolyline
90
4
70
1
43
0.0
10
218.01714982758992
20
194.44444444444446
42
0.60961179679779121
10
218.01714982758995
20
225.55555555555557
42
-0.99999999999999989
10
222.59837830049844
20
234.44444444444443
42
-0.60961179679779165
10
222.59837830049844
20
185.5555555555556
42
-0.99999999999999989
0
LWPOLYLINE
5
211
100
AcDbEntity
8
0
100
AcDbPolyline
90
4
70
1
43
0.0
10
-201.98285017241008
20
134.44444444444446
42
0.60961179679779121
10
-201.98285017241005
20
165.55555555555557
42
-0.99999999999999989
10
-197.40162169950156
20
174.44444444444443
42
-0.60961179679779165
10
-197.40162169950156
20
125.5555555555556
42
-0.99999999999999989
0
LWPOLYLINE
5
212
100
AcDbEntity
8
0
100
AcDbPolyline
90
4
70
1
43
0.0
10
-141.98285017241008
20
134.44444444444446
42
0.60961179679779121
10
-141.98285017241005
20
165.55555555555557
42
-0.99999999999999989
10
-137.40162169950159
20
174.44444444444443
42
-0.60961179679779165
10
-137.40162169950156
20
125.5555555555556
42
-0.99999999999999989
0
LWPOLYLINE
5
213
100
AcDbEntity
8
0
100
AcDbPolyline
90
4
70
1
43
0.0
10
-81.982850172410082
20
134.44444444444446
42
0.60961179679779121
10
-81.982850172410053
20
165.55555555555557
42
-0.99999999999999989
10
-77.40162169950159
20
174.44444444444443
42
-0.60961179679779165
10
-77.401621699501561
20
125.5555555555556
42
-0.99999999999999989
0
LWPOLYLINE
5
214
100
AcDbEntity
8
0
100
AcDbPolyline
90
4
70
1
43
0.0
10
-21.982850172410089
20
134.44444444444446
42
0.60961179679779121
10
-21.982850172410053
20
165.55555555555557
42
-0.99999999999999989
10
-17.401621699501575
20
174.44444444444443
42
-0.60961179679779165
10
-17.401621699501568
20
125.5555555555556
42
-0.99999999999999989
0
LWPOLYLINE
5
215
100
AcDbEntity
8
0
100
AcDbPolyline
90
4
70
1
43
0.0
10
38.017149827589911
20
134.44444444444446
42
0.60961179679779121
10
38.017149827589947
20
165.55555555555557
42
-0.99999999999999989
10
42.598378300498425
20
174.44444444444443
42
-0.60961179679779165
10
42.598378300498432
20
125.5555555555556
42
-0.99999999999999989
0
LWPOLYLINE
5
216
100
AcDbEntity
8
0
100
AcDbPolyline
90
4
70
1
43
0.0
10
98.017149827589918
20
134.44444444444446
42
0.60961179679779121
10
98.017149827589947
20
165.55555555555557
42
-0.99999999999999989
10
102.59837830049841
20
174.44444444444443
42
-0.60961179679779165
10
102.59837830049844
20
125.5555555555556
42
-0.99999999999999989
0
LWPOLYLINE
5
217
100
AcDbEntity
8
0
100
AcDbPolyline
90
4
70
1
43
0.0
10
158.01714982758992
20
134.44444444444446
42
0.60961179679779121
10
158.01714982758995
20
165.55555555555557
42
-0.99999999999999989
10
162.59837830049844
20
174.44444444444443
42
-0.60961179679779165
10
162.59837830049844
20
125.5555555555556
42
-0.99999999999999989
0
LWPOLYLINE
5
218
100
AcDbEntity
8
0
100
AcDbPolyline
90
4
70
1
43
0.0
10
218.01714982758992
20
134.44444444444446
42
0.60961179679779121
10
218.01714982758995
20
165.55555555555557
42
-0.99999999999999989
10
222.59837830049844
20
174.44444444444443
42
-0.60961179679779165
10
222.59837830049844
20
125.5555555555556
42
-0.99999999999999989
0
LWPOLYLINE
5
219
100
AcDbEntity
8
0
100
AcDbPolyline
90
4
70
1
43
0.0
10
-201.98285017241008
20
74.444444444444457
42
0.60961179679779121
10
-201.98285017241005
20
105.55555555555557
42
-0.99999999999999989
10
-197.40162169950156
20
114.44444444444443
42
-0.60961179679779165
10
-197.40162169950156
20
65.5555555555556
42
-0.99999999999999989
0
LWPOLYLINE
5
220
100
AcDbEntity
8
0
100
AcDbPolyline
90
4
70
1
43
0.0
10
-141.98285017241008
20
74.444444444444457
42
0.60961179679779121
10
-141.98285017241005
20
105.55555555555557
42
-0.99999999999999989
10
-137.40162169950159
20
114.44444444444443
42
-0.60961179679779165
10
-137.40162169950156
20
65.5555555555556
42
-0.99999999999999989
0
LWPOLYLINE
5
221
100
AcDbEntity
8
0
100
AcDbPolyline
90
4
70
1
43
0.0
10
-81.982850172410082
20
74.444444444444457
42
0.60961179679779121
10
-81.982850172410053
20
105.55555555555557
42
-0.99999999999999989
10
-77.40162169950159
20
114.44444444444443
42
-0.60961179679779165
10
-77.401621699501561
20
65.5555555555556
42
-0.99999999999999989
0
LWPOLYLINE
5
222
100
AcDbEntity
8
0
100
AcDbPolyline
90
4
70
1
43
0.0
10
-21.982850172410089
20
74.444444444444457
42
0.60961179679779121
10
-21.982850172410053
20
105.55555555555557
42
-0.99999999999999989
10
-17.401621699501575
20
114.44444444444443
42
-0.60961179679779165
10
-17.401621699501568
20
65.5555555555556
42
-0.99999999999999989
0
LWPOLYLINE
5
223
100
AcDbEntity
8
0
100
AcDbPolyline
90
4
70
1
43
0.0
10
38.017149827589911
20
74.444444444444457
42
0.60961179679779121
10
38.017149827589947
20
105.55555555555557
42
-0.99999999999999989
10
42.598378300498425
20
114.44444444444443
42
-0.60961179679779165
10
42.598378300498432
20
65.5555555555556
42
-0.99999999999999989
0
LWPOLYLINE
5
224
100
AcDbEntity
8
0
100
AcDbPolyline
90
4
70
1
43
0.0
10
98.017149827589918
20
74.444444444444457
42
0.60961179679779121
10
98.017149827589947
20
105.55555555555557
42
-0.99999999999999989
10
102.59837830049841
20
114.44444444444443
42
-0.60961179679779165
10
102.59837830049844
20
65.5555555555556
42
-0.99999999999999989
0
LWPOLYLINE
5
225
100
AcDbEntity
8
0
100
AcDbPolyline
90
4
70
1
43
0.0
10
158.01714982758992
20
74.444444444444457
42
0.60961179679779121
10
158.01714982758995
20
105.55555555555557
42
-0.99999999999999989
10
162.59837830049844
20
114.44444444444443
42
-0.60961179679779165
10
162.59837830049844
20
65.5555555555556
42
-0.99999999999999989
0
LWPOLYLINE
5
226
100
AcDbEntity
8
0
100
AcDbPolyline
90
4
70
1
43
0.0
10
218.01714982758992
20
74.444444444444457
42
0.60961179679779121
10
218.01714982758995
20
105.55555555555557
42
-0.99999999999999989
10
222.59837830049844
20
114.44444444444443
42
-0.60961179679779165
10
222.59837830049844
20
65.5555555555556
42
-0.99999999999999989
0
LWPOLYLINE
5
227
100
AcDbEntity
8
0
100
AcDbPolyline
90
4
70
1
43
0.0
10
-201.98285017241008
20
14.444444444444462
42
0.60961179679779121
10
-201.98285017241005
20
45.555555555555571
42
-0.99999999999999989
10
-197.40162169950156
20
54.444444444444422
42
-0.60961179679779165
10
-197.40162169950156
20
5.5555555555556069
42
-0.99999999999999989
0
LWPOLYLINE
5
228
100
AcDbEntity
8
0
100
AcDbPolyline
90
4
70
1
43
0.0
10
-141.98285017241008
20
14.444444444444462
42
0.60961179679779121
10
-141.98285017241005
20
45.555555555555571
42
-0.99999999999999989
10
-137.40162169950159
20
54.444444444444422
42
-0.60961179679779165
10
-137.40162169950156
20
5.5555555555556069
42
-0.99999999999999989
0
LWPOLYLINE
5
229
100
AcDbEntity
8
0
100
AcDbPolyline
90
4
70
1
43
0.0
10
-81.982850172410082
20
14.444444444444462
42
0.60961179679779121
10
-81.982850172410053
20
45.555555555555571
42
-0.99999999999999989
10
-77.40162169950159
20
54.444444444444422
42
-0.60961179679779165
10
-77.401621699501561
20
5.5555555555556069
42
-0.99999999999999989
0
LWPOLYLINE
5
230
100
AcDbEntity
8
0
100
AcDbPolyline
90
4
70
1
43
0.0
10
-21.982850172410089
20
14.444444444444462
42
0.60961179679779121
10
-21.982850172410053
20
45.555555555555571
42
-0.99999999999999989
10
-17.401621699501575
20
54.444444444444422
42
-0.60961179679779165
10
-17.401621699501568
20
5.5555555555556069
42
-0.99999999999999989
0
LWPOLYLINE
5
231
100
AcDbEntity
8
0
100
AcDbPolyline
90
4
70
1
43
0.0
10
38.017149827589911
20
14.444444444444462
42
0.60961179679779121
10
38.017149827589947
20
45.555555555555571
42
-0.99999999999999989
10
42.598378300498425
20
54.444444444444422
42
-0.60961179679779165
10
42.598378300498432
20
5.5555555555556069
42
-0.99999999999999989
0
LWPOLYLINE
5
232
100
AcDbEntity
8
0
100
AcDbPolyline
90
4
70
1
43
0.0
10
98.017149827589918
20
14.444444444444462
42
0.60961179679779121
10
98.017149827589947
20
45.555555555555571
42
-0.99999999999999989
10
102.59837830049841
20
54.444444444444422
42
-0.60961179679779165
10
102.59837830049844
20
5.5555555555556069
42
-0.99999999999999989
0
LWPOLYLINE
5
233
100
AcDbEntity
8
0
100
AcDbPolyline
90
4
70
1
43
0.0
10
158.01714982758992
20
14.444444444444462
42
0.60961179679779121
10
158.01714982758995
20
45.555555555555571
42
-0.99999999999999989
10
162.59837830049844
20
54.444444444444422
42
-0.60961179679779165
10
162.59837830049844
20
5.5555555555556069
42
-0.99999999999999989
0
LWPOLYLINE
5
234
100
AcDbEntity
8
0
100
AcDbPolyline
90
4
70
1
43
0.0
10
218.01714982758992
20
14.444444444444462
42
0.60961179679779121
10
218.01714982758995
20
45.555555555555571
42
-0.99999999999999989
10
222.59837830049844
20
54.444444444444422
42
-0.60961179679779165
10
222.59837830049844
20
5.5555555555556069
42
-0.99999999999999989
0
LWPOLYLINE
5
235
100
AcDbEntity
8
0
100
AcDbPolyline
90
4
70
1
43
0.0
10
-201.98285017241008
20
-45.555555555555536
42
0.60961179679779121
10
-201.98285017241005
20
-14.444444444444429
42
-0.99999999999999989
10
-197.40162169950156
20
-5.555555555555582
42
-0.60961179679779165
10
-197.40162169950156
20
-54.444444444444393
42
-0.99999999999999989
0
LWPOLYLINE
5
236
100
AcDbEntity
8
0
100
AcDbPolyline
90
4
70
1
43
0.0
10
-141.98285017241008
20
-45.555555555555536
42
0.60961179679779121
10
-141.98285017241005
20
-14.444444444444429
42
-0.99999999999999989
10
-137.40162169950159
20
-5.555555555555582
42
-0.60961179679779165
10
-137.40162169950156
20
-54.444444444444393
42
-0.99999999999999989
0
LWPOLYLINE
5
237
100
AcDbEntity
8
0
100
AcDbPolyline
90
4
70
1
43
0.0
10
-81.982850172410082
20
-45.555555555555536
42
0.60961179679779121
10
-81.982850172410053
20
-14.444444444444429
42
-0.99999999999999989
10
-77.40162169950159
20
-5.555555555555582
42
-0.60961179679779165
10
-77.401621699501561
20
-54.444444444444393
42
-0.99999999999999989
0
LWPOLYLINE
5
238
100
AcDbEntity
8
0
100
AcDbPolyline
90
4
70
1
43
0.0
10
-21.982850172410089
20
-45.555555555555536
42
0.60961179679779121
10
-21.982850172410053
20
-14.444444444444429
42
-0.99999999999999989
10
-17.401621699501575
20
-5.555555555555582
42
-0.60961179679779165
10
-17.401621699501568
20
-54.444444444444393
42
-0.99999999999999989
0
LWPOLYLINE
5
239
100
AcDbEntity
8
0
100
AcDbPolyline
90
4
70
1
43
0.0
10
38.017149827589911
20
-45.555555555555536
42
0.60961179679779121
10
38.017149827589947
20
-14.444444444444429
42
-0.99999999999999989
10
42.598378300498425
20
-5.555555555555582
42
-0.60961179679779165
10
42.598378300498432
20
-54.444444444444393
42
-0.99999999999999989
0
LWPOLYLINE
5
240
100
AcDbEntity
8
0
100
AcDbPolyline
90
4
70
1
43
0.0
10
98.017149827589918
20
-45.555555555555536
42
0.60961179679779121
10
98.017149827589947
20
-14.444444444444429
42
-0.99999999999999989
10
102.59837830049841
20
-5.555555555555582
42
-0.60961179679779165
10
102.59837830049844
20
-54.444444444444393
42
-0.99999999999999989
0
LWPOLYLINE
5
241
100
AcDbEntity
8
0
100
AcDbPolyline
90
4
70
1
43
0.0
10
158.01714982758992
20
-45.555555555555536
42
0.60961179679779121
10
158.01714982758995
20
-14.444444444444429
42
-0.99999999999999989
10
162.59837830049844
20
-5.555555555555582
42
-0.60961179679779165
10
162.59837830049844
20
-54.444444444444393
42
-0.99999999999999989
0
LWPOLYLINE
5
242
100
AcDbEntity
8
0
100
AcDbPolyline
90
4
70
1
43
0.0
10
218.01714982758992
20
-45.555555555555536
42
0.60961179679779121
10
218.01714982758995
20
-14.444444444444429
42
-0.99999999999999989
10
222.59837830049844
20
-5.555555555555582
42
-0.60961179679779165
10
222.59837830049844
20
-54.444444444444393
42
-0.99999999999999989
0
LWPOLYLINE
5
243
100
AcDbEntity
8
0
100
AcDbPolyline
90
4
70
1
43
0.0
10
-201.98285017241008
20
-105.55555555555554
42
0.60961179679779121
10
-201.98285017241005
20
-74.444444444444429
42
-0.99999999999999989
10
-197.40162169950156
20
-65.555555555555586
42
-0.60961179679779165
10
-197.40162169950156
20
-114.4444444444444
42
-0.99999999999999989
0
LWPOLYLINE
5
244
100
AcDbEntity
8
0
100
AcDbPolyline
90
4
70
1
43
0.0
10
-141.98285017241008
20
-105.55555555555554
42
0.60961179679779121
10
-141.98285017241005
20
-74.444444444444429
42
-0.99999999999999989
10
-137.40162169950159
20
-65.555555555555586
42
-0.60961179679779165
10
-137.40162169950156
20
-114.4444444444444
42
-0.99999999999999989
0
LWPOLYLINE
5
245
100
AcDbEntity
8
0
100
AcDbPolyline
90
4
70
1
43
0.0
10
-81.982850172410082
20
-105.55555555555554
42
0.60961179679779121
10
-81.982850172410053
20
-74.444444444444429
42
-0.99999999999999989
10
-77.40162169950159
20
-65.555555555555586
42
-0.60961179679779165
10
-77.401621699501561
20
-114.4444444444444
42
-0.99999999999999989
0
LWPOLYLINE
5
246
100
AcDbEntity
8
0
100
AcDbPolyline
90
4
70
1
43
0.0
10
-21.982850172410089
20
-105.55555555555554
42
0.60961179679779121
10
-21.982850172410053
20
-74.444444444444429
42
-0.99999999999999989
10
-17.401621699501575
20
-65.555555555555586
42
-0.60961179679779165
10
-17.401621699501568
20
-114.4444444444444
42
-0.99999999999999989
0
LWPOLYLINE
5
247
100
AcDbEntity
8
0
100
AcDbPolyline
90
4
70
1
43
0.0
10
38.017149827589911
20
-105.55555555555554
42
0.60961179679779121
10
38.017149827589947
20
-74.444444444444429
42
-0.99999999999999989
10
42.598378300498425
20
-65.555555555555586
42
-0.60961179679779165
10
42.598378300498432
20
-114.4444444444444
42
-0.99999999999999989
0
LWPOLYLINE
5
248
100
AcDbEntity
8
0
100
AcDbPolyline
90
4
70
1
43
0.0
10
98.017149827589918
20
-105.55555555555554
42
0.60961179679779121
10
98.017149827589947
20
-74.444444444444429
42
-0.99999999999999989
10
102.59837830049841
20
-65.555555555555586
42
-0.60961179679779165
10
102.59837830049844
20
-114.4444444444444
42
-0.99999999999999989
0
LWPOLYLINE
5
249
100
AcDbEntity
8
0
100
AcDbPolyline
90
4
70
1
43
0.0
10
158.01714982758992
20
-105.55555555555554
42
0.60961179679779121
10
158.01714982758995
20
-74.444444444444429
42
-0.99999999999999989
10
162.59837830049844
20
-65.555555555555586
42
-0.60961179679779165
10
162.59837830049844
20
-114.4444444444444
42
-0.99999999999999989
0
LWPOLYLINE
5
250
100
AcDbEntity
8
0
100
AcDbPolyline
90
4
70
1
43
0.0
10
218.01714982758992
20
-105.55555555555554
42
0.60961179679779121
10
218.01714982758995
20
-74.444444444444429
42
-0.99999999999999989
10
222.59837830049844
20
-65.555555555555586
42
-0.60961179679779165
10
222.59837830049844
20
-114.4444444444444
42
-0.99999999999999989
0
LWPOLYLINE
5
251
100
AcDbEntity
8
0
100
AcDbPolyline
90
4
70
1
43
0.0
10
-201.98285017241008
20
-165.55555555555554
42
0.60961179679779121
10
-201.98285017241005
20
-134.44444444444443
42
-0.99999999999999989
10
-197.40162169950156
20
-125.55555555555557
42
-0.60961179679779165
10
-197.40162169950156
20
-174.4444444444444
42
-0.99999999999999989
0
LWPOLYLINE
5
252
100
AcDbEntity
8
0
100
AcDbPolyline
90
4
70
1
43
0.0
10
-141.98285017241008
20
-165.55555555555554
42
0.60961179679779121
10
-141.98285017241005
20
-134.44444444444443
42
-0.99999999999999989
10
-137.40162169950159
20
-125.55555555555557
42
-0.60961179679779165
10
-137.40162169950156
20
-174.4444444444444
42
-0.99999999999999989
0
LWPOLYLINE
5
253
100
AcDbEntity
8
0
100
AcDbPolyline
90
4
70
1
43
0.0
10
-81.982850172410082
20
-165.55555555555554
42
0.60961179679779121
10
-81.982850172410053
20
-134.44444444444443
42
-0.99999999999999989
10
-77.40162169950159
20
-125.55555555555557
42
-0.60961179679779165
10
-77.401621699501561
20
-174.4444444444444
42
-0.99999999999999989
0
LWPOLYLINE
5
254
100
AcDbEntity
8
0
100
AcDbPolyline
90
4
70
1
43
0.0
10
-21.982850172410089
20
-165.55555555555554
42
0.60961179679779121
10
-21.982850172410053
20
-134.44444444444443
42
-0.99999999999999989
10
-17.401621699501575
20
-125.55555555555557
42
-0.60961179679779165
10
-17.401621699501568
20
-174.4444444444444
42
-0.99999999999999989
0
LWPOLYLINE
5
255
100
AcDbEntity
8
0
100
AcDbPolyline
90
4
70
1
43
0.0
10
38.017149827589911
20
-165.55555555555554
42
0.60961179679779121
10
38.017149827589947
20
-134.44444444444443
42
-0.99999999999999989
10
42.598378300498425
20
-125.55555555555557
42
-0.60961179679779165
10
42.598378300498432
20
-174.4444444444444
42
-0.99999999999999989
0
LWPOLYLINE
5
256
100
AcDbEntity
8
0
100
AcDbPolyline
90
4
70
1
43
0.0
10
98.017149827589918
20
-165.55555555555554
42
0.60961179679779121
10
98.017149827589947
20
-134.44444444444443
42
-0.99999999999999989
10
102.59837830049841
20
-125.55555555555557
42
-0.60961179679779165
10
102.59837830049844
20
-174.4444444444444
42
-0.99999999999999989
0
LWPOLYLINE
5
257
100
AcDbEntity
8
0
100
AcDbPolyline
90
4
70
1
43
0.0
10
158.01714982758992
20
-165.55555555555554
42
0.60961179679779121
10
158.01714982758995
20
-134.44444444444443
42
-0.99999999999999989
10
162.59837830049844
20
-125.55555555555557
42
-0.60961179679779165
10
162.59837830049844
20
-174.4444444444444
42
-0.99999999999999989
0
LWPOLYLINE
5
258
100
AcDbEntity
8
0
100
AcDbPolyline
90
4
70
1
43
0.0
10
218.01714982758992
20
-165.55555555555554
42
0.60961179679779121
10
218.01714982758995
20
-134.44444444444443
42
-0.99999999999999989
10
222.59837830049844
20
-125.55555555555557
42
-0.60961179679779165
10
222.59837830049844
20
-174.4444444444444
42
-0.99999999999999989
0
LWPOLYLINE
5
259
100
AcDbEntity
8
0
100
AcDbPolyline
90
4
70
1
43
0.0
10
-201.98285017241008
20
-225.55555555555554
42
0.60961179679779121
10
-201.98285017241005
20
-194.44444444444443
42
-0.99999999999999989
10
-197.40162169950156
20
-185.55555555555557
42
-0.60961179679779165
10
-197.40162169950156
20
-234.4444444444444
42
-0.99999999999999989
0
LWPOLYLINE
5
260
100
AcDbEntity
8
0
100
AcDbPolyline
90
4
70
1
43
0.0
10
-141.98285017241008
20
-225.55555555555554
42
0.60961179679779121
10
-141.98285017241005
20
-194.44444444444443
42
-0.99999999999999989
10
-137.40162169950159
20
-185.55555555555557
42
-0.60961179679779165
10
-137.40162169950156
20
-234.4444444444444
42
-0.99999999999999989
0
LWPOLYLINE
5
261
100
AcDbEntity
8
0
100
AcDbPolyline
90
4
70
1
43
0.0
10
-81.982850172410082
20
-225.55555555555554
42
0.60961179679779121
10
-81.982850172410053
20
-194.44444444444443
42
-0.99999999999999989
10
-77.40162169950159
20
-185.55555555555557
42
-0.60961179679779165
10
-77.401621699501561
20
-234.4444444444444
42
-0.99999999999999989
0
LWPOLYLINE
5
262
100
AcDbEntity
8
0
100
AcDbPolyline
90
4
70
1
43
0.0
10
-21.982850172410089
20
-225.55555555555554
42
0.60961179679779121
10
-21.982850172410053
20
-194.44444444444443
42
-0.99999999999999989
10
-17.401621699501575
20
-185.55555555555557
42
-0.60961179679779165
10
-17.401621699501568
20
-234.4444444444444
42
-0.99999999999999989
0
LWPOLYLINE
5
263
100
AcDbEntity
8
0
100
AcDbPolyline
90
4
70
1
43
0.0
10
38.017149827589911
20
-225.55555555555554
42
0.60961179679779121
10
38.017149827589947
20
-194.44444444444443
42
-0.99999999999999989
10
42.598378300498425
20
-185.55555555555557
42
-0.60961179679779165
10
42.598378300498432
20
-234.4444444444444
42
-0.99999999999999989
0
LWPOLYLINE
5
264
100
AcDbEntity
8
0
100
AcDbPolyline
90
4
70
1
43
0.0
10
98.017149827589918
20
-225.55555555555554
42
0.60961179679779121
10
98.017149827589947
20
-194.44444444444443
42
-0.99999999999999989
10
102.59837830049841
20
-185.55555555555557
42
-0.60961179679779165
10
102.59837830049844
20
-234.4444444444444
42
-0.99999999999999989
0
LWPOLYLINE
5
265
100
AcDbEntity
8
0
100
AcDbPolyline
90
4
70
1
43
0.0
10
158.01714982758992
20
-225.55555555555554
42
0.60961179679779121
10
158.01714982758995
20
-194.44444444444443
42
-0.99999999999999989
10
162.59837830049844
20
-185.55555555555557
42
-0.60961179679779165
10
162.59837830049844
20
-234.4444444444444
42
-0.99999999999999989
0
LWPOLYLINE
5
266
100
AcDbEntity
8
0
100
AcDbPolyline
90
4
70
1
43
0.0
10
218.01714982758992
20
-225.55555555555554
42
0.60961179679779121
10
218.01714982758995
20
-194.44444444444443
42
-0.99999999999999989
10
222.59837830049844
20
-185.55555555555557
42
-0.60961179679779165
10
222.59837830049844
20
-234.4444444444444
42
-0.99999999999999989
0
LINE
5
267
100
AcDbEntity
8
0
100
AcDbLine
10
-199.69223593595581
20
-189.99999999999997
30
0
11
-199.69223593595584
21
-229.99999999999997
31
0
0
SPLINE
5
268
100
AcDbEntity
8
0
100
AcDbSpline
70
0
71
2
72
6
73
3
74
0
42
0.000000001
43
0.0000000001
44
0.0000000001
40
0
40
0
40
0
40
1
40
1
40
1
10
-247.97974318265915
20
213.5234546661377
30
0
10
-247.97974318265915
20
211.61513805389404
30
0
10
-249.96268481016159
20
210.33582210540771
30
0
0
SPLINE
5
269
100
AcDbEntity
8
0
100
AcDbSpline
70
0
71
2
72
6
73
3
74
0
42
0.000000001
43
0.0000000001
44
0.0000000001
40
0
40
0
40
0
40
1
40
1
40
1
10
-249.96268481016159
20
210.33582210540771
30
0
10
-248.76865595579147
20
208.96055459976196
30
0
10
-248.76865595579147
20
207.32942581176758
30
0
0
SPLINE
5
270
100
AcDbEntity
8
0
100
AcDbSpline
70
0
71
2
72
6
73
3
74
0
42
0.000000001
43
0.0000000001
44
0.0000000001
40
0
40
0
40
0
40
1
40
1
40
1
10
-248.76865595579147
20
207.32942581176758
30
0
10
-248.76865595579147
20
204.95202541351318
30
0
10
-250.96481770277023
20
203.50213050842285
30
0
0
SPLINE
5
271
100
AcDbEntity
8
0
100
AcDbSpline
70
0
71
2
72
6
73
3
74
0
42
0.000000001
43
0.0000000001
44
0.0000000001
40
0
40
0
40
0
40
1
40
1
40
1
10
-250.96481770277023
20
203.50213050842285
30
0
10
-252.89445608854294
20
202.23347663879395
30
0
10
-255.39978593587875
20
202.23347663879395
30
0
0
SPLINE
5
272
100
AcDbEntity
8
0
100
AcDbSpline
70
0
71
2
72
6
73
3
74
0
42
0.000000001
43
0.0000000001
44
0.0000000001
40
0
40
0
40
0
40
1
40
1
40
1
10
-255.39978593587875
20
202.23347663879395
30
0
10
-258.29957336187363
20
202.23347663879395
30
0
10
-259.98400777578354
20
203.32089424133301
30
0
0
SPLINE
5
273
100
AcDbEntity
8
0
100
AcDbSpline
70
0
71
2
72
6
73
3
74
0
42
0.000000001
43
0.0000000001
44
0.0000000001
40
0
40
0
40
0
40
1
40
1
40
1
10
-259.98400777578354
20
203.32089424133301
30
0
10
-262.02025502920151
20
204.61087226867676
30
0
10
-262.02025502920151
20
207.32942581176758
30
0
0
SPLINE
5
274
100
AcDbEntity
8
0
100
AcDbSpline
70
0
71
2
72
6
73
3
74
0
42
0.000000001
43
0.0000000001
44
0.0000000001
40
0
40
0
40
0
40
1
40
1
40
1
10
-262.02025502920151
20
207.32942581176758
30
0
10
-262.02025502920151
20
210.09061813354492
30
0
10
-259.13112968206406
20
211.68976545333862
30
0
0
SPLINE
5
275
100
AcDbEntity
8
0
100
AcDbSpline
70
0
71
2
72
6
73
3
74
0
42
0.000000001
43
0.0000000001
44
0.0000000001
40
0
40
0
40
0
40
1
40
1
40
1
10
-259.13112968206406
20
211.68976545333862
30
0
10
-259.70682233572006
20
212.53198146820068
30
0
10
-259.70682233572006
20
213.5234546661377
30
0
0
SPLINE
5
276
100
AcDbEntity
8
0
100
AcDbSpline
70
0
71
2
72
6
73
3
74
0
42
0.000000001
43
0.0000000001
44
0.0000000001
40
0
40
0
40
0
40
1
40
1
40
1
10
-259.70682233572006
20
213.5234546661377
30
0
10
-259.70682233572006
20
215.49573421478271
30
0
10
-257.68123596906662
20
216.7217493057251
30
0
0
SPLINE
5
277
100
AcDbEntity
8
0
100
AcDbSpline
70
0
71
2
72
6
73
3
74
0
42
0.000000001
43
0.0000000001
44
0.0000000001
40
0
40
0
40
0
40
1
40
1
40
1
10
-257.68123596906662
20
216.7217493057251
30
0
10
-255.94349592924118
20
217.76652336120605
30
0
10
-253.85394424200058
20
217.76652336120605
30
0
0
SPLINE
5
278
100
AcDbEntity
8
0
100
AcDbSpline
70
0
71
2
72
6
73
3
74
0
42
0.000000001
43
0.0000000001
44
0.0000000001
40
0
40
0
40
0
40
1
40
1
40
1
10
-253.85394424200058
20
217.76652336120605
30
0
10
-251.46588414907455
20
217.76652336120605
30
0
10
-249.89871948957443
20
216.86034202575684
30
0
0
SPLINE
5
279
100
AcDbEntity
8
0
100
AcDbSpline
70
0
71
2
72
6
73
3
74
0
42
0.000000001
43
0.0000000001
44
0.0000000001
40
0
40
0
40
0
40
1
40
1
40
1
10
-249.89871948957443
20
216.86034202575684
30
0
10
-247.97974318265915
20
215.74093818664551
30
0
10
-247.97974318265915
20
213.5234546661377
30
0
0
SPLINE
5
280
100
AcDbEntity
8
0
100
AcDbSpline
70
0
71
2
72
6
73
3
74
0
42
0.000000001
43
0.0000000001
44
0.0000000001
40
0
40
0
40
0
40
1
40
1
40
1
10
-251.83901757001877
20
214.41897630691528
30
0
10
-251.83901757001877
20
214.96268749237061
30
0
10
-252.20149129629135
20
215.31449794769287
30
0
0
SPLINE
5
281
100
AcDbEntity
8
0
100
AcDbSpline
70
0
71
2
72
6
73
3
74
0
42
0.000000001
43
0.0000000001
44
0.0000000001
40
0
40
0
40
0
40
1
40
1
40
1
10
-252.20149129629135
20
215.31449794769287
30
0
10
-252.56396502256393
20
215.66631317138672
30
0
10
-253.08635324239731
20
215.66631317138672
30
0
0
SPLINE
5
282
100
AcDbEntity
8
0
100
AcDbSpline
70
0
71
2
72
6
73
3
74
0
42
0.000000001
43
0.0000000001
44
0.0000000001
40
0
40
0
40
0
40
1
40
1
40
1
10
-253.08635324239731
20
215.66631317138672
30
0
10
-254.23773974180222
20
215.66631317138672
30
0
10
-254.68550056219101
20
214.37633275985718
30
0
0
LINE
5
283
100
AcDbEntity
8
0
100
AcDbLine
10
-254.68550056219101
20
214.37633275985718
30
0
11
-255.6236669421196
21
211.62580013275146
31
0
0
LINE
5
284
100
AcDbEntity
8
0
100
AcDbLine
10
-255.6236669421196
20
211.62580013275146
30
0
11
-254.37633246183395
21
211.62580013275146
31
0
0
SPLINE
5
285
100
AcDbEntity
8
0
100
AcDbSpline
70
0
71
2
72
6
73
3
74
0
42
0.000000001
43
0.0000000001
44
0.0000000001
40
0
40
0
40
0
40
1
40
1
40
1
10
-254.37633246183395
20
211.62580013275146
30
0
10
-253.22494596242905
20
211.62580013275146
30
0
10
-252.70255774259567
20
212.23347663879395
30
0
0
SPLINE
5
286
100
AcDbEntity
8
0
100
AcDbSpline
70
0
71
2
72
6
73
3
74
0
42
0.000000001
43
0.0000000001
44
0.0000000001
40
0
40
0
40
0
40
1
40
1
40
1
10
-252.70255774259567
20
212.23347663879395
30
0
10
-252.40405052900314
20
212.58528709411621
30
0
10
-251.95628851652145
20
213.83262157440186
30
0
0
SPLINE
5
287
100
AcDbEntity
8
0
100
AcDbSpline
70
0
71
2
72
6
73
3
74
0
42
0.000000001
43
0.0000000001
44
0.0000000001
40
0
40
0
40
0
40
1
40
1
40
1
10
-251.95628851652145
20
213.83262157440186
30
0
10
-251.83901757001877
20
214.13113117218018
30
0
10
-251.83901757001877
20
214.41897630691528
30
0
0
LINE
5
288
100
AcDbEntity
8
0
100
AcDbLine
10
-252.81982868909836
20
209.74946737289429
30
0
11
-254.81343239545822
21
209.74946737289429
31
0
0
SPLINE
5
289
100
AcDbEntity
8
0
100
AcDbSpline
70
0
71
2
72
6
73
3
74
0
42
0.000000001
43
0.0000000001
44
0.0000000001
40
0
40
0
40
0
40
1
40
1
40
1
10
-254.81343239545822
20
209.74946737289429
30
0
10
-255.71961611509323
20
209.74946737289429
30
0
10
-256.29530876874924
20
209.14179086685181
30
0
0
SPLINE
5
290
100
AcDbEntity
8
0
100
AcDbSpline
70
0
71
2
72
6
73
3
74
0
42
0.000000001
43
0.0000000001
44
0.0000000001
40
0
40
0
40
0
40
1
40
1
40
1
10
-256.29530876874924
20
209.14179086685181
30
0
10
-256.72174781560898
20
208.67270946502686
30
0
10
-257.06289976835251
20
207.71322011947632
30
0
0
SPLINE
5
291
100
AcDbEntity
8
0
100
AcDbSpline
70
0
71
2
72
6
73
3
74
0
42
0.000000001
43
0.0000000001
44
0.0000000001
40
0
40
0
40
0
40
1
40
1
40
1
10
-257.06289976835251
20
207.71322011947632
30
0
10
-257.31876224279404
20
206.91364526748657
30
0
10
-257.58528679609299
20
206.1034107208252
30
0
0
SPLINE
5
292
100
AcDbEntity
8
0
100
AcDbSpline
70
0
71
2
72
6
73
3
74
0
42
0.000000001
43
0.0000000001
44
0.0000000001
40
0
40
0
40
0
40
1
40
1
40
1
10
-257.58528679609299
20
206.1034107208252
30
0
10
-257.7132186293602
20
205.74093818664551
30
0
10
-257.7132186293602
20
205.42110919952393
30
0
0
SPLINE
5
293
100
AcDbEntity
8
0
100
AcDbSpline
70
0
71
2
72
6
73
3
74
0
42
0.000000001
43
0.0000000001
44
0.0000000001
40
0
40
0
40
0
40
1
40
1
40
1
10
-257.7132186293602
20
205.42110919952393
30
0
10
-257.7132186293602
20
204.8347544670105
30
0
10
-257.21215218305588
20
204.46162223815918
30
0
0
SPLINE
5
294
100
AcDbEntity
8
0
100
AcDbSpline
70
0
71
2
72
6
73
3
74
0
42
0.000000001
43
0.0000000001
44
0.0000000001
40
0
40
0
40
0
40
1
40
1
40
1
10
-257.21215218305588
20
204.46162223815918
30
0
10
-256.75373047590256
20
204.12046909332275
30
0
10
-256.12473338842392
20
204.12046909332275
30
0
0
SPLINE
5
295
100
AcDbEntity
8
0
100
AcDbSpline
70
0
71
2
72
6
73
3
74
0
42
0.000000001
43
0.0000000001
44
0.0000000001
40
0
40
0
40
0
40
1
40
1
40
1
10
-256.12473338842392
20
204.12046909332275
30
0
10
-254.71748322248459
20
204.12046909332275
30
0
10
-254.22707766294479
20
205.58102369308472
30
0
0
LINE
5
296
100
AcDbEntity
8
0
100
AcDbLine
10
-254.22707766294479
20
205.58102369308472
30
0
11
-252.81982868909836
21
209.74946737289429
31
0
0
LINE
5
297
100
AcDbEntity
8
0
100
AcDbLine
10
-248.77398706972599
20
157.5
30
0
11
-252.12153412401676
21
149.74946737289429
31
0
0
LINE
5
298
100
AcDbEntity
8
0
100
AcDbLine
10
-252.12153412401676
20
149.74946737289429
30
0
11
-250.08528687059879
21
149.74946737289429
31
0
0
LINE
5
299
100
AcDbEntity
8
0
100
AcDbLine
10
-250.08528687059879
20
149.74946737289429
30
0
11
-250.89552141726017
21
148.04370880126953
31
0
0
LINE
5
300
100
AcDbEntity
8
0
100
AcDbLine
10
-250.89552141726017
20
148.04370880126953
30
0
11
-252.85714246332645
21
148.04370880126953
31
0
0
LINE
5
301
100
AcDbEntity
8
0
100
AcDbLine
10
-252.85714246332645
20
148.04370880126953
30
0
11
-255.23454166948795
21
142.5
31
0
0
LINE
5
302
100
AcDbEntity
8
0
100
AcDbLine
10
-255.23454166948795
20
142.5
30
0
11
-259.08315517008305
21
142.5
31
0
0
LINE
5
303
100
AcDbEntity
8
0
100
AcDbLine
10
-259.08315517008305
20
142.5
30
0
11
-256.66311241686344
21
148.04370880126953
31
0
0
LINE
5
304
100
AcDbEntity
8
0
100
AcDbLine
10
-256.66311241686344
20
148.04370880126953
30
0
11
-258.95522333681583
21
148.04370880126953
31
0
0
LINE
5
305
100
AcDbEntity
8
0
100
AcDbLine
10
-258.95522333681583
20
148.04370880126953
30
0
11
-258.14498879015446
21
149.74946737289429
31
0
0
LINE
5
306
100
AcDbEntity
8
0
100
AcDbLine
10
-258.14498879015446
20
149.74946737289429
30
0
11
-256.00213147699833
21
149.74946737289429
31
0
0
LINE
5
307
100
AcDbEntity
8
0
100
AcDbLine
10
-256.00213147699833
20
149.74946737289429
30
0
11
-253.88059593737125
21
154.46162223815918
31
0
0
LINE
5
308
100
AcDbEntity
8
0
100
AcDbLine
10
-253.88059593737125
20
154.46162223815918
30
0
11
-258.56076695024967
21
154.46162223815918
31
0
0
LINE
5
309
100
AcDbEntity
8
0
100
AcDbLine
10
-258.56076695024967
20
154.46162223815918
30
0
11
-259.10447813570499
21
153.35288047790527
31
0
0
LINE
5
310
100
AcDbEntity
8
0
100
AcDbLine
10
-259.10447813570499
20
153.35288047790527
30
0
11
-261.22601248323917
21
153.35288047790527
31
0
0
LINE
5
311
100
AcDbEntity
8
0
100
AcDbLine
10
-261.22601248323917
20
153.35288047790527
30
0
11
-259.54157806932926
21
157.5
31
0
0
LINE
5
312
100
AcDbEntity
8
0
100
AcDbLine
10
-259.54157806932926
20
157.5
30
0
11
-248.77398706972599
21
157.5
31
0
0
SPLINE
5
313
100
AcDbEntity
8
0
100
AcDbSpline
70
0
71
2
72
6
73
3
74
0
42
0.000000001
43
0.0000000001
44
0.0000000001
40
0
40
0
40
0
40
1
40
1
40
1
10
-248.10234501957893
20
88.246269226074219
30
0
10
-248.10234501957893
20
85.421109199523926
30
0
10
-250.28784707188606
20
83.736672401428223
30
0
0
SPLINE
5
314
100
AcDbEntity
8
0
100
AcDbSpline
70
0
71
2
72
6
73
3
74
0
42
0.000000001
43
0.0000000001
44
0.0000000001
40
0
40
0
40
0
40
1
40
1
40
1
10
-250.28784707188606
20
83.736672401428223
30
0
10
-252.29211047291756
20
82.19083309173584
30
0
10
-255.20255878567696
20
82.19083309173584
30
0
0
SPLINE
5
315
100
AcDbEntity
8
0
100
AcDbSpline
70
0
71
2
72
6
73
3
74
0
42
0.000000001
43
0.0000000001
44
0.0000000001
40
0
40
0
40
0
40
1
40
1
40
1
10
-255.20255878567696
20
82.19083309173584
30
0
10
-257.91044786572456
20
82.19083309173584
30
0
10
-259.79744151234627
20
83.576760292053223
30
0
0
SPLINE
5
316
100
AcDbEntity
8
0
100
AcDbSpline
70
0
71
2
72
6
73
3
74
0
42
0.000000001
43
0.0000000001
44
0.0000000001
40
0
40
0
40
0
40
1
40
1
40
1
10
-259.79744151234627
20
83.576760292053223
30
0
10
-261.89765468239784
20
85.111939907073975
30
0
10
-261.89765468239784
20
87.713220119476318
30
0
0
SPLINE
5
317
100
AcDbEntity
8
0
100
AcDbSpline
70
0
71
2
72
6
73
3
74
0
42
0.000000001
43
0.0000000001
44
0.0000000001
40
0
40
0
40
0
40
1
40
1
40
1
10
-261.89765468239784
20
87.713220119476318
30
0
10
-261.89765468239784
20
90.858209133148193
30
0
10
-259.16844323277473
20
93.662047386169434
30
0
0
SPLINE
5
318
100
AcDbEntity
8
0
100
AcDbSpline
70
0
71
2
72
6
73
3
74
0
42
0.000000001
43
0.0000000001
44
0.0000000001
40
0
40
0
40
0
40
1
40
1
40
1
10
-259.16844323277473
20
93.662047386169434
30
0
10
-257.04690888524055
20
95.815565586090088
30
0
10
-253.62473323941231
20
97.5
30
0
0
LINE
5
319
100
AcDbEntity
8
0
100
AcDbLine
10
-253.62473323941231
20
97.5
30
0
11
-250.5437083542347
21
97.5
31
0
0
SPLINE
5
320
100
AcDbEntity
8
0
100
AcDbSpline
70
0
71
2
72
6
73
3
74
0
42
0.000000001
43
0.0000000001
44
0.0000000001
40
0
40
0
40
0
40
1
40
1
40
1
10
-250.5437083542347
20
97.5
30
0
10
-253.67803767323494
20
95.101280212402344
30
0
10
-255.18123582005501
20
93.246269226074219
30
0
0
SPLINE
5
321
100
AcDbEntity
8
0
100
AcDbSpline
70
0
71
2
72
6
73
3
74
0
42
0.000000001
43
0.0000000001
44
0.0000000001
40
0
40
0
40
0
40
1
40
1
40
1
10
-255.18123582005501
20
93.246269226074219
30
0
10
-257.4733467400074
20
90.421109199523926
30
0
10
-257.4733467400074
20
87.542643547058105
30
0
0
SPLINE
5
322
100
AcDbEntity
8
0
100
AcDbSpline
70
0
71
2
72
6
73
3
74
0
42
0.000000001
43
0.0000000001
44
0.0000000001
40
0
40
0
40
0
40
1
40
1
40
1
10
-257.4733467400074
20
87.542643547058105
30
0
10
-257.4733467400074
20
86.167378425598145
30
0
10
-256.80170491337776
20
85.282516479492188
30
0
0
SPLINE
5
323
100
AcDbEntity
8
0
100
AcDbSpline
70
0
71
2
72
6
73
3
74
0
42
0.000000001
43
0.0000000001
44
0.0000000001
40
0
40
0
40
0
40
1
40
1
40
1
10
-256.80170491337776
20
85.282516479492188
30
0
10
-256.05543687939644
20
84.291043281555176
30
0
10
-254.72281411290169
20
84.291043281555176
30
0
0
SPLINE
5
324
100
AcDbEntity
8
0
100
AcDbSpline
70
0
71
2
72
6
73
3
74
0
42
0.000000001
43
0.0000000001
44
0.0000000001
40
0
40
0
40
0
40
1
40
1
40
1
10
-254.72281411290169
20
84.291043281555176
30
0
10
-252.59061768651009
20
84.291043281555176
30
0
10
-251.97228148579597
20
86.391258239746094
30
0
0
SPLINE
5
325
100
AcDbEntity
8
0
100
AcDbSpline
70
0
71
2
72
6
73
3
74
0
42
0.000000001
43
0.0000000001
44
0.0000000001
40
0
40
0
40
0
40
1
40
1
40
1
10
-251.97228148579597
20
86.391258239746094
30
0
10
-251.89765408635139
20
86.625800132751465
30
0
10
-251.79104402661324
20
86.871001720428467
30
0
0
SPLINE
5
326
100
AcDbEntity
8
0
100
AcDbSpline
70
0
71
2
72
6
73
3
74
0
42
0.000000001
43
0.0000000001
44
0.0000000001
40
0
40
0
40
0
40
1
40
1
40
1
10
-251.79104402661324
20
86.871001720428467
30
0
10
-252.91044786572456
20
86.881663799285889
30
0
10
-253.73134329915047
20
87.585287094116211
30
0
0
SPLINE
5
327
100
AcDbEntity
8
0
100
AcDbSpline
70
0
71
2
72
6
73
3
74
0
42
0.000000001
43
0.0000000001
44
0.0000000001
40
0
40
0
40
0
40
1
40
1
40
1
10
-253.73134329915047
20
87.585287094116211
30
0
10
-254.605543166399
20
88.33155632019043
30
0
10
-254.605543166399
20
89.418976306915283
30
0
0
SPLINE
5
328
100
AcDbEntity
8
0
100
AcDbSpline
70
0
71
2
72
6
73
3
74
0
42
0.000000001
43
0.0000000001
44
0.0000000001
40
0
40
0
40
0
40
1
40
1
40
1
10
-254.605543166399
20
89.418976306915283
30
0
10
-254.605543166399
20
90.527718067169189
30
0
10
-253.73134329915047
20
91.273987293243408
30
0
0
SPLINE
5
329
100
AcDbEntity
8
0
100
AcDbSpline
70
0
71
2
72
6
73
3
74
0
42
0.000000001
43
0.0000000001
44
0.0000000001
40
0
40
0
40
0
40
1
40
1
40
1
10
-253.73134329915047
20
91.273987293243408
30
0
10
-252.89978578686714
20
91.97761058807373
30
0
10
-251.76972225308418
20
91.97761058807373
30
0
0
SPLINE
5
330
100
AcDbEntity
8
0
100
AcDbSpline
70
0
71
2
72
6
73
3
74
0
42
0.000000001
43
0.0000000001
44
0.0000000001
40
0
40
0
40
0
40
1
40
1
40
1
10
-251.76972225308418
20
91.97761058807373
30
0
10
-250.12793019413948
20
91.97761058807373
30
0
10
-249.11513760685921
20
90.938167572021484
30
0
0
SPLINE
5
331
100
AcDbEntity
8
0
100
AcDbSpline
70
0
71
2
72
6
73
3
74
0
42
0.000000001
43
0.0000000001
44
0.0000000001
40
0
40
0
40
0
40
1
40
1
40
1
10
-249.11513760685921
20
90.938167572021484
30
0
10
-248.10234501957893
20
89.898719787597656
30
0
10
-248.10234501957893
20
88.246269226074219
30
0
0
LINE
5
332
100
AcDbEntity
8
0
100
AcDbLine
10
-247.97974497079849
20
37.5
30
0
11
-249.26972299814224
21
34.461619853973389
31
0
0
LINE
5
333
100
AcDbEntity
8
0
100
AcDbLine
10
-249.26972299814224
20
34.461619853973389
30
0
11
-254.74946767091751
21
34.461619853973389
31
0
0
LINE
5
334
100
AcDbEntity
8
0
100
AcDbLine
10
-254.74946767091751
20
34.461619853973389
30
0
11
-255.6876340508461
21
31.89232349395752
31
0
0
LINE
5
335
100
AcDbEntity
8
0
100
AcDbLine
10
-255.6876340508461
20
31.89232349395752
30
0
11
-254.18443590402603
21
31.89232349395752
31
0
0
SPLINE
5
336
100
AcDbEntity
8
0
100
AcDbSpline
70
0
71
2
72
6
73
3
74
0
42
0.000000001
43
0.0000000001
44
0.0000000001
40
0
40
0
40
0
40
1
40
1
40
1
10
-254.18443590402603
20
31.89232349395752
30
0
10
-251.70042663812637
20
31.89232349395752
30
0
10
-250.42110830545425
20
30.836887359619141
30
0
0
SPLINE
5
337
100
AcDbEntity
8
0
100
AcDbSpline
70
0
71
2
72
6
73
3
74
0
42
0.000000001
43
0.0000000001
44
0.0000000001
40
0
40
0
40
0
40
1
40
1
40
1
10
-250.42110830545425
20
30.836887359619141
30
0
10
-249.04584318399429
20
29.69616174697876
30
0
10
-249.02452141046524
20
28.043711185455322
30
0
0
SPLINE
5
338
100
AcDbEntity
8
0
100
AcDbSpline
70
0
71
2
72
6
73
3
74
0
42
0.000000001
43
0.0000000001
44
0.0000000001
40
0
40
0
40
0
40
1
40
1
40
1
10
-249.02452141046524
20
28.043711185455322
30
0
10
-249.01385933160782
20
26.263325214385986
30
0
10
-250.53838163614273
20
24.706821441650391
30
0
0
SPLINE
5
339
100
AcDbEntity
8
0
100
AcDbSpline
70
0
71
2
72
6
73
3
74
0
42
0.000000001
43
0.0000000001
44
0.0000000001
40
0
40
0
40
0
40
1
40
1
40
1
10
-250.53838163614273
20
24.706821441650391
30
0
10
-253.03304940462112
20
22.137527465820312
30
0
10
-257.51066118478775
20
22.137527465820312
30
0
0
SPLINE
5
340
100
AcDbEntity
8
0
100
AcDbSpline
70
0
71
2
72
6
73
3
74
0
42
0.000000001
43
0.0000000001
44
0.0000000001
40
0
40
0
40
0
40
1
40
1
40
1
10
-257.51066118478775
20
22.137527465820312
30
0
10
-258.47015053033829
20
22.137527465820312
30
0
10
-259.44029957056046
20
22.286782264709473
30
0
0
SPLINE
5
341
100
AcDbEntity
8
0
100
AcDbSpline
70
0
71
2
72
6
73
3
74
0
42
0.000000001
43
0.0000000001
44
0.0000000001
40
0
40
0
40
0
40
1
40
1
40
1
10
-259.44029957056046
20
22.286782264709473
30
0
10
-260.54904133081436
20
22.436032295227051
30
0
10
-261.28464847803116
20
23.160982131958008
30
0
0
SPLINE
5
342
100
AcDbEntity
8
0
100
AcDbSpline
70
0
71
2
72
6
73
3
74
0
42
0.000000001
43
0.0000000001
44
0.0000000001
40
0
40
0
40
0
40
1
40
1
40
1
10
-261.28464847803116
20
23.160982131958008
30
0
10
-262.02025681734085
20
23.885927200317383
30
0
10
-262.02025681734085
20
24.877398014068604
30
0
0
SPLINE
5
343
100
AcDbEntity
8
0
100
AcDbSpline
70
0
71
2
72
6
73
3
74
0
42
0.000000001
43
0.0000000001
44
0.0000000001
40
0
40
0
40
0
40
1
40
1
40
1
10
-262.02025681734085
20
24.877398014068604
30
0
10
-262.02025681734085
20
25.932836532592773
30
0
10
-261.19403034448624
20
26.684434413909912
30
0
0
SPLINE
5
344
100
AcDbEntity
8
0
100
AcDbSpline
70
0
71
2
72
6
73
3
74
0
42
0.000000001
43
0.0000000001
44
0.0000000001
40
0
40
0
40
0
40
1
40
1
40
1
10
-261.19403034448624
20
26.684434413909912
30
0
10
-260.36780506372452
20
27.436034679412842
30
0
10
-259.20575767755508
20
27.436034679412842
30
0
0
SPLINE
5
345
100
AcDbEntity
8
0
100
AcDbSpline
70
0
71
2
72
6
73
3
74
0
42
0.000000001
43
0.0000000001
44
0.0000000001
40
0
40
0
40
0
40
1
40
1
40
1
10
-259.20575767755508
20
27.436034679412842
30
0
10
-258.0223885178566
20
27.436034679412842
30
0
10
-257.19083219766617
20
26.684434413909912
30
0
0
SPLINE
5
346
100
AcDbEntity
8
0
100
AcDbSpline
70
0
71
2
72
6
73
3
74
0
42
0.000000001
43
0.0000000001
44
0.0000000001
40
0
40
0
40
0
40
1
40
1
40
1
10
-257.19083219766617
20
26.684434413909912
30
0
10
-256.35927587747574
20
25.932836532592773
30
0
10
-256.35927587747574
20
24.877398014068604
30
0
0
SPLINE
5
347
100
AcDbEntity
8
0
100
AcDbSpline
70
0
71
2
72
6
73
3
74
0
42
0.000000001
43
0.0000000001
44
0.0000000001
40
0
40
0
40
0
40
1
40
1
40
1
10
-256.35927587747574
20
24.877398014068604
30
0
10
-256.35927587747574
20
24.418978691101074
30
0
10
-256.54051214456558
20
23.960552215576172
30
0
0
SPLINE
5
348
100
AcDbEntity
8
0
100
AcDbSpline
70
0
71
2
72
6
73
3
74
0
42
0.000000001
43
0.0000000001
44
0.0000000001
40
0
40
0
40
0
40
1
40
1
40
1
10
-256.54051214456558
20
23.960552215576172
30
0
10
-255.27185589075089
20
24.120469093322754
30
0
10
-254.3763330578804
20
25.197229385375977
30
0
0
SPLINE
5
349
100
AcDbEntity
8
0
100
AcDbSpline
70
0
71
2
72
6
73
3
74
0
42
0.000000001
43
0.0000000001
44
0.0000000001
40
0
40
0
40
0
40
1
40
1
40
1
10
-254.3763330578804
20
25.197229385375977
30
0
10
-253.52345496416092
20
26.231343746185303
30
0
10
-253.52345496416092
20
27.436034679412842
30
0
0
SPLINE
5
350
100
AcDbEntity
8
0
100
AcDbSpline
70
0
71
2
72
6
73
3
74
0
42
0.000000001
43
0.0000000001
44
0.0000000001
40
0
40
0
40
0
40
1
40
1
40
1
10
-253.52345496416092
20
27.436034679412842
30
0
10
-253.52345496416092
20
28.544776439666748
30
0
10
-254.41897660493851
20
29.237740039825439
30
0
0
SPLINE
5
351
100
AcDbEntity
8
0
100
AcDbSpline
70
0
71
2
72
6
73
3
74
0
42
0.000000001
43
0.0000000001
44
0.0000000001
40
0
40
0
40
0
40
1
40
1
40
1
10
-254.41897660493851
20
29.237740039825439
30
0
10
-255.43177038431168
20
30.037312507629395
30
0
10
-257.35074669122696
20
30.037312507629395
30
0
0
LINE
5
352
100
AcDbEntity
8
0
100
AcDbLine
10
-257.35074669122696
20
30.037312507629395
30
0
11
-260.18656760454178
21
30.037312507629395
31
0
0
LINE
5
353
100
AcDbEntity
8
0
100
AcDbLine
10
-260.18656760454178
20
30.037312507629395
30
0
11
-257.56396681070328
21
37.5
31
0
0
LINE
5
354
100
AcDbEntity
8
0
100
AcDbLine
10
-257.56396681070328
20
37.5
30
0
11
-247.97974497079849
21
37.5
31
0
0
LINE
5
355
100
AcDbEntity
8
0
100
AcDbLine
10
-247.54264317452908
20
-30.250532627105713
30
0
11
-248.65138731896877
21
-33.288912773132324
31
0
0
LINE
5
356
100
AcDbEntity
8
0
100
AcDbLine
10
-248.65138731896877
20
-33.288912773132324
30
0
11
-251.40191875398159
21
-33.288912773132324
31
0
0
LINE
5
357
100
AcDbEntity
8
0
100
AcDbLine
10
-251.40191875398159
20
-33.288912773132324
30
0
11
-252.93710075318813
21
-37.5
31
0
0
LINE
5
358
100
AcDbEntity
8
0
100
AcDbLine
10
-252.93710075318813
20
-37.5
30
0
11
-256.7750545591116
21
-37.5
31
0
0
LINE
5
359
100
AcDbEntity
8
0
100
AcDbLine
10
-256.7750545591116
20
-37.5
30
0
11
-255.27185522019863
21
-33.288912773132324
31
0
0
LINE
5
360
100
AcDbEntity
8
0
100
AcDbLine
10
-255.27185522019863
20
-33.288912773132324
30
0
11
-260.83688698709011
21
-33.288912773132324
31
0
0
SPLINE
5
361
100
AcDbEntity
8
0
100
AcDbSpline
70
0
71
2
72
6
73
3
74
0
42
0.000000001
43
0.0000000001
44
0.0000000001
40
0
40
0
40
0
40
1
40
1
40
1
10
-260.83688698709011
20
-33.288912773132324
30
0
10
-262.45735667645931
20
-33.288912773132324
30
0
10
-262.45735667645931
20
-32.062900066375732
30
0
0
SPLINE
5
362
100
AcDbEntity
8
0
100
AcDbSpline
70
0
71
2
72
6
73
3
74
0
42
0.000000001
43
0.0000000001
44
0.0000000001
40
0
40
0
40
0
40
1
40
1
40
1
10
-262.45735667645931
20
-32.062900066375732
30
0
10
-262.45735667645931
20
-31.508529186248779
30
0
10
-262.0202561467886
20
-31.039445400238037
30
0
0
LINE
5
363
100
AcDbEntity
8
0
100
AcDbLine
10
-262.0202561467886
20
-31.039445400238037
30
0
11
-258.52345429360867
21
-27.254796028137207
31
0
0
SPLINE
5
364
100
AcDbEntity
8
0
100
AcDbSpline
70
0
71
2
72
6
73
3
74
0
42
0.000000001
43
0.0000000001
44
0.0000000001
40
0
40
0
40
0
40
1
40
1
40
1
10
-258.52345429360867
20
-27.254796028137207
30
0
10
-259.36567150056362
20
-26.998934745788574
30
0
10
-259.89339075982571
20
-26.332621574401855
30
0
0
SPLINE
5
365
100
AcDbEntity
8
0
100
AcDbSpline
70
0
71
2
72
6
73
3
74
0
42
0.000000001
43
0.0000000001
44
0.0000000001
40
0
40
0
40
0
40
1
40
1
40
1
10
-259.89339075982571
20
-26.332621574401855
30
0
10
-260.4211088269949
20
-25.666310787200928
30
0
10
-260.4211088269949
20
-24.834754467010498
30
0
0
SPLINE
5
366
100
AcDbEntity
8
0
100
AcDbSpline
70
0
71
2
72
6
73
3
74
0
42
0.000000001
43
0.0000000001
44
0.0000000001
40
0
40
0
40
0
40
1
40
1
40
1
10
-260.4211088269949
20
-24.834754467010498
30
0
10
-260.4211088269949
20
-23.726012706756592
30
0
10
-259.54690895974636
20
-22.979743480682373
30
0
0
SPLINE
5
367
100
AcDbEntity
8
0
100
AcDbSpline
70
0
71
2
72
6
73
3
74
0
42
0.000000001
43
0.0000000001
44
0.0000000001
40
0
40
0
40
0
40
1
40
1
40
1
10
-259.54690895974636
20
-22.979743480682373
30
0
10
-258.70469056069851
20
-22.276120185852051
30
0
10
-257.58528791368008
20
-22.286779880523682
30
0
0
SPLINE
5
368
100
AcDbEntity
8
0
100
AcDbSpline
70
0
71
2
72
6
73
3
74
0
42
0.000000001
43
0.0000000001
44
0.0000000001
40
0
40
0
40
0
40
1
40
1
40
1
10
-257.58528791368008
20
-22.286779880523682
30
0
10
-256.39125786721706
20
-22.286779880523682
30
0
10
-255.55970154702663
20
-23.081023693084717
30
0
0
SPLINE
5
369
100
AcDbEntity
8
0
100
AcDbSpline
70
0
71
2
72
6
73
3
74
0
42
0.000000001
43
0.0000000001
44
0.0000000001
40
0
40
0
40
0
40
1
40
1
40
1
10
-255.55970154702663
20
-23.081023693084717
30
0
10
-254.7281452268362
20
-23.875265121459961
30
0
10
-254.7281452268362
20
-25.058636665344238
30
0
0
SPLINE
5
370
100
AcDbEntity
8
0
100
AcDbSpline
70
0
71
2
72
6
73
3
74
0
42
0.000000001
43
0.0000000001
44
0.0000000001
40
0
40
0
40
0
40
1
40
1
40
1
10
-254.7281452268362
20
-25.058636665344238
30
0
10
-254.7281452268362
20
-26.039445400238037
30
0
10
-255.62366805970669
20
-26.998934745788574
30
0
0
LINE
5
371
100
AcDbEntity
8
0
100
AcDbLine
10
-255.62366805970669
20
-26.998934745788574
30
0
11
-258.65138612687588
21
-30.250532627105713
31
0
0
LINE
5
372
100
AcDbEntity
8
0
100
AcDbLine
10
-258.65138612687588
20
-30.250532627105713
30
0
11
-254.33368884027004
21
-30.250532627105713
31
0
0
LINE
5
373
100
AcDbEntity
8
0
100
AcDbLine
10
-254.33368884027004
20
-30.250532627105713
30
0
11
-251.49786792695522
21
-22.5
31
0
0
LINE
5
374
100
AcDbEntity
8
0
100
AcDbLine
10
-251.49786792695522
20
-22.5
30
0
11
-247.62793265283108
21
-22.5
31
0
0
LINE
5
375
100
AcDbEntity
8
0
100
AcDbLine
10
-247.62793265283108
20
-22.5
30
0
11
-250.33581934869289
21
-30.250532627105713
31
0
0
LINE
5
376
100
AcDbEntity
8
0
100
AcDbLine
10
-250.33581934869289
20
-30.250532627105713
30
0
11
-247.54264317452908
21
-30.250532627105713
31
0
0
LINE
5
377
100
AcDbEntity
8
0
100
AcDbLine
10
-248.11300665140152
20
-82.5
30
0
11
-251.80170446634293
21
-87.873134613037109
31
0
0
SPLINE
5
378
100
AcDbEntity
8
0
100
AcDbSpline
70
0
71
2
72
6
73
3
74
0
42
0.000000001
43
0.0000000001
44
0.0000000001
40
0
40
0
40
0
40
1
40
1
40
1
10
-251.80170446634293
20
-87.873134613037109
30
0
10
-250.69296270608902
20
-88.459486961364746
30
0
10
-249.91471201181412
20
-89.568228721618652
30
0
0
SPLINE
5
379
100
AcDbEntity
8
0
100
AcDbSpline
70
0
71
2
72
6
73
3
74
0
42
0.000000001
43
0.0000000001
44
0.0000000001
40
0
40
0
40
0
40
1
40
1
40
1
10
-249.91471201181412
20
-89.568228721618652
30
0
10
-249.07249361276627
20
-90.75160026550293
30
0
10
-249.07249361276627
20
-91.934967041015625
30
0
0
SPLINE
5
380
100
AcDbEntity
8
0
100
AcDbSpline
70
0
71
2
72
6
73
3
74
0
42
0.000000001
43
0.0000000001
44
0.0000000001
40
0
40
0
40
0
40
1
40
1
40
1
10
-249.07249361276627
20
-91.934967041015625
30
0
10
-249.07249361276627
20
-94.450960159301758
30
0
10
-250.95948845148087
20
-95.975480079650879
30
0
0
SPLINE
5
381
100
AcDbEntity
8
0
100
AcDbSpline
70
0
71
2
72
6
73
3
74
0
42
0.000000001
43
0.0000000001
44
0.0000000001
40
0
40
0
40
0
40
1
40
1
40
1
10
-250.95948845148087
20
-95.975480079650879
30
0
10
-252.53731161355972
20
-97.244138717651367
30
0
10
-255.19189745187759
20
-97.659916877746582
30
0
0
SPLINE
5
382
100
AcDbEntity
8
0
100
AcDbSpline
70
0
71
2
72
6
73
3
74
0
42
0.000000001
43
0.0000000001
44
0.0000000001
40
0
40
0
40
0
40
1
40
1
40
1
10
-255.19189745187759
20
-97.659916877746582
30
0
10
-256.87633186578751
20
-97.926440238952637
30
0
10
-259.05117183923721
20
-97.830491065979004
30
0
0
SPLINE
5
383
100
AcDbEntity
8
0
100
AcDbSpline
70
0
71
2
72
6
73
3
74
0
42
0.000000001
43
0.0000000001
44
0.0000000001
40
0
40
0
40
0
40
1
40
1
40
1
10
-259.05117183923721
20
-97.830491065979004
30
0
10
-260.18123537302017
20
-97.777185440063477
30
0
10
-261.0127928853035
20
-97.062897682189941
30
0
0
SPLINE
5
384
100
AcDbEntity
8
0
100
AcDbSpline
70
0
71
2
72
6
73
3
74
0
42
0.000000001
43
0.0000000001
44
0.0000000001
40
0
40
0
40
0
40
1
40
1
40
1
10
-261.0127928853035
20
-97.062897682189941
30
0
10
-261.88699275255203
20
-96.305971145629883
30
0
10
-261.88699275255203
20
-95.207886695861816
30
0
0
SPLINE
5
385
100
AcDbEntity
8
0
100
AcDbSpline
70
0
71
2
72
6
73
3
74
0
42
0.000000001
43
0.0000000001
44
0.0000000001
40
0
40
0
40
0
40
1
40
1
40
1
10
-261.88699275255203
20
-95.207886695861816
30
0
10
-261.88699275255203
20
-94.099147319793701
30
0
10
-261.0127928853035
20
-93.352878093719482
30
0
0
SPLINE
5
386
100
AcDbEntity
8
0
100
AcDbSpline
70
0
71
2
72
6
73
3
74
0
42
0.000000001
43
0.0000000001
44
0.0000000001
40
0
40
0
40
0
40
1
40
1
40
1
10
-261.0127928853035
20
-93.352878093719482
30
0
10
-260.18123537302017
20
-92.64925479888916
30
0
10
-259.07249361276627
20
-92.64925479888916
30
0
0
SPLINE
5
387
100
AcDbEntity
8
0
100
AcDbSpline
70
0
71
2
72
6
73
3
74
0
42
0.000000001
43
0.0000000001
44
0.0000000001
40
0
40
0
40
0
40
1
40
1
40
1
10
-259.07249361276627
20
-92.64925479888916
30
0
10
-257.94243007898331
20
-92.64925479888916
30
0
10
-257.11087375879288
20
-93.352878093719482
30
0
0
SPLINE
5
388
100
AcDbEntity
8
0
100
AcDbSpline
70
0
71
2
72
6
73
3
74
0
42
0.000000001
43
0.0000000001
44
0.0000000001
40
0
40
0
40
0
40
1
40
1
40
1
10
-257.11087375879288
20
-93.352878093719482
30
0
10
-256.23667389154434
20
-94.099147319793701
30
0
10
-256.23667389154434
20
-95.207886695861816
30
0
0
SPLINE
5
389
100
AcDbEntity
8
0
100
AcDbSpline
70
0
71
2
72
6
73
3
74
0
42
0.000000001
43
0.0000000001
44
0.0000000001
40
0
40
0
40
0
40
1
40
1
40
1
10
-256.23667389154434
20
-95.207886695861816
30
0
10
-256.23667389154434
20
-95.719614028930664
30
0
10
-256.42856985330582
20
-96.146054267883301
30
0
0
SPLINE
5
390
100
AcDbEntity
8
0
100
AcDbSpline
70
0
71
2
72
6
73
3
74
0
42
0.000000001
43
0.0000000001
44
0.0000000001
40
0
40
0
40
0
40
1
40
1
40
1
10
-256.42856985330582
20
-96.146054267883301
30
0
10
-255.2345409989357
20
-96.082091331481934
30
0
10
-254.46694999933243
20
-95.122601985931396
30
0
0
SPLINE
5
391
100
AcDbEntity
8
0
100
AcDbSpline
70
0
71
2
72
6
73
3
74
0
42
0.000000001
43
0.0000000001
44
0.0000000001
40
0
40
0
40
0
40
1
40
1
40
1
10
-254.46694999933243
20
-95.122601985931396
30
0
10
-253.72068077325821
20
-94.195096492767334
30
0
10
-253.72068077325821
20
-92.894456386566162
30
0
0
SPLINE
5
392
100
AcDbEntity
8
0
100
AcDbSpline
70
0
71
2
72
6
73
3
74
0
42
0.000000001
43
0.0000000001
44
0.0000000001
40
0
40
0
40
0
40
1
40
1
40
1
10
-253.72068077325821
20
-92.894456386566162
30
0
10
-253.72068077325821
20
-91.380596160888672
30
0
10
-255.06396442651749
20
-90.314497947692871
30
0
0
SPLINE
5
393
100
AcDbEntity
8
0
100
AcDbSpline
70
0
71
2
72
6
73
3
74
0
42
0.000000001
43
0.0000000001
44
0.0000000001
40
0
40
0
40
0
40
1
40
1
40
1
10
-255.06396442651749
20
-90.314497947692871
30
0
10
-256.19403034448624
20
-89.429636001586914
30
0
10
-257.49466806650162
20
-89.31236743927002
30
0
0
LINE
5
394
100
AcDbEntity
8
0
100
AcDbLine
10
-257.49466806650162
20
-89.31236743927002
30
0
11
-254.40298467874527
21
-85.53837776184082
31
0
0
LINE
5
395
100
AcDbEntity
8
0
100
AcDbLine
10
-254.40298467874527
20
-85.53837776184082
30
0
11
-260.22388011217117
21
-85.53837776184082
31
0
0
LINE
5
396
100
AcDbEntity
8
0
100
AcDbLine
10
-260.22388011217117
20
-85.53837776184082
30
0
11
-259.05117183923721
21
-82.5
31
0
0
LINE
5
397
100
AcDbEntity
8
0
100
AcDbLine
10
-259.05117183923721
20
-82.5
30
0
11
-248.11300665140152
21
-82.5
31
0
0
SPLINE
5
398
100
AcDbEntity
8
0
100
AcDbSpline
70
0
71
2
72
6
73
3
74
0
42
0.000000001
43
0.0000000001
44
0.0000000001
40
0
40
0
40
0
40
1
40
1
40
1
10
-248.2675913721323
20
-146.1460542678833
30
0
10
-248.2675913721323
20
-149.0138578414917
30
0
10
-251.18869937956333
20
-151.4765453338623
30
0
0
SPLINE
5
399
100
AcDbEntity
8
0
100
AcDbSpline
70
0
71
2
72
6
73
3
74
0
42
0.000000001
43
0.0000000001
44
0.0000000001
40
0
40
0
40
0
40
1
40
1
40
1
10
-251.18869937956333
20
-151.4765453338623
30
0
10
-253.65138567984104
20
-153.55543613433838
30
0
10
-256.79637469351292
20
-154.39765453338623
30
0
0
LINE
5
400
100
AcDbEntity
8
0
100
AcDbLine
10
-256.79637469351292
20
-154.39765453338623
30
0
11
-249.50426377356052
21
-154.39765453338623
31
0
0
LINE
5
401
100
AcDbEntity
8
0
100
AcDbLine
10
-249.50426377356052
20
-154.39765453338623
30
0
11
-250.60234345495701
21
-157.5
31
0
0
LINE
5
402
100
AcDbEntity
8
0
100
AcDbLine
10
-250.60234345495701
20
-157.5
30
0
11
-261.73240877687931
21
-157.5
31
0
0
LINE
5
403
100
AcDbEntity
8
0
100
AcDbLine
10
-261.73240877687931
20
-157.5
30
0
11
-260.81556476652622
21
-154.46161985397339
31
0
0
SPLINE
5
404
100
AcDbEntity
8
0
100
AcDbSpline
70
0
71
2
72
6
73
3
74
0
42
0.000000001
43
0.0000000001
44
0.0000000001
40
0
40
0
40
0
40
1
40
1
40
1
10
-260.81556476652622
20
-154.46161985397339
30
0
10
-258.4275046736002
20
-153.49147081375122
30
0
10
-255.92217482626438
20
-151.31663084030151
30
0
0
SPLINE
5
405
100
AcDbEntity
8
0
100
AcDbSpline
70
0
71
2
72
6
73
3
74
0
42
0.000000001
43
0.0000000001
44
0.0000000001
40
0
40
0
40
0
40
1
40
1
40
1
10
-255.92217482626438
20
-151.31663084030151
30
0
10
-252.91577734053135
20
-148.70469093322754
30
0
10
-252.91577734053135
20
-146.68976545333862
30
0
0
SPLINE
5
406
100
AcDbEntity
8
0
100
AcDbSpline
70
0
71
2
72
6
73
3
74
0
42
0.000000001
43
0.0000000001
44
0.0000000001
40
0
40
0
40
0
40
1
40
1
40
1
10
-252.91577734053135
20
-146.68976545333862
30
0
10
-252.91577734053135
20
-144.60021257400513
30
0
10
-254.52558554708958
20
-144.60021257400513
30
0
0
LINE
5
407
100
AcDbEntity
8
0
100
AcDbLine
10
-254.52558554708958
20
-144.60021257400513
30
0
11
-254.66417826712132
21
-144.60021257400513
31
0
0
SPLINE
5
408
100
AcDbEntity
8
0
100
AcDbSpline
70
0
71
2
72
6
73
3
74
0
42
0.000000001
43
0.0000000001
44
0.0000000001
40
0
40
0
40
0
40
1
40
1
40
1
10
-254.66417826712132
20
-144.60021257400513
30
0
10
-254.61087264120579
20
-144.89871978759766
30
0
10
-254.61087264120579
20
-145.05863666534424
30
0
0
SPLINE
5
409
100
AcDbEntity
8
0
100
AcDbSpline
70
0
71
2
72
6
73
3
74
0
42
0.000000001
43
0.0000000001
44
0.0000000001
40
0
40
0
40
0
40
1
40
1
40
1
10
-254.61087264120579
20
-145.05863666534424
30
0
10
-254.61087264120579
20
-146.1460542678833
30
0
10
-255.49573458731174
20
-146.89232349395752
30
0
0
SPLINE
5
410
100
AcDbEntity
8
0
100
AcDbSpline
70
0
71
2
72
6
73
3
74
0
42
0.000000001
43
0.0000000001
44
0.0000000001
40
0
40
0
40
0
40
1
40
1
40
1
10
-255.49573458731174
20
-146.89232349395752
30
0
10
-256.32729090750217
20
-147.60660886764526
30
0
10
-257.45735563337803
20
-147.60660886764526
30
0
0
SPLINE
5
411
100
AcDbEntity
8
0
100
AcDbSpline
70
0
71
2
72
6
73
3
74
0
42
0.000000001
43
0.0000000001
44
0.0000000001
40
0
40
0
40
0
40
1
40
1
40
1
10
-257.45735563337803
20
-147.60660886764526
30
0
10
-258.56609739363194
20
-147.60660886764526
30
0
10
-259.39765371382236
20
-146.89232349395752
30
0
0
SPLINE
5
412
100
AcDbEntity
8
0
100
AcDbSpline
70
0
71
2
72
6
73
3
74
0
42
0.000000001
43
0.0000000001
44
0.0000000001
40
0
40
0
40
0
40
1
40
1
40
1
10
-259.39765371382236
20
-146.89232349395752
30
0
10
-260.2718547731638
20
-146.1460542678833
30
0
10
-260.2718547731638
20
-145.05863666534424
30
0
0
SPLINE
5
413
100
AcDbEntity
8
0
100
AcDbSpline
70
0
71
2
72
6
73
3
74
0
42
0.000000001
43
0.0000000001
44
0.0000000001
40
0
40
0
40
0
40
1
40
1
40
1
10
-260.2718547731638
20
-145.05863666534424
30
0
10
-260.2718547731638
20
-143.2782506942749
30
0
10
-258.60874213278294
20
-142.65991449356079
30
0
0
SPLINE
5
414
100
AcDbEntity
8
0
100
AcDbSpline
70
0
71
2
72
6
73
3
74
0
42
0.000000001
43
0.0000000001
44
0.0000000001
40
0
40
0
40
0
40
1
40
1
40
1
10
-258.60874213278294
20
-142.65991449356079
30
0
10
-257.48933829367161
20
-142.23347663879395
30
0
10
-254.85607661306858
20
-142.23347663879395
30
0
0
SPLINE
5
415
100
AcDbEntity
8
0
100
AcDbSpline
70
0
71
2
72
6
73
3
74
0
42
0.000000001
43
0.0000000001
44
0.0000000001
40
0
40
0
40
0
40
1
40
1
40
1
10
-254.85607661306858
20
-142.23347663879395
30
0
10
-252.10554279386997
20
-142.23347663879395
30
0
10
-250.78358210623264
20
-142.69189834594727
30
0
0
SPLINE
5
416
100
AcDbEntity
8
0
100
AcDbSpline
70
0
71
2
72
6
73
3
74
0
42
0.000000001
43
0.0000000001
44
0.0000000001
40
0
40
0
40
0
40
1
40
1
40
1
10
-250.78358210623264
20
-142.69189834594727
30
0
10
-248.2675913721323
20
-143.55543613433838
30
0
10
-248.2675913721323
20
-146.1460542678833
30
0
0
LINE
5
417
100
AcDbEntity
8
0
100
AcDbLine
10
-251.08208909630775
20
-205.53837776184082
30
0
11
-255.27185454964638
21
-217.5
31
0
0
LINE
5
418
100
AcDbEntity
8
0
100
AcDbLine
10
-255.27185454964638
20
-217.5
30
0
11
-259.14179101586342
21
-217.5
31
0
0
LINE
5
419
100
AcDbEntity
8
0
100
AcDbLine
10
-259.14179101586342
20
-217.5
30
0
11
-254.93070259690285
21
-205.20788908004761
31
0
0
LINE
5
420
100
AcDbEntity
8
0
100
AcDbLine
10
-254.93070259690285
20
-205.20788908004761
30
0
11
-258.31023469567299
21
-205.20788908004761
31
0
0
LINE
5
421
100
AcDbEntity
8
0
100
AcDbLine
10
-258.31023469567299
20
-205.20788908004761
30
0
11
-256.89232364296913
21
-202.5
31
0
0
LINE
5
422
100
AcDbEntity
8
0
100
AcDbLine
10
-256.89232364296913
20
-202.5
30
0
11
-252.72388115525246
21
-202.5
31
0
0
SPLINE
5
423
100
AcDbEntity
8
0
100
AcDbSpline
70
0
71
2
72
6
73
3
74
0
42
0.000000001
43
0.0000000001
44
0.0000000001
40
0
40
0
40
0
40
1
40
1
40
1
10
-252.72388115525246
20
-202.5
30
0
10
-251.89232364296913
20
-202.5
30
0
10
-251.39125719666481
20
-202.97974348068237
30
0
0
SPLINE
5
424
100
AcDbEntity
8
0
100
AcDbSpline
70
0
71
2
72
6
73
3
74
0
42
0.000000001
43
0.0000000001
44
0.0000000001
40
0
40
0
40
0
40
1
40
1
40
1
10
-251.39125719666481
20
-202.97974348068237
30
0
10
-250.85820809006691
20
-203.49147081375122
30
0
10
-250.85820809006691
20
-204.35501098632812
30
0
0
SPLINE
5
425
100
AcDbEntity
8
0
100
AcDbSpline
70
0
71
2
72
6
73
3
74
0
42
0.000000001
43
0.0000000001
44
0.0000000001
40
0
40
0
40
0
40
1
40
1
40
1
10
-250.85820809006691
20
-204.35501098632812
30
0
10
-250.85820809006691
20
-204.89871978759766
30
0
10
-251.08208909630775
20
-205.53837776184082
30
0
0
SPLINE
5
426
100
AcDbEntity
8
0
100
AcDbSpline
70
0
71
2
72
6
73
3
74
0
42
0.000000001
43
0.0000000001
44
0.0000000001
40
0
40
0
40
0
40
1
40
1
40
1
10
247.97974497079855
20
206.47654533386233
30
0
10
247.97974497079855
20
208.38486194610599
30
0
10
249.96268659830099
20
209.66417789459231
30
0
0
SPLINE
5
427
100
AcDbEntity
8
0
100
AcDbSpline
70
0
71
2
72
6
73
3
74
0
42
0.000000001
43
0.0000000001
44
0.0000000001
40
0
40
0
40
0
40
1
40
1
40
1
10
249.96268659830099
20
209.66417789459231
30
0
10
248.76865774393087
20
211.03944540023807
30
0
10
248.76865774393087
20
212.67057418823245
30
0
0
SPLINE
5
428
100
AcDbEntity
8
0
100
AcDbSpline
70
0
71
2
72
6
73
3
74
0
42
0.000000001
43
0.0000000001
44
0.0000000001
40
0
40
0
40
0
40
1
40
1
40
1
10
248.76865774393087
20
212.67057418823245
30
0
10
248.76865774393087
20
215.04797458648684
30
0
10
250.96481949090963
20
216.49786949157718
30
0
0
SPLINE
5
429
100
AcDbEntity
8
0
100
AcDbSpline
70
0
71
2
72
6
73
3
74
0
42
0.000000001
43
0.0000000001
44
0.0000000001
40
0
40
0
40
0
40
1
40
1
40
1
10
250.96481949090963
20
216.49786949157718
30
0
10
252.89445787668234
20
217.76652336120608
30
0
10
255.39978772401815
20
217.76652336120608
30
0
0
SPLINE
5
430
100
AcDbEntity
8
0
100
AcDbSpline
70
0
71
2
72
6
73
3
74
0
42
0.000000001
43
0.0000000001
44
0.0000000001
40
0
40
0
40
0
40
1
40
1
40
1
10
255.39978772401815
20
217.76652336120608
30
0
10
258.29957515001303
20
217.76652336120608
30
0
10
259.98400956392294
20
216.67910575866702
30
0
0
SPLINE
5
431
100
AcDbEntity
8
0
100
AcDbSpline
70
0
71
2
72
6
73
3
74
0
42
0.000000001
43
0.0000000001
44
0.0000000001
40
0
40
0
40
0
40
1
40
1
40
1
10
259.98400956392294
20
216.67910575866702
30
0
10
262.02025681734091
20
215.38912773132327
30
0
10
262.02025681734091
20
212.67057418823245
30
0
0
SPLINE
5
432
100
AcDbEntity
8
0
100
AcDbSpline
70
0
71
2
72
6
73
3
74
0
42
0.000000001
43
0.0000000001
44
0.0000000001
40
0
40
0
40
0
40
1
40
1
40
1
10
262.02025681734091
20
212.67057418823245
30
0
10
262.02025681734091
20
209.90938186645511
30
0
10
259.13113147020346
20
208.31023454666141
30
0
0
SPLINE
5
433
100
AcDbEntity
8
0
100
AcDbSpline
70
0
71
2
72
6
73
3
74
0
42
0.000000001
43
0.0000000001
44
0.0000000001
40
0
40
0
40
0
40
1
40
1
40
1
10
259.13113147020346
20
208.31023454666141
30
0
10
259.70682412385946
20
207.46801853179934
30
0
10
259.70682412385946
20
206.47654533386233
30
0
0
SPLINE
5
434
100
AcDbEntity
8
0
100
AcDbSpline
70
0
71
2
72
6
73
3
74
0
42
0.000000001
43
0.0000000001
44
0.0000000001
40
0
40
0
40
0
40
1
40
1
40
1
10
259.70682412385946
20
206.47654533386233
30
0
10
259.70682412385946
20
204.50426578521731
30
0
10
257.68123775720602
20
203.27825069427493
30
0
0
SPLINE
5
435
100
AcDbEntity
8
0
100
AcDbSpline
70
0
71
2
72
6
73
3
74
0
42
0.000000001
43
0.0000000001
44
0.0000000001
40
0
40
0
40
0
40
1
40
1
40
1
10
257.68123775720602
20
203.27825069427493
30
0
10
255.94349771738058
20
202.23347663879397
30
0
10
253.85394603013998
20
202.23347663879397
30
0
0
SPLINE
5
436
100
AcDbEntity
8
0
100
AcDbSpline
70
0
71
2
72
6
73
3
74
0
42
0.000000001
43
0.0000000001
44
0.0000000001
40
0
40
0
40
0
40
1
40
1
40
1
10
253.85394603013998
20
202.23347663879397
30
0
10
251.46588593721395
20
202.23347663879397
30
0
10
249.89872127771383
20
203.13965797424319
30
0
0
SPLINE
5
437
100
AcDbEntity
8
0
100
AcDbSpline
70
0
71
2
72
6
73
3
74
0
42
0.000000001
43
0.0000000001
44
0.0000000001
40
0
40
0
40
0
40
1
40
1
40
1
10
249.89872127771383
20
203.13965797424319
30
0
10
247.97974497079855
20
204.25906181335452
30
0
10
247.97974497079855
20
206.47654533386233
30
0
0
SPLINE
5
438
100
AcDbEntity
8
0
100
AcDbSpline
70
0
71
2
72
6
73
3
74
0
42
0.000000001
43
0.0000000001
44
0.0000000001
40
0
40
0
40
0
40
1
40
1
40
1
10
251.83901935815817
20
205.58102369308475
30
0
10
251.83901935815817
20
205.03731250762942
30
0
10
252.20149308443075
20
204.68550205230716
30
0
0
SPLINE
5
439
100
AcDbEntity
8
0
100
AcDbSpline
70
0
71
2
72
6
73
3
74
0
42
0.000000001
43
0.0000000001
44
0.0000000001
40
0
40
0
40
0
40
1
40
1
40
1
10
252.20149308443075
20
204.68550205230716
30
0
10
252.56396681070333
20
204.33368682861331
30
0
10
253.08635503053671
20
204.33368682861331
30
0
0
SPLINE
5
440
100
AcDbEntity
8
0
100
AcDbSpline
70
0
71
2
72
6
73
3
74
0
42
0.000000001
43
0.0000000001
44
0.0000000001
40
0
40
0
40
0
40
1
40
1
40
1
10
253.08635503053671
20
204.33368682861331
30
0
10
254.23774152994162
20
204.33368682861331
30
0
10
254.68550235033041
20
205.62366724014285
30
0
0
LINE
5
441
100
AcDbEntity
8
0
100
AcDbLine
10
254.68550235033041
20
205.62366724014285
30
0
11
255.623668730259
21
208.37419986724856
31
0
0
LINE
5
442
100
AcDbEntity
8
0
100
AcDbLine
10
255.623668730259
20
208.37419986724856
30
0
11
254.37633424997335
21
208.37419986724856
31
0
0
SPLINE
5
443
100
AcDbEntity
8
0
100
AcDbSpline
70
0
71
2
72
6
73
3
74
0
42
0.000000001
43
0.0000000001
44
0.0000000001
40
0
40
0
40
0
40
1
40
1
40
1
10
254.37633424997335
20
208.37419986724856
30
0
10
253.22494775056845
20
208.37419986724856
30
0
10
252.70255953073507
20
207.76652336120608
30
0
0
SPLINE
5
444
100
AcDbEntity
8
0
100
AcDbSpline
70
0
71
2
72
6
73
3
74
0
42
0.000000001
43
0.0000000001
44
0.0000000001
40
0
40
0
40
0
40
1
40
1
40
1
10
252.70255953073507
20
207.76652336120608
30
0
10
252.40405231714254
20
207.41471290588382
30
0
10
251.95629030466085
20
206.16737842559817
30
0
0
SPLINE
5
445
100
AcDbEntity
8
0
100
AcDbSpline
70
0
71
2
72
6
73
3
74
0
42
0.000000001
43
0.0000000001
44
0.0000000001
40
0
40
0
40
0
40
1
40
1
40
1
10
251.95629030466085
20
206.16737842559817
30
0
10
251.83901935815817
20
205.86886882781985
30
0
10
251.83901935815817
20
205.58102369308475
30
0
0
LINE
5
446
100
AcDbEntity
8
0
100
AcDbLine
10
252.81983047723776
20
210.25053262710574
30
0
11
254.81343418359762
21
210.25053262710574
31
0
0
SPLINE
5
447
100
AcDbEntity
8
0
100
AcDbSpline
70
0
71
2
72
6
73
3
74
0
42
0.000000001
43
0.0000000001
44
0.0000000001
40
0
40
0
40
0
40
1
40
1
40
1
10
254.81343418359762
20
210.25053262710574
30
0
10
255.71961790323263
20
210.25053262710574
30
0
10
256.29531055688864
20
210.85820913314822
30
0
0
SPLINE
5
448
100
AcDbEntity
8
0
100
AcDbSpline
70
0
71
2
72
6
73
3
74
0
42
0.000000001
43
0.0000000001
44
0.0000000001
40
0
40
0
40
0
40
1
40
1
40
1
10
256.29531055688864
20
210.85820913314822
30
0
10
256.72174960374838
20
211.32729053497317
30
0
10
257.06290155649191
20
212.28677988052371
30
0
0
SPLINE
5
449
100
AcDbEntity
8
0
100
AcDbSpline
70
0
71
2
72
6
73
3
74
0
42
0.000000001
43
0.0000000001
44
0.0000000001
40
0
40
0
40
0
40
1
40
1
40
1
10
257.06290155649191
20
212.28677988052371
30
0
10
257.31876403093344
20
213.08635473251346
30
0
10
257.58528858423239
20
213.89658927917483
30
0
0
SPLINE
5
450
100
AcDbEntity
8
0
100
AcDbSpline
70
0
71
2
72
6
73
3
74
0
42
0.000000001
43
0.0000000001
44
0.0000000001
40
0
40
0
40
0
40
1
40
1
40
1
10
257.58528858423239
20
213.89658927917483
30
0
10
257.7132204174996
20
214.25906181335452
30
0
10
257.7132204174996
20
214.5788908004761
30
0
0
SPLINE
5
451
100
AcDbEntity
8
0
100
AcDbSpline
70
0
71
2
72
6
73
3
74
0
42
0.000000001
43
0.0000000001
44
0.0000000001
40
0
40
0
40
0
40
1
40
1
40
1
10
257.7132204174996
20
214.5788908004761
30
0
10
257.7132204174996
20
215.16524553298953
30
0
10
257.21215397119528
20
215.53837776184085
30
0
0
SPLINE
5
452
100
AcDbEntity
8
0
100
AcDbSpline
70
0
71
2
72
6
73
3
74
0
42
0.000000001
43
0.0000000001
44
0.0000000001
40
0
40
0
40
0
40
1
40
1
40
1
10
257.21215397119528
20
215.53837776184085
30
0
10
256.75373226404196
20
215.87953090667727
30
0
10
256.12473517656332
20
215.87953090667727
30
0
0
SPLINE
5
453
100
AcDbEntity
8
0
100
AcDbSpline
70
0
71
2
72
6
73
3
74
0
42
0.000000001
43
0.0000000001
44
0.0000000001
40
0
40
0
40
0
40
1
40
1
40
1
10
256.12473517656332
20
215.87953090667727
30
0
10
254.71748501062399
20
215.87953090667727
30
0
10
254.22707945108419
20
214.41897630691531
30
0
0
LINE
5
454
100
AcDbEntity
8
0
100
AcDbLine
10
254.22707945108419
20
214.41897630691531
30
0
11
252.81983047723776
21
210.25053262710574
31
0
0
LINE
5
455
100
AcDbEntity
8
0
100
AcDbLine
10
247.97974675893786
20
22.5
30
0
11
249.26972478628161
21
25.538380146026611
31
0
0
LINE
5
456
100
AcDbEntity
8
0
100
AcDbLine
10
249.26972478628161
20
25.538380146026611
30
0
11
254.74946945905688
21
25.538380146026611
31
0
0
LINE
5
457
100
AcDbEntity
8
0
100
AcDbLine
10
254.74946945905688
20
25.538380146026611
30
0
11
255.68763583898547
21
28.10767650604248
31
0
0
LINE
5
458
100
AcDbEntity
8
0
100
AcDbLine
10
255.68763583898547
20
28.10767650604248
30
0
11
254.1844376921654
21
28.10767650604248
31
0
0
SPLINE
5
459
100
AcDbEntity
8
0
100
AcDbSpline
70
0
71
2
72
6
73
3
74
0
42
0.000000001
43
0.0000000001
44
0.0000000001
40
0
40
0
40
0
40
1
40
1
40
1
10
254.1844376921654
20
28.10767650604248
30
0
10
251.70042842626574
20
28.10767650604248
30
0
10
250.42111009359363
20
29.163112640380859
30
0
0
SPLINE
5
460
100
AcDbEntity
8
0
100
AcDbSpline
70
0
71
2
72
6
73
3
74
0
42
0.000000001
43
0.0000000001
44
0.0000000001
40
0
40
0
40
0
40
1
40
1
40
1
10
250.42111009359363
20
29.163112640380859
30
0
10
249.04584497213366
20
30.30383825302124
30
0
10
249.02452319860461
20
31.956288814544678
30
0
0
SPLINE
5
461
100
AcDbEntity
8
0
100
AcDbSpline
70
0
71
2
72
6
73
3
74
0
42
0.000000001
43
0.0000000001
44
0.0000000001
40
0
40
0
40
0
40
1
40
1
40
1
10
249.02452319860461
20
31.956288814544678
30
0
10
249.01386111974719
20
33.736674785614014
30
0
10
250.5383834242821
20
35.293178558349609
30
0
0
SPLINE
5
462
100
AcDbEntity
8
0
100
AcDbSpline
70
0
71
2
72
6
73
3
74
0
42
0.000000001
43
0.0000000001
44
0.0000000001
40
0
40
0
40
0
40
1
40
1
40
1
10
250.5383834242821
20
35.293178558349609
30
0
10
253.0330511927605
20
37.862472534179688
30
0
10
257.51066297292715
20
37.862472534179688
30
0
0
SPLINE
5
463
100
AcDbEntity
8
0
100
AcDbSpline
70
0
71
2
72
6
73
3
74
0
42
0.000000001
43
0.0000000001
44
0.0000000001
40
0
40
0
40
0
40
1
40
1
40
1
10
257.51066297292715
20
37.862472534179688
30
0
10
258.47015231847769
20
37.862472534179688
30
0
10
259.44030135869986
20
37.713217735290527
30
0
0
SPLINE
5
464
100
AcDbEntity
8
0
100
AcDbSpline
70
0
71
2
72
6
73
3
74
0
42
0.000000001
43
0.0000000001
44
0.0000000001
40
0
40
0
40
0
40
1
40
1
40
1
10
259.44030135869986
20
37.713217735290527
30
0
10
260.54904311895376
20
37.563967704772949
30
0
10
261.28465026617056
20
36.839017868041992
30
0
0
SPLINE
5
465
100
AcDbEntity
8
0
100
AcDbSpline
70
0
71
2
72
6
73
3
74
0
42
0.000000001
43
0.0000000001
44
0.0000000001
40
0
40
0
40
0
40
1
40
1
40
1
10
261.28465026617056
20
36.839017868041992
30
0
10
262.02025860548025
20
36.114072799682617
30
0
10
262.02025860548025
20
35.122601985931396
30
0
0
SPLINE
5
466
100
AcDbEntity
8
0
100
AcDbSpline
70
0
71
2
72
6
73
3
74
0
42
0.000000001
43
0.0000000001
44
0.0000000001
40
0
40
0
40
0
40
1
40
1
40
1
10
262.02025860548025
20
35.122601985931396
30
0
10
262.02025860548025
20
34.067163467407227
30
0
10
261.19403213262564
20
33.315565586090088
30
0
0
SPLINE
5
467
100
AcDbEntity
8
0
100
AcDbSpline
70
0
71
2
72
6
73
3
74
0
42
0.000000001
43
0.0000000001
44
0.0000000001
40
0
40
0
40
0
40
1
40
1
40
1
10
261.19403213262564
20
33.315565586090088
30
0
10
260.36780685186392
20
32.563965320587158
30
0
10
259.20575946569448
20
32.563965320587158
30
0
0
SPLINE
5
468
100
AcDbEntity
8
0
100
AcDbSpline
70
0
71
2
72
6
73
3
74
0
42
0.000000001
43
0.0000000001
44
0.0000000001
40
0
40
0
40
0
40
1
40
1
40
1
10
259.20575946569448
20
32.563965320587158
30
0
10
258.022390305996
20
32.563965320587158
30
0
10
257.19083398580557
20
33.315565586090088
30
0
0
SPLINE
5
469
100
AcDbEntity
8
0
100
AcDbSpline
70
0
71
2
72
6
73
3
74
0
42
0.000000001
43
0.0000000001
44
0.0000000001
40
0
40
0
40
0
40
1
40
1
40
1
10
257.19083398580557
20
33.315565586090088
30
0
10
256.35927766561514
20
34.067163467407227
30
0
10
256.35927766561514
20
35.122601985931396
30
0
0
SPLINE
5
470
100
AcDbEntity
8
0
100
AcDbSpline
70
0
71
2
72
6
73
3
74
0
42
0.000000001
43
0.0000000001
44
0.0000000001
40
0
40
0
40
0
40
1
40
1
40
1
10
256.35927766561514
20
35.122601985931396
30
0
10
256.35927766561514
20
35.581021308898926
30
0
10
256.54051393270498
20
36.039447784423828
30
0
0
SPLINE
5
471
100
AcDbEntity
8
0
100
AcDbSpline
70
0
71
2
72
6
73
3
74
0
42
0.000000001
43
0.0000000001
44
0.0000000001
40
0
40
0
40
0
40
1
40
1
40
1
10
256.54051393270498
20
36.039447784423828
30
0
10
255.27185767889026
20
35.879530906677246
30
0
10
254.37633484601977
20
34.802770614624023
30
0
0
SPLINE
5
472
100
AcDbEntity
8
0
100
AcDbSpline
70
0
71
2
72
6
73
3
74
0
42
0.000000001
43
0.0000000001
44
0.0000000001
40
0
40
0
40
0
40
1
40
1
40
1
10
254.37633484601977
20
34.802770614624023
30
0
10
253.52345675230029
20
33.768656253814697
30
0
10
253.52345675230029
20
32.563965320587158
30
0
0
SPLINE
5
473
100
AcDbEntity
8
0
100
AcDbSpline
70
0
71
2
72
6
73
3
74
0
42
0.000000001
43
0.0000000001
44
0.0000000001
40
0
40
0
40
0
40
1
40
1
40
1
10
253.52345675230029
20
32.563965320587158
30
0
10
253.52345675230029
20
31.455223560333252
30
0
10
254.41897839307788
20
30.762259960174561
30
0
0
SPLINE
5
474
100
AcDbEntity
8
0
100
AcDbSpline
70
0
71
2
72
6
73
3
74
0
42
0.000000001
43
0.0000000001
44
0.0000000001
40
0
40
0
40
0
40
1
40
1
40
1
10
254.41897839307788
20
30.762259960174561
30
0
10
255.43177217245105
20
29.962687492370605
30
0
10
257.35074847936636
20
29.962687492370605
30
0
0
LINE
5
475
100
AcDbEntity
8
0
100
AcDbLine
10
257.35074847936636
20
29.962687492370605
30
0
11
260.18656939268118
21
29.962687492370605
31
0
0
LINE
5
476
100
AcDbEntity
8
0
100
AcDbLine
10
260.18656939268118
20
29.962687492370605
30
0
11
257.56396859884268
21
22.5
31
0
0
LINE
5
477
100
AcDbEntity
8
0
100
AcDbLine
10
257.56396859884268
20
22.5
30
0
11
247.97974675893786
21
22.5
31
0
0
LINE
5
478
100
AcDbEntity
8
0
100
AcDbLine
10
251.0820908844471
20
-214.46162223815918
30
0
11
255.27185633778572
21
-202.5
31
0
0
LINE
5
479
100
AcDbEntity
8
0
100
AcDbLine
10
255.27185633778572
20
-202.5
30
0
11
259.14179280400276
21
-202.5
31
0
0
LINE
5
480
100
AcDbEntity
8
0
100
AcDbLine
10
259.14179280400276
20
-202.5
30
0
11
254.93070438504219
21
-214.79211091995239
31
0
0
LINE
5
481
100
AcDbEntity
8
0
100
AcDbLine
10
254.93070438504219
20
-214.79211091995239
30
0
11
258.31023648381233
21
-214.79211091995239
31
0
0
LINE
5
482
100
AcDbEntity
8
0
100
AcDbLine
10
258.31023648381233
20
-214.79211091995239
30
0
11
256.89232543110847
21
-217.5
31
0
0
LINE
5
483
100
AcDbEntity
8
0
100
AcDbLine
10
256.89232543110847
20
-217.5
30
0
11
252.7238829433918
21
-217.5
31
0
0
SPLINE
5
484
100
AcDbEntity
8
0
100
AcDbSpline
70
0
71
2
72
6
73
3
74
0
42
0.000000001
43
0.0000000001
44
0.0000000001
40
0
40
0
40
0
40
1
40
1
40
1
10
252.7238829433918
20
-217.5
30
0
10
251.89232543110847
20
-217.5
30
0
10
251.39125898480415
20
-217.02025651931763
30
0
0
SPLINE
5
485
100
AcDbEntity
8
0
100
AcDbSpline
70
0
71
2
72
6
73
3
74
0
42
0.000000001
43
0.0000000001
44
0.0000000001
40
0
40
0
40
0
40
1
40
1
40
1
10
251.39125898480415
20
-217.02025651931763
30
0
10
250.85820987820625
20
-216.50852918624878
30
0
10
250.85820987820625
20
-215.64498901367188
30
0
0
SPLINE
5
486
100
AcDbEntity
8
0
100
AcDbSpline
70
0
71
2
72
6
73
3
74
0
42
0.000000001
43
0.0000000001
44
0.0000000001
40
0
40
0
40
0
40
1
40
1
40
1
10
250.85820987820625
20
-215.64498901367188
30
0
10
250.85820987820625
20
-215.10128021240234
30
0
10
251.0820908844471
20
-214.46162223815918
30
0
0
LINE
5
487
100
AcDbEntity
8
0
100
AcDbLine
10
247.54264496266845
20
-29.749467372894287
30
0
11
248.65138910710814
21
-26.711087226867676
31
0
0
LINE
5
488
100
AcDbEntity
8
0
100
AcDbLine
10
248.65138910710814
20
-26.711087226867676
30
0
11
251.40192054212096
21
-26.711087226867676
31
0
0
LINE
5
489
100
AcDbEntity
8
0
100
AcDbLine
10
251.40192054212096
20
-26.711087226867676
30
0
11
252.9371025413275
21
-22.5
31
0
0
LINE
5
490
100
AcDbEntity
8
0
100
AcDbLine
10
252.9371025413275
20
-22.5
30
0
11
256.775056347251
21
-22.5
31
0
0
LINE
5
491
100
AcDbEntity
8
0
100
AcDbLine
10
256.775056347251
20
-22.5
30
0
11
255.271857008338
21
-26.711087226867676
31
0
0
LINE
5
492
100
AcDbEntity
8
0
100
AcDbLine
10
255.271857008338
20
-26.711087226867676
30
0
11
260.83688877522951
21
-26.711087226867676
31
0
0
SPLINE
5
493
100
AcDbEntity
8
0
100
AcDbSpline
70
0
71
2
72
6
73
3
74
0
42
0.000000001
43
0.0000000001
44
0.0000000001
40
0
40
0
40
0
40
1
40
1
40
1
10
260.83688877522951
20
-26.711087226867676
30
0
10
262.45735846459871
20
-26.711087226867676
30
0
10
262.45735846459871
20
-27.937099933624268
30
0
0
SPLINE
5
494
100
AcDbEntity
8
0
100
AcDbSpline
70
0
71
2
72
6
73
3
74
0
42
0.000000001
43
0.0000000001
44
0.0000000001
40
0
40
0
40
0
40
1
40
1
40
1
10
262.45735846459871
20
-27.937099933624268
30
0
10
262.45735846459871
20
-28.491470813751221
30
0
10
262.020257934928
20
-28.960554599761963
30
0
0
LINE
5
495
100
AcDbEntity
8
0
100
AcDbLine
10
262.020257934928
20
-28.960554599761963
30
0
11
258.52345608174807
21
-32.745203971862793
31
0
0
SPLINE
5
496
100
AcDbEntity
8
0
100
AcDbSpline
70
0
71
2
72
6
73
3
74
0
42
0.000000001
43
0.0000000001
44
0.0000000001
40
0
40
0
40
0
40
1
40
1
40
1
10
258.52345608174807
20
-32.745203971862793
30
0
10
259.36567328870302
20
-33.001065254211426
30
0
10
259.89339254796511
20
-33.667378425598145
30
0
0
SPLINE
5
497
100
AcDbEntity
8
0
100
AcDbSpline
70
0
71
2
72
6
73
3
74
0
42
0.000000001
43
0.0000000001
44
0.0000000001
40
0
40
0
40
0
40
1
40
1
40
1
10
259.89339254796511
20
-33.667378425598145
30
0
10
260.4211106151343
20
-34.333689212799072
30
0
10
260.4211106151343
20
-35.165245532989502
30
0
0
SPLINE
5
498
100
AcDbEntity
8
0
100
AcDbSpline
70
0
71
2
72
6
73
3
74
0
42
0.000000001
43
0.0000000001
44
0.0000000001
40
0
40
0
40
0
40
1
40
1
40
1
10
260.4211106151343
20
-35.165245532989502
30
0
10
260.4211106151343
20
-36.273987293243408
30
0
10
259.54691074788576
20
-37.020256519317627
30
0
0
SPLINE
5
499
100
AcDbEntity
8
0
100
AcDbSpline
70
0
71
2
72
6
73
3
74
0
42
0.000000001
43
0.0000000001
44
0.0000000001
40
0
40
0
40
0
40
1
40
1
40
1
10
259.54691074788576
20
-37.020256519317627
30
0
10
258.70469234883791
20
-37.723879814147949
30
0
10
257.58528970181948
20
-37.713220119476318
30
0
0
SPLINE
5
500
100
AcDbEntity
8
0
100
AcDbSpline
70
0
71
2
72
6
73
3
74
0
42
0.000000001
43
0.0000000001
44
0.0000000001
40
0
40
0
40
0
40
1
40
1
40
1
10
257.58528970181948
20
-37.713220119476318
30
0
10
256.39125965535646
20
-37.713220119476318
30
0
10
255.55970333516601
20
-36.918976306915283
30
0
0
SPLINE
5
501
100
AcDbEntity
8
0
100
AcDbSpline
70
0
71
2
72
6
73
3
74
0
42
0.000000001
43
0.0000000001
44
0.0000000001
40
0
40
0
40
0
40
1
40
1
40
1
10
255.55970333516601
20
-36.918976306915283
30
0
10
254.72814701497558
20
-36.124734878540039
30
0
10
254.72814701497558
20
-34.941363334655762
30
0
0
SPLINE
5
502
100
AcDbEntity
8
0
100
AcDbSpline
70
0
71
2
72
6
73
3
74
0
42
0.000000001
43
0.0000000001
44
0.0000000001
40
0
40
0
40
0
40
1
40
1
40
1
10
254.72814701497558
20
-34.941363334655762
30
0
10
254.72814701497558
20
-33.960554599761963
30
0
10
255.62366984784606
20
-33.001065254211426
30
0
0
LINE
5
503
100
AcDbEntity
8
0
100
AcDbLine
10
255.62366984784606
20
-33.001065254211426
30
0
11
258.65138791501528
21
-29.749467372894287
31
0
0
LINE
5
504
100
AcDbEntity
8
0
100
AcDbLine
10
258.65138791501528
20
-29.749467372894287
30
0
11
254.33369062840941
21
-29.749467372894287
31
0
0
LINE
5
505
100
AcDbEntity
8
0
100
AcDbLine
10
254.33369062840941
20
-29.749467372894287
30
0
11
251.49786971509459
21
-37.5
31
0
0
LINE
5
506
100
AcDbEntity
8
0
100
AcDbLine
10
251.49786971509459
20
-37.5
30
0
11
247.62793444097045
21
-37.5
31
0
0
LINE
5
507
100
AcDbEntity
8
0
100
AcDbLine
10
247.62793444097045
20
-37.5
30
0
11
250.33582113683227
21
-29.749467372894287
31
0
0
LINE
5
508
100
AcDbEntity
8
0
100
AcDbLine
10
250.33582113683227
20
-29.749467372894287
30
0
11
247.54264496266845
21
-29.749467372894287
31
0
0
SPLINE
5
509
100
AcDbEntity
8
0
100
AcDbSpline
70
0
71
2
72
6
73
3
74
0
42
0.000000001
43
0.0000000001
44
0.0000000001
40
0
40
0
40
0
40
1
40
1
40
1
10
248.10234680771831
20
91.753730773925781
30
0
10
248.10234680771831
20
94.578890800476074
30
0
10
250.28784886002543
20
96.263327598571777
30
0
0
SPLINE
5
510
100
AcDbEntity
8
0
100
AcDbSpline
70
0
71
2
72
6
73
3
74
0
42
0.000000001
43
0.0000000001
44
0.0000000001
40
0
40
0
40
0
40
1
40
1
40
1
10
250.28784886002543
20
96.263327598571777
30
0
10
252.29211226105693
20
97.80916690826416
30
0
10
255.20256057381633
20
97.80916690826416
30
0
0
SPLINE
5
511
100
AcDbEntity
8
0
100
AcDbSpline
70
0
71
2
72
6
73
3
74
0
42
0.000000001
43
0.0000000001
44
0.0000000001
40
0
40
0
40
0
40
1
40
1
40
1
10
255.20256057381633
20
97.80916690826416
30
0
10
257.91044965386396
20
97.80916690826416
30
0
10
259.79744330048567
20
96.423239707946777
30
0
0
SPLINE
5
512
100
AcDbEntity
8
0
100
AcDbSpline
70
0
71
2
72
6
73
3
74
0
42
0.000000001
43
0.0000000001
44
0.0000000001
40
0
40
0
40
0
40
1
40
1
40
1
10
259.79744330048567
20
96.423239707946777
30
0
10
261.89765647053724
20
94.888060092926025
30
0
10
261.89765647053724
20
92.286779880523682
30
0
0
SPLINE
5
513
100
AcDbEntity
8
0
100
AcDbSpline
70
0
71
2
72
6
73
3
74
0
42
0.000000001
43
0.0000000001
44
0.0000000001
40
0
40
0
40
0
40
1
40
1
40
1
10
261.89765647053724
20
92.286779880523682
30
0
10
261.89765647053724
20
89.141790866851807
30
0
10
259.16844502091413
20
86.337952613830566
30
0
0
SPLINE
5
514
100
AcDbEntity
8
0
100
AcDbSpline
70
0
71
2
72
6
73
3
74
0
42
0.000000001
43
0.0000000001
44
0.0000000001
40
0
40
0
40
0
40
1
40
1
40
1
10
259.16844502091413
20
86.337952613830566
30
0
10
257.04691067337995
20
84.184434413909912
30
0
10
253.62473502755168
20
82.5
30
0
0
LINE
5
515
100
AcDbEntity
8
0
100
AcDbLine
10
253.62473502755168
20
82.5
30
0
11
250.54371014237407
21
82.5
31
0
0
SPLINE
5
516
100
AcDbEntity
8
0
100
AcDbSpline
70
0
71
2
72
6
73
3
74
0
42
0.000000001
43
0.0000000001
44
0.0000000001
40
0
40
0
40
0
40
1
40
1
40
1
10
250.54371014237407
20
82.5
30
0
10
253.67803946137431
20
84.898719787597656
30
0
10
255.18123760819438
20
86.753730773925781
30
0
0
SPLINE
5
517
100
AcDbEntity
8
0
100
AcDbSpline
70
0
71
2
72
6
73
3
74
0
42
0.000000001
43
0.0000000001
44
0.0000000001
40
0
40
0
40
0
40
1
40
1
40
1
10
255.18123760819438
20
86.753730773925781
30
0
10
257.4733485281468
20
89.578890800476074
30
0
10
257.4733485281468
20
92.457356452941895
30
0
0
SPLINE
5
518
100
AcDbEntity
8
0
100
AcDbSpline
70
0
71
2
72
6
73
3
74
0
42
0.000000001
43
0.0000000001
44
0.0000000001
40
0
40
0
40
0
40
1
40
1
40
1
10
257.4733485281468
20
92.457356452941895
30
0
10
257.4733485281468
20
93.832621574401855
30
0
10
256.80170670151716
20
94.717483520507812
30
0
0
SPLINE
5
519
100
AcDbEntity
8
0
100
AcDbSpline
70
0
71
2
72
6
73
3
74
0
42
0.000000001
43
0.0000000001
44
0.0000000001
40
0
40
0
40
0
40
1
40
1
40
1
10
256.80170670151716
20
94.717483520507812
30
0
10
256.05543866753584
20
95.708956718444824
30
0
10
254.72281590104106
20
95.708956718444824
30
0
0
SPLINE
5
520
100
AcDbEntity
8
0
100
AcDbSpline
70
0
71
2
72
6
73
3
74
0
42
0.000000001
43
0.0000000001
44
0.0000000001
40
0
40
0
40
0
40
1
40
1
40
1
10
254.72281590104106
20
95.708956718444824
30
0
10
252.59061947464946
20
95.708956718444824
30
0
10
251.97228327393535
20
93.608741760253906
30
0
0
SPLINE
5
521
100
AcDbEntity
8
0
100
AcDbSpline
70
0
71
2
72
6
73
3
74
0
42
0.000000001
43
0.0000000001
44
0.0000000001
40
0
40
0
40
0
40
1
40
1
40
1
10
251.97228327393535
20
93.608741760253906
30
0
10
251.89765587449077
20
93.374199867248535
30
0
10
251.79104581475261
20
93.128998279571533
30
0
0
SPLINE
5
522
100
AcDbEntity
8
0
100
AcDbSpline
70
0
71
2
72
6
73
3
74
0
42
0.000000001
43
0.0000000001
44
0.0000000001
40
0
40
0
40
0
40
1
40
1
40
1
10
251.79104581475261
20
93.128998279571533
30
0
10
252.91044965386394
20
93.118336200714111
30
0
10
253.73134508728984
20
92.414712905883789
30
0
0
SPLINE
5
523
100
AcDbEntity
8
0
100
AcDbSpline
70
0
71
2
72
6
73
3
74
0
42
0.000000001
43
0.0000000001
44
0.0000000001
40
0
40
0
40
0
40
1
40
1
40
1
10
253.73134508728984
20
92.414712905883789
30
0
10
254.60554495453837
20
91.66844367980957
30
0
10
254.60554495453837
20
90.581023693084717
30
0
0
SPLINE
5
524
100
AcDbEntity
8
0
100
AcDbSpline
70
0
71
2
72
6
73
3
74
0
42
0.000000001
43
0.0000000001
44
0.0000000001
40
0
40
0
40
0
40
1
40
1
40
1
10
254.60554495453837
20
90.581023693084717
30
0
10
254.60554495453837
20
89.472281932830811
30
0
10
253.73134508728984
20
88.726012706756592
30
0
0
SPLINE
5
525
100
AcDbEntity
8
0
100
AcDbSpline
70
0
71
2
72
6
73
3
74
0
42
0.000000001
43
0.0000000001
44
0.0000000001
40
0
40
0
40
0
40
1
40
1
40
1
10
253.73134508728984
20
88.726012706756592
30
0
10
252.89978757500651
20
88.02238941192627
30
0
10
251.76972404122355
20
88.02238941192627
30
0
0
SPLINE
5
526
100
AcDbEntity
8
0
100
AcDbSpline
70
0
71
2
72
6
73
3
74
0
42
0.000000001
43
0.0000000001
44
0.0000000001
40
0
40
0
40
0
40
1
40
1
40
1
10
251.76972404122355
20
88.02238941192627
30
0
10
250.12793198227885
20
88.02238941192627
30
0
10
249.11513939499858
20
89.061832427978516
30
0
0
SPLINE
5
527
100
AcDbEntity
8
0
100
AcDbSpline
70
0
71
2
72
6
73
3
74
0
42
0.000000001
43
0.0000000001
44
0.0000000001
40
0
40
0
40
0
40
1
40
1
40
1
10
249.11513939499858
20
89.061832427978516
30
0
10
248.10234680771831
20
90.101280212402344
30
0
10
248.10234680771831
20
91.753730773925781
30
0
0
LINE
5
528
100
AcDbEntity
8
0
100
AcDbLine
10
248.77398885786539
20
142.50000000000003
30
0
11
252.12153591215616
21
150.25053262710574
31
0
0
LINE
5
529
100
AcDbEntity
8
0
100
AcDbLine
10
252.12153591215616
20
150.25053262710574
30
0
11
250.08528865873819
21
150.25053262710574
31
0
0
LINE
5
530
100
AcDbEntity
8
0
100
AcDbLine
10
250.08528865873819
20
150.25053262710574
30
0
11
250.89552320539957
21
151.9562911987305
31
0
0
LINE
5
531
100
AcDbEntity
8
0
100
AcDbLine
10
250.89552320539957
20
151.9562911987305
30
0
11
252.85714425146585
21
151.9562911987305
31
0
0
LINE
5
532
100
AcDbEntity
8
0
100
AcDbLine
10
252.85714425146585
20
151.9562911987305
30
0
11
255.23454345762735
21
157.50000000000003
31
0
0
LINE
5
533
100
AcDbEntity
8
0
100
AcDbLine
10
255.23454345762735
20
157.50000000000003
30
0
11
259.08315695822245
21
157.50000000000003
31
0
0
LINE
5
534
100
AcDbEntity
8
0
100
AcDbLine
10
259.08315695822245
20
157.50000000000003
30
0
11
256.66311420500284
21
151.9562911987305
31
0
0
LINE
5
535
100
AcDbEntity
8
0
100
AcDbLine
10
256.66311420500284
20
151.9562911987305
30
0
11
258.95522512495523
21
151.9562911987305
31
0
0
LINE
5
536
100
AcDbEntity
8
0
100
AcDbLine
10
258.95522512495523
20
151.9562911987305
30
0
11
258.14499057829386
21
150.25053262710574
31
0
0
LINE
5
537
100
AcDbEntity
8
0
100
AcDbLine
10
258.14499057829386
20
150.25053262710574
30
0
11
256.00213326513773
21
150.25053262710574
31
0
0
LINE
5
538
100
AcDbEntity
8
0
100
AcDbLine
10
256.00213326513773
20
150.25053262710574
30
0
11
253.88059772551065
21
145.53837776184085
31
0
0
LINE
5
539
100
AcDbEntity
8
0
100
AcDbLine
10
253.88059772551065
20
145.53837776184085
30
0
11
258.56076873838907
21
145.53837776184085
31
0
0
LINE
5
540
100
AcDbEntity
8
0
100
AcDbLine
10
258.56076873838907
20
145.53837776184085
30
0
11
259.10447992384439
21
146.64711952209475
31
0
0
LINE
5
541
100
AcDbEntity
8
0
100
AcDbLine
10
259.10447992384439
20
146.64711952209475
30
0
11
261.22601427137857
21
146.64711952209475
31
0
0
LINE
5
542
100
AcDbEntity
8
0
100
AcDbLine
10
261.22601427137857
20
146.64711952209475
30
0
11
259.54157985746866
21
142.50000000000003
31
0
0
LINE
5
543
100
AcDbEntity
8
0
100
AcDbLine
10
259.54157985746866
20
142.50000000000003
30
0
11
248.77398885786536
21
142.50000000000003
31
0
0
SPLINE
5
544
100
AcDbEntity
8
0
100
AcDbSpline
70
0
71
2
72
6
73
3
74
0
42
0.000000001
43
0.0000000001
44
0.0000000001
40
0
40
0
40
0
40
1
40
1
40
1
10
248.26759316027164
20
-153.8539457321167
30
0
10
248.26759316027167
20
-150.9861421585083
30
0
10
251.1887011677027
20
-148.5234546661377
30
0
0
SPLINE
5
545
100
AcDbEntity
8
0
100
AcDbSpline
70
0
71
2
72
6
73
3
74
0
42
0.000000001
43
0.0000000001
44
0.0000000001
40
0
40
0
40
0
40
1
40
1
40
1
10
251.1887011677027
20
-148.5234546661377
30
0
10
253.65138746798041
20
-146.44456386566162
30
0
10
256.79637648165232
20
-145.60234546661377
30
0
0
LINE
5
546
100
AcDbEntity
8
0
100
AcDbLine
10
256.79637648165232
20
-145.60234546661377
30
0
11
249.5042655616999
21
-145.60234546661377
31
0
0
LINE
5
547
100
AcDbEntity
8
0
100
AcDbLine
10
249.5042655616999
20
-145.60234546661377
30
0
11
250.60234524309638
21
-142.5
31
0
0
LINE
5
548
100
AcDbEntity
8
0
100
AcDbLine
10
250.60234524309638
20
-142.5
30
0
11
261.73241056501871
21
-142.5
31
0
0
LINE
5
549
100
AcDbEntity
8
0
100
AcDbLine
10
261.73241056501871
20
-142.5
30
0
11
260.81556655466562
21
-145.53838014602661
31
0
0
SPLINE
5
550
100
AcDbEntity
8
0
100
AcDbSpline
70
0
71
2
72
6
73
3
74
0
42
0.000000001
43
0.0000000001
44
0.0000000001
40
0
40
0
40
0
40
1
40
1
40
1
10
260.81556655466562
20
-145.53838014602661
30
0
10
258.4275064617396
20
-146.50852918624878
30
0
10
255.92217661440375
20
-148.68336915969849
30
0
0
SPLINE
5
551
100
AcDbEntity
8
0
100
AcDbSpline
70
0
71
2
72
6
73
3
74
0
42
0.000000001
43
0.0000000001
44
0.0000000001
40
0
40
0
40
0
40
1
40
1
40
1
10
255.92217661440375
20
-148.68336915969849
30
0
10
252.91577912867072
20
-151.29530906677246
30
0
10
252.91577912867069
20
-153.31023454666138
30
0
0
SPLINE
5
552
100
AcDbEntity
8
0
100
AcDbSpline
70
0
71
2
72
6
73
3
74
0
42
0.000000001
43
0.0000000001
44
0.0000000001
40
0
40
0
40
0
40
1
40
1
40
1
10
252.91577912867069
20
-153.31023454666138
30
0
10
252.91577912867069
20
-155.39978742599487
30
0
10
254.52558733522892
20
-155.39978742599487
30
0
0
LINE
5
553
100
AcDbEntity
8
0
100
AcDbLine
10
254.52558733522892
20
-155.39978742599487
30
0
11
254.66418005526066
21
-155.39978742599487
31
0
0
SPLINE
5
554
100
AcDbEntity
8
0
100
AcDbSpline
70
0
71
2
72
6
73
3
74
0
42
0.000000001
43
0.0000000001
44
0.0000000001
40
0
40
0
40
0
40
1
40
1
40
1
10
254.66418005526066
20
-155.39978742599487
30
0
10
254.61087442934513
20
-155.10128021240234
30
0
10
254.61087442934513
20
-154.94136333465576
30
0
0
SPLINE
5
555
100
AcDbEntity
8
0
100
AcDbSpline
70
0
71
2
72
6
73
3
74
0
42
0.000000001
43
0.0000000001
44
0.0000000001
40
0
40
0
40
0
40
1
40
1
40
1
10
254.61087442934513
20
-154.94136333465576
30
0
10
254.61087442934513
20
-153.8539457321167
30
0
10
255.49573637545109
20
-153.10767650604248
30
0
0
SPLINE
5
556
100
AcDbEntity
8
0
100
AcDbSpline
70
0
71
2
72
6
73
3
74
0
42
0.000000001
43
0.0000000001
44
0.0000000001
40
0
40
0
40
0
40
1
40
1
40
1
10
255.49573637545109
20
-153.10767650604248
30
0
10
256.32729269564157
20
-152.39339113235474
30
0
10
257.45735742151743
20
-152.39339113235474
30
0
0
SPLINE
5
557
100
AcDbEntity
8
0
100
AcDbSpline
70
0
71
2
72
6
73
3
74
0
42
0.000000001
43
0.0000000001
44
0.0000000001
40
0
40
0
40
0
40
1
40
1
40
1
10
257.45735742151743
20
-152.39339113235474
30
0
10
258.56609918177134
20
-152.39339113235474
30
0
10
259.39765550196171
20
-153.10767650604248
30
0
0
SPLINE
5
558
100
AcDbEntity
8
0
100
AcDbSpline
70
0
71
2
72
6
73
3
74
0
42
0.000000001
43
0.0000000001
44
0.0000000001
40
0
40
0
40
0
40
1
40
1
40
1
10
259.39765550196171
20
-153.10767650604248
30
0
10
260.27185656130314
20
-153.8539457321167
30
0
10
260.27185656130314
20
-154.94136333465576
30
0
0
SPLINE
5
559
100
AcDbEntity
8
0
100
AcDbSpline
70
0
71
2
72
6
73
3
74
0
42
0.000000001
43
0.0000000001
44
0.0000000001
40
0
40
0
40
0
40
1
40
1
40
1
10
260.27185656130314
20
-154.94136333465576
30
0
10
260.27185656130314
20
-156.7217493057251
30
0
10
258.60874392092228
20
-157.34008550643921
30
0
0
SPLINE
5
560
100
AcDbEntity
8
0
100
AcDbSpline
70
0
71
2
72
6
73
3
74
0
42
0.000000001
43
0.0000000001
44
0.0000000001
40
0
40
0
40
0
40
1
40
1
40
1
10
258.60874392092228
20
-157.34008550643921
30
0
10
257.48934008181095
20
-157.76652336120605
30
0
10
254.85607840120792
20
-157.76652336120605
30
0
0
SPLINE
5
561
100
AcDbEntity
8
0
100
AcDbSpline
70
0
71
2
72
6
73
3
74
0
42
0.000000001
43
0.0000000001
44
0.0000000001
40
0
40
0
40
0
40
1
40
1
40
1
10
254.85607840120792
20
-157.76652336120605
30
0
10
252.10554458200932
20
-157.76652336120605
30
0
10
250.78358389437199
20
-157.30810165405273
30
0
0
SPLINE
5
562
100
AcDbEntity
8
0
100
AcDbSpline
70
0
71
2
72
6
73
3
74
0
42
0.000000001
43
0.0000000001
44
0.0000000001
40
0
40
0
40
0
40
1
40
1
40
1
10
250.78358389437199
20
-157.30810165405273
30
0
10
248.26759316027164
20
-156.44456386566162
30
0
10
248.26759316027164
20
-153.8539457321167
30
0
0
LINE
5
563
100
AcDbEntity
8
0
100
AcDbLine
10
248.11300843954089
20
-97.5
30
0
11
251.8017062544823
21
-92.126865386962891
31
0
0
SPLINE
5
564
100
AcDbEntity
8
0
100
AcDbSpline
70
0
71
2
72
6
73
3
74
0
42
0.000000001
43
0.0000000001
44
0.0000000001
40
0
40
0
40
0
40
1
40
1
40
1
10
251.8017062544823
20
-92.126865386962891
30
0
10
250.69296449422839
20
-91.540513038635254
30
0
10
249.91471379995349
20
-90.431771278381348
30
0
0
SPLINE
5
565
100
AcDbEntity
8
0
100
AcDbSpline
70
0
71
2
72
6
73
3
74
0
42
0.000000001
43
0.0000000001
44
0.0000000001
40
0
40
0
40
0
40
1
40
1
40
1
10
249.91471379995349
20
-90.431771278381348
30
0
10
249.07249540090564
20
-89.24839973449707
30
0
10
249.07249540090564
20
-88.065032958984375
30
0
0
SPLINE
5
566
100
AcDbEntity
8
0
100
AcDbSpline
70
0
71
2
72
6
73
3
74
0
42
0.000000001
43
0.0000000001
44
0.0000000001
40
0
40
0
40
0
40
1
40
1
40
1
10
249.07249540090564
20
-88.065032958984375
30
0
10
249.07249540090564
20
-85.549039840698242
30
0
10
250.95949023962024
20
-84.024519920349121
30
0
0
SPLINE
5
567
100
AcDbEntity
8
0
100
AcDbSpline
70
0
71
2
72
6
73
3
74
0
42
0.000000001
43
0.0000000001
44
0.0000000001
40
0
40
0
40
0
40
1
40
1
40
1
10
250.95949023962024
20
-84.024519920349121
30
0
10
252.53731340169909
20
-82.755861282348633
30
0
10
255.19189924001697
20
-82.340083122253418
30
0
0
SPLINE
5
568
100
AcDbEntity
8
0
100
AcDbSpline
70
0
71
2
72
6
73
3
74
0
42
0.000000001
43
0.0000000001
44
0.0000000001
40
0
40
0
40
0
40
1
40
1
40
1
10
255.19189924001697
20
-82.340083122253418
30
0
10
256.87633365392691
20
-82.073559761047363
30
0
10
259.05117362737661
20
-82.169508934020996
30
0
0
SPLINE
5
569
100
AcDbEntity
8
0
100
AcDbSpline
70
0
71
2
72
6
73
3
74
0
42
0.000000001
43
0.0000000001
44
0.0000000001
40
0
40
0
40
0
40
1
40
1
40
1
10
259.05117362737661
20
-82.169508934020996
30
0
10
260.18123716115957
20
-82.222814559936523
30
0
10
261.0127946734429
20
-82.937102317810059
30
0
0
SPLINE
5
570
100
AcDbEntity
8
0
100
AcDbSpline
70
0
71
2
72
6
73
3
74
0
42
0.000000001
43
0.0000000001
44
0.0000000001
40
0
40
0
40
0
40
1
40
1
40
1
10
261.0127946734429
20
-82.937102317810059
30
0
10
261.88699454069143
20
-83.694028854370117
30
0
10
261.88699454069143
20
-84.792113304138184
30
0
0
SPLINE
5
571
100
AcDbEntity
8
0
100
AcDbSpline
70
0
71
2
72
6
73
3
74
0
42
0.000000001
43
0.0000000001
44
0.0000000001
40
0
40
0
40
0
40
1
40
1
40
1
10
261.88699454069143
20
-84.792113304138184
30
0
10
261.88699454069143
20
-85.900852680206299
30
0
10
261.0127946734429
20
-86.647121906280518
30
0
0
SPLINE
5
572
100
AcDbEntity
8
0
100
AcDbSpline
70
0
71
2
72
6
73
3
74
0
42
0.000000001
43
0.0000000001
44
0.0000000001
40
0
40
0
40
0
40
1
40
1
40
1
10
261.0127946734429
20
-86.647121906280518
30
0
10
260.18123716115957
20
-87.35074520111084
30
0
10
259.07249540090567
20
-87.35074520111084
30
0
0
SPLINE
5
573
100
AcDbEntity
8
0
100
AcDbSpline
70
0
71
2
72
6
73
3
74
0
42
0.000000001
43
0.0000000001
44
0.0000000001
40
0
40
0
40
0
40
1
40
1
40
1
10
259.07249540090567
20
-87.35074520111084
30
0
10
257.94243186712271
20
-87.35074520111084
30
0
10
257.11087554693228
20
-86.647121906280518
30
0
0
SPLINE
5
574
100
AcDbEntity
8
0
100
AcDbSpline
70
0
71
2
72
6
73
3
74
0
42
0.000000001
43
0.0000000001
44
0.0000000001
40
0
40
0
40
0
40
1
40
1
40
1
10
257.11087554693228
20
-86.647121906280518
30
0
10
256.23667567968374
20
-85.900852680206299
30
0
10
256.23667567968374
20
-84.792113304138184
30
0
0
SPLINE
5
575
100
AcDbEntity
8
0
100
AcDbSpline
70
0
71
2
72
6
73
3
74
0
42
0.000000001
43
0.0000000001
44
0.0000000001
40
0
40
0
40
0
40
1
40
1
40
1
10
256.23667567968374
20
-84.792113304138184
30
0
10
256.23667567968374
20
-84.280385971069336
30
0
10
256.42857164144522
20
-83.853945732116699
30
0
0
SPLINE
5
576
100
AcDbEntity
8
0
100
AcDbSpline
70
0
71
2
72
6
73
3
74
0
42
0.000000001
43
0.0000000001
44
0.0000000001
40
0
40
0
40
0
40
1
40
1
40
1
10
256.42857164144522
20
-83.853945732116699
30
0
10
255.23454278707507
20
-83.917908668518066
30
0
10
254.4669517874718
20
-84.877398014068604
30
0
0
SPLINE
5
577
100
AcDbEntity
8
0
100
AcDbSpline
70
0
71
2
72
6
73
3
74
0
42
0.000000001
43
0.0000000001
44
0.0000000001
40
0
40
0
40
0
40
1
40
1
40
1
10
254.4669517874718
20
-84.877398014068604
30
0
10
253.72068256139758
20
-85.804903507232666
30
0
10
253.72068256139758
20
-87.105543613433838
30
0
0
SPLINE
5
578
100
AcDbEntity
8
0
100
AcDbSpline
70
0
71
2
72
6
73
3
74
0
42
0.000000001
43
0.0000000001
44
0.0000000001
40
0
40
0
40
0
40
1
40
1
40
1
10
253.72068256139758
20
-87.105543613433838
30
0
10
253.72068256139758
20
-88.619403839111328
30
0
10
255.06396621465686
20
-89.685502052307129
30
0
0
SPLINE
5
579
100
AcDbEntity
8
0
100
AcDbSpline
70
0
71
2
72
6
73
3
74
0
42
0.000000001
43
0.0000000001
44
0.0000000001
40
0
40
0
40
0
40
1
40
1
40
1
10
255.06396621465686
20
-89.685502052307129
30
0
10
256.19403213262564
20
-90.570363998413086
30
0
10
257.49466985464102
20
-90.68763256072998
30
0
0
LINE
5
580
100
AcDbEntity
8
0
100
AcDbLine
10
257.49466985464102
20
-90.68763256072998
30
0
11
254.40298646688464
21
-94.46162223815918
31
0
0
LINE
5
581
100
AcDbEntity
8
0
100
AcDbLine
10
254.40298646688464
20
-94.46162223815918
30
0
11
260.22388190031057
21
-94.46162223815918
31
0
0
LINE
5
582
100
AcDbEntity
8
0
100
AcDbLine
10
260.22388190031057
20
-94.46162223815918
30
0
11
259.05117362737661
21
-97.5
31
0
0
LINE
5
583
100
AcDbEntity
8
0
100
AcDbLine
10
259.05117362737661
20
-97.5
30
0
11
248.11300843954089
21
-97.5
31
0
0
SPLINE
5
584
100
AcDbEntity
8
0
100
AcDbSpline
70
0
71
2
72
6
73
3
74
0
42
0.000000001
43
0.0000000001
44
0.0000000001
40
0
40
0
40
0
40
1
40
1
40
1
10
-200.63965961337087
20
-257.55863666534424
30
0
10
-201.32196113467214
20
-259.83297824859619
30
0
10
-204.12224695086476
20
-259.83297824859619
30
0
0
LINE
5
585
100
AcDbEntity
8
0
100
AcDbLine
10
-204.12224695086476
20
-259.83297824859619
30
0
11
-209.50959607958791
21
-259.83297824859619
31
0
0
SPLINE
5
586
100
AcDbEntity
8
0
100
AcDbSpline
70
0
71
2
72
6
73
3
74
0
42
0.000000001
43
0.0000000001
44
0.0000000001
40
0
40
0
40
0
40
1
40
1
40
1
10
-209.50959607958791
20
-259.83297824859619
30
0
10
-211.81236669421193
20
-259.83297824859619
30
0
10
-211.81236669421193
20
-258.35465431213379
30
0
0
SPLINE
5
587
100
AcDbEntity
8
0
100
AcDbSpline
70
0
71
2
72
6
73
3
74
0
42
0.000000001
43
0.0000000001
44
0.0000000001
40
0
40
0
40
0
40
1
40
1
40
1
10
-211.81236669421193
20
-258.35465431213379
30
0
10
-213.36176320910451
20
-260.11727094650269
30
0
10
-215.62189266085622
20
-260.11727094650269
30
0
0
SPLINE
5
588
100
AcDbEntity
8
0
100
AcDbSpline
70
0
71
2
72
6
73
3
74
0
42
0.000000001
43
0.0000000001
44
0.0000000001
40
0
40
0
40
0
40
1
40
1
40
1
10
-215.62189266085622
20
-260.11727094650269
30
0
10
-217.28500530123708
20
-260.11727094650269
30
0
10
-218.32267209887502
20
-259.09381628036499
30
0
0
SPLINE
5
589
100
AcDbEntity
8
0
100
AcDbSpline
70
0
71
2
72
6
73
3
74
0
42
0.000000001
43
0.0000000001
44
0.0000000001
40
0
40
0
40
0
40
1
40
1
40
1
10
-218.32267209887502
20
-259.09381628036499
30
0
10
-219.36034128069875
20
-258.07036161422729
30
0
10
-219.36034128069875
20
-256.42146348953247
30
0
0
SPLINE
5
590
100
AcDbEntity
8
0
100
AcDbSpline
70
0
71
2
72
6
73
3
74
0
42
0.000000001
43
0.0000000001
44
0.0000000001
40
0
40
0
40
0
40
1
40
1
40
1
10
-219.36034128069875
20
-256.42146348953247
30
0
10
-219.36034128069875
20
-253.45060348510742
30
0
10
-217.08599969744679
20
-251.73063278198242
30
0
0
SPLINE
5
591
100
AcDbEntity
8
0
100
AcDbSpline
70
0
71
2
72
6
73
3
74
0
42
0.000000001
43
0.0000000001
44
0.0000000001
40
0
40
0
40
0
40
1
40
1
40
1
10
-217.08599969744679
20
-251.73063278198242
30
0
10
-215.02487584948537
20
-250.16702175140381
30
0
10
-211.98294326663014
20
-250.16702175140381
30
0
0
LINE
5
592
100
AcDbEntity
8
0
100
AcDbLine
10
-211.98294326663014
20
-250.16702175140381
30
0
11
-203.86638328433034
21
-250.16702175140381
31
0
0
LINE
5
593
100
AcDbEntity
8
0
100
AcDbLine
10
-203.86638328433034
20
-250.16702175140381
30
0
11
-206.53873607516286
21
-257.55863666534424
31
0
0
LINE
5
594
100
AcDbEntity
8
0
100
AcDbLine
10
-206.53873607516286
20
-257.55863666534424
30
0
11
-200.63965961337087
21
-257.55863666534424
31
0
0
LINE
5
595
100
AcDbEntity
8
0
100
AcDbLine
10
-209.80810329318044
20
-252.44136333465576
30
0
11
-212.9495398700237
21
-252.44136333465576
31
0
0
LINE
5
596
100
AcDbEntity
8
0
100
AcDbLine
10
-212.9495398700237
20
-252.44136333465576
30
0
11
-213.94456312060353
21
-255.75337648391724
31
0
0
SPLINE
5
597
100
AcDbEntity
8
0
100
AcDbSpline
70
0
71
2
72
6
73
3
74
0
42
0.000000001
43
0.0000000001
44
0.0000000001
40
0
40
0
40
0
40
1
40
1
40
1
10
-213.94456312060353
20
-255.75337648391724
30
0
10
-214.02985259890553
20
-256.0660982131958
30
0
10
-214.02985259890553
20
-256.32196187973022
30
0
0
SPLINE
5
598
100
AcDbEntity
8
0
100
AcDbSpline
70
0
71
2
72
6
73
3
74
0
42
0.000000001
43
0.0000000001
44
0.0000000001
40
0
40
0
40
0
40
1
40
1
40
1
10
-214.02985259890553
20
-256.32196187973022
30
0
10
-214.02985259890553
20
-257.55863666534424
30
0
10
-211.61336109042165
20
-257.55863666534424
30
0
0
LINE
5
599
100
AcDbEntity
8
0
100
AcDbLine
10
-211.61336109042165
20
-257.55863666534424
30
0
11
-209.80810329318044
21
-252.44136333465576
31
0
0
SPLINE
5
600
100
AcDbEntity
8
0
100
AcDbSpline
70
0
71
2
72
6
73
3
74
0
42
0.000000001
43
0.0000000001
44
0.0000000001
40
0
40
0
40
0
40
1
40
1
40
1
10
-137.12153409607706
20
-253.90547156333923
30
0
10
-138.05969689972696
20
-256.17981314659119
30
0
10
-140.26296590454874
20
-256.17981314659119
30
0
0
LINE
5
601
100
AcDbEntity
8
0
100
AcDbLine
10
-140.26296590454874
20
-256.17981314659119
30
0
11
-147.93887590058145
21
-256.17981314659119
31
0
0
SPLINE
5
602
100
AcDbEntity
8
0
100
AcDbSpline
70
0
71
2
72
6
73
3
74
0
42
0.000000001
43
0.0000000001
44
0.0000000001
40
0
40
0
40
0
40
1
40
1
40
1
10
-147.93887590058145
20
-256.17981314659119
30
0
10
-148.4932467807084
20
-260.2452027797699
30
0
10
-152.13219617493448
20
-262.16417908668518
30
0
0
SPLINE
5
603
100
AcDbEntity
8
0
100
AcDbSpline
70
0
71
2
72
6
73
3
74
0
42
0.000000001
43
0.0000000001
44
0.0000000001
40
0
40
0
40
0
40
1
40
1
40
1
10
-152.13219617493448
20
-262.16417908668518
30
0
10
-154.80454658158121
20
-263.57142806053162
30
0
10
-158.3724233973771
20
-263.57142806053162
30
0
0
LINE
5
604
100
AcDbEntity
8
0
100
AcDbLine
10
-158.3724233973771
20
-263.57142806053162
30
0
11
-160.95948790200052
21
-263.57142806053162
31
0
0
SPLINE
5
605
100
AcDbEntity
8
0
100
AcDbSpline
70
0
71
2
72
6
73
3
74
0
42
0.000000001
43
0.0000000001
44
0.0000000001
40
0
40
0
40
0
40
1
40
1
40
1
10
-160.95948790200052
20
-263.57142806053162
30
0
10
-161.65600513108072
20
-263.57142806053162
30
0
10
-162.1819469798356
20
-263.23027729988098
30
0
0
SPLINE
5
606
100
AcDbEntity
8
0
100
AcDbSpline
70
0
71
2
72
6
73
3
74
0
42
0.000000001
43
0.0000000001
44
0.0000000001
40
0
40
0
40
0
40
1
40
1
40
1
10
-162.1819469798356
20
-263.23027729988098
30
0
10
-162.8784642089158
20
-262.77540802955627
30
0
10
-162.8784642089158
20
-261.85145735740662
30
0
0
SPLINE
5
607
100
AcDbEntity
8
0
100
AcDbSpline
70
0
71
2
72
6
73
3
74
0
42
0.000000001
43
0.0000000001
44
0.0000000001
40
0
40
0
40
0
40
1
40
1
40
1
10
-162.8784642089158
20
-261.85145735740662
30
0
10
-162.8784642089158
20
-261.32551550865173
30
0
10
-162.65103076584634
20
-260.65742611885071
30
0
0
LINE
5
608
100
AcDbEntity
8
0
100
AcDbLine
10
-162.65103076584634
20
-260.65742611885071
30
0
11
-157.57640336640176
21
-246.42857074737549
31
0
0
LINE
5
609
100
AcDbEntity
8
0
100
AcDbLine
10
-157.57640336640176
20
-246.42857074737549
30
0
11
-152.45913003571329
21
-246.42857074737549
31
0
0
LINE
5
610
100
AcDbEntity
8
0
100
AcDbLine
10
-152.45913003571329
20
-246.42857074737549
30
0
11
-157.76119207032022
21
-261.2686550617218
31
0
0
SPLINE
5
611
100
AcDbEntity
8
0
100
AcDbSpline
70
0
71
2
72
6
73
3
74
0
42
0.000000001
43
0.0000000001
44
0.0000000001
40
0
40
0
40
0
40
1
40
1
40
1
10
-157.76119207032022
20
-261.2686550617218
30
0
10
-154.70504497177896
20
-261.33973002433777
30
0
10
-153.41151212342081
20
-258.82373690605164
30
0
0
SPLINE
5
612
100
AcDbEntity
8
0
100
AcDbSpline
70
0
71
2
72
6
73
3
74
0
42
0.000000001
43
0.0000000001
44
0.0000000001
40
0
40
0
40
0
40
1
40
1
40
1
10
-153.41151212342081
20
-258.82373690605164
30
0
10
-154.73347400315103
20
-257.99928784370422
30
0
10
-154.73347400315103
20
-256.57782435417175
30
0
0
SPLINE
5
613
100
AcDbEntity
8
0
100
AcDbSpline
70
0
71
2
72
6
73
3
74
0
42
0.000000001
43
0.0000000001
44
0.0000000001
40
0
40
0
40
0
40
1
40
1
40
1
10
-154.73347400315103
20
-256.57782435417175
30
0
10
-154.73347400315103
20
-255.46908259391785
30
0
10
-153.87348865158853
20
-254.68727707862854
30
0
0
SPLINE
5
614
100
AcDbEntity
8
0
100
AcDbSpline
70
0
71
2
72
6
73
3
74
0
42
0.000000001
43
0.0000000001
44
0.0000000001
40
0
40
0
40
0
40
1
40
1
40
1
10
-153.87348865158853
20
-254.68727707862854
30
0
10
-153.01350091584024
20
-253.90547156333923
30
0
10
-151.81947206147012
20
-253.90547156333923
30
0
0
LINE
5
615
100
AcDbEntity
8
0
100
AcDbLine
10
-151.81947206147012
20
-253.90547156333923
30
0
11
-137.12153409607706
21
-253.90547156333923
31
0
0
SPLINE
5
616
100
AcDbEntity
8
0
100
AcDbSpline
70
0
71
2
72
6
73
3
74
0
42
0.000000001
43
0.0000000001
44
0.0000000001
40
0
40
0
40
0
40
1
40
1
40
1
10
-80.902630016207667
20
-257.55863666534424
30
0
10
-81.215351745486231
20
-258.66737842559814
30
0
10
-82.210377380251856
20
-259.27860736846924
30
0
0
SPLINE
5
617
100
AcDbEntity
8
0
100
AcDbSpline
70
0
71
2
72
6
73
3
74
0
42
0.000000001
43
0.0000000001
44
0.0000000001
40
0
40
0
40
0
40
1
40
1
40
1
10
-82.210377380251856
20
-259.27860736846924
30
0
10
-83.120113536715479
20
-259.83297824859619
30
0
10
-84.328356906771631
20
-259.83297824859619
30
0
0
LINE
5
618
100
AcDbEntity
8
0
100
AcDbLine
10
-84.328356906771631
20
-259.83297824859619
30
0
11
-92.885571643710108
21
-259.83297824859619
31
0
0
SPLINE
5
619
100
AcDbEntity
8
0
100
AcDbSpline
70
0
71
2
72
6
73
3
74
0
42
0.000000001
43
0.0000000001
44
0.0000000001
40
0
40
0
40
0
40
1
40
1
40
1
10
-92.885571643710108
20
-259.83297824859619
30
0
10
-95.330492183566065
20
-259.83297824859619
30
0
10
-96.993604823946924
20
-259.00852918624878
30
0
0
SPLINE
5
620
100
AcDbEntity
8
0
100
AcDbSpline
70
0
71
2
72
6
73
3
74
0
42
0.000000001
43
0.0000000001
44
0.0000000001
40
0
40
0
40
0
40
1
40
1
40
1
10
-96.993604823946924
20
-259.00852918624878
30
0
10
-99.097372218966456
20
-257.97086000442505
30
0
10
-99.097372218966456
20
-255.88130712509155
30
0
0
SPLINE
5
621
100
AcDbEntity
8
0
100
AcDbSpline
70
0
71
2
72
6
73
3
74
0
42
0.000000001
43
0.0000000001
44
0.0000000001
40
0
40
0
40
0
40
1
40
1
40
1
10
-99.097372218966456
20
-255.88130712509155
30
0
10
-99.097372218966456
20
-255.6538724899292
30
0
10
-99.068940803408594
20
-255.4122257232666
30
0
0
SPLINE
5
622
100
AcDbEntity
8
0
100
AcDbSpline
70
0
71
2
72
6
73
3
74
0
42
0.000000001
43
0.0000000001
44
0.0000000001
40
0
40
0
40
0
40
1
40
1
40
1
10
-99.068940803408594
20
-255.4122257232666
30
0
10
-98.7846481055021
20
-252.8678035736084
30
0
10
-96.425019428133936
20
-251.43212556838989
30
0
0
SPLINE
5
623
100
AcDbEntity
8
0
100
AcDbSpline
70
0
71
2
72
6
73
3
74
0
42
0.000000001
43
0.0000000001
44
0.0000000001
40
0
40
0
40
0
40
1
40
1
40
1
10
-96.425019428133936
20
-251.43212556838989
30
0
10
-94.349681064486475
20
-250.16702175140381
30
0
10
-91.520968601107569
20
-250.16702175140381
30
0
0
LINE
5
624
100
AcDbEntity
8
0
100
AcDbLine
10
-91.520968601107569
20
-250.16702175140381
30
0
11
-87.938877269625635
21
-250.16702175140381
31
0
0
SPLINE
5
625
100
AcDbEntity
8
0
100
AcDbSpline
70
0
71
2
72
6
73
3
74
0
42
0.000000001
43
0.0000000001
44
0.0000000001
40
0
40
0
40
0
40
1
40
1
40
1
10
-87.938877269625635
20
-250.16702175140381
30
0
10
-86.730633899569483
20
-250.16702175140381
30
0
10
-85.87775342166421
20
-250.93461275100708
30
0
0
SPLINE
5
626
100
AcDbEntity
8
0
100
AcDbSpline
70
0
71
2
72
6
73
3
74
0
42
0.000000001
43
0.0000000001
44
0.0000000001
40
0
40
0
40
0
40
1
40
1
40
1
10
-85.87775342166421
20
-250.93461275100708
30
0
10
-85.024877712130518
20
-251.70220375061035
30
0
10
-85.024877712130518
20
-252.81094551086426
30
0
0
SPLINE
5
627
100
AcDbEntity
8
0
100
AcDbSpline
70
0
71
2
72
6
73
3
74
0
42
0.000000001
43
0.0000000001
44
0.0000000001
40
0
40
0
40
0
40
1
40
1
40
1
10
-85.024877712130518
20
-252.81094551086426
30
0
10
-85.024877712130518
20
-253.9339017868042
30
0
10
-85.884863063693018
20
-254.71570730209351
30
0
0
SPLINE
5
628
100
AcDbEntity
8
0
100
AcDbSpline
70
0
71
2
72
6
73
3
74
0
42
0.000000001
43
0.0000000001
44
0.0000000001
40
0
40
0
40
0
40
1
40
1
40
1
10
-85.884863063693018
20
-254.71570730209351
30
0
10
-86.744848415255518
20
-255.49751281738281
30
0
10
-87.938877269625635
20
-255.49751281738281
30
0
0
SPLINE
5
629
100
AcDbEntity
8
0
100
AcDbSpline
70
0
71
2
72
6
73
3
74
0
42
0.000000001
43
0.0000000001
44
0.0000000001
40
0
40
0
40
0
40
1
40
1
40
1
10
-87.938877269625635
20
-255.49751281738281
30
0
10
-89.147120639681788
20
-255.49751281738281
30
0
10
-89.992893859744044
20
-254.70860004425049
30
0
0
SPLINE
5
630
100
AcDbEntity
8
0
100
AcDbSpline
70
0
71
2
72
6
73
3
74
0
42
0.000000001
43
0.0000000001
44
0.0000000001
40
0
40
0
40
0
40
1
40
1
40
1
10
-89.992893859744044
20
-254.70860004425049
30
0
10
-90.838664695620508
20
-253.91968727111816
30
0
10
-90.824450179934473
20
-252.78251647949219
30
0
0
SPLINE
5
631
100
AcDbEntity
8
0
100
AcDbSpline
70
0
71
2
72
6
73
3
74
0
42
0.000000001
43
0.0000000001
44
0.0000000001
40
0
40
0
40
0
40
1
40
1
40
1
10
-90.824450179934473
20
-252.78251647949219
30
0
10
-90.824450179934473
20
-252.78251647949219
30
0
10
-90.824450179934473
20
-252.44136333465576
30
0
0
LINE
5
632
100
AcDbEntity
8
0
100
AcDbLine
10
-90.824450179934473
20
-252.44136333465576
30
0
11
-92.544420883059473
21
-252.44136333465576
31
0
0
LINE
5
633
100
AcDbEntity
8
0
100
AcDbLine
10
-92.544420883059473
20
-252.44136333465576
30
0
11
-93.653162643313379
21
-255.58279991149902
31
0
0
SPLINE
5
634
100
AcDbEntity
8
0
100
AcDbSpline
70
0
71
2
72
6
73
3
74
0
42
0.000000001
43
0.0000000001
44
0.0000000001
40
0
40
0
40
0
40
1
40
1
40
1
10
-93.653162643313379
20
-255.58279991149902
30
0
10
-93.795310184359522
20
-255.98081111907959
30
0
10
-93.795310184359522
20
-256.30774736404419
30
0
0
SPLINE
5
635
100
AcDbEntity
8
0
100
AcDbSpline
70
0
71
2
72
6
73
3
74
0
42
0.000000001
43
0.0000000001
44
0.0000000001
40
0
40
0
40
0
40
1
40
1
40
1
10
-93.795310184359522
20
-256.30774736404419
30
0
10
-93.795310184359522
20
-257.55863666534424
30
0
10
-91.819473430514307
20
-257.55863666534424
30
0
0
LINE
5
636
100
AcDbEntity
8
0
100
AcDbLine
10
-91.819473430514307
20
-257.55863666534424
30
0
11
-80.902630016207667
21
-257.55863666534424
31
0
0
SPLINE
5
637
100
AcDbEntity
8
0
100
AcDbSpline
70
0
71
2
72
6
73
3
74
0
42
0.000000001
43
0.0000000001
44
0.0000000001
40
0
40
0
40
0
40
1
40
1
40
1
10
-20.355365145951474
20
-261.3113009929657
30
0
10
-21.066098082810605
20
-263.58564257621765
30
0
10
-23.837954867631161
20
-263.58564257621765
30
0
0
LINE
5
638
100
AcDbEntity
8
0
100
AcDbLine
10
-23.837954867631161
20
-263.58564257621765
30
0
11
-29.253733027726376
21
-263.58564257621765
31
0
0
SPLINE
5
639
100
AcDbEntity
8
0
100
AcDbSpline
70
0
71
2
72
6
73
3
74
0
42
0.000000001
43
0.0000000001
44
0.0000000001
40
0
40
0
40
0
40
1
40
1
40
1
10
-29.253733027726376
20
-263.58564257621765
30
0
10
-31.599147189408505
20
-263.58564257621765
30
0
10
-31.5565036423504
20
-262.10731863975525
30
0
0
SPLINE
5
640
100
AcDbEntity
8
0
100
AcDbSpline
70
0
71
2
72
6
73
3
74
0
42
0.000000001
43
0.0000000001
44
0.0000000001
40
0
40
0
40
0
40
1
40
1
40
1
10
-31.5565036423504
20
-262.10731863975525
30
0
10
-33.120114672929013
20
-263.94100785255432
30
0
10
-35.749823916703427
20
-263.94100785255432
30
0
0
SPLINE
5
641
100
AcDbEntity
8
0
100
AcDbSpline
70
0
71
2
72
6
73
3
74
0
42
0.000000001
43
0.0000000001
44
0.0000000001
40
0
40
0
40
0
40
1
40
1
40
1
10
-35.749823916703427
20
-263.94100785255432
30
0
10
-37.469794619828427
20
-263.94100785255432
30
0
10
-38.535892833024228
20
-262.97441363334656
30
0
0
SPLINE
5
642
100
AcDbEntity
8
0
100
AcDbSpline
70
0
71
2
72
6
73
3
74
0
42
0.000000001
43
0.0000000001
44
0.0000000001
40
0
40
0
40
0
40
1
40
1
40
1
10
-38.535892833024228
20
-262.97441363334656
30
0
10
-39.644634593278134
20
-261.97938799858093
30
0
10
-39.644634593278134
20
-260.27363181114197
30
0
0
SPLINE
5
643
100
AcDbEntity
8
0
100
AcDbSpline
70
0
71
2
72
6
73
3
74
0
42
0.000000001
43
0.0000000001
44
0.0000000001
40
0
40
0
40
0
40
1
40
1
40
1
10
-39.644634593278134
20
-260.27363181114197
30
0
10
-39.644634593278134
20
-257.18905329704285
30
0
10
-37.142858374863827
20
-255.44065356254578
30
0
0
SPLINE
5
644
100
AcDbEntity
8
0
100
AcDbSpline
70
0
71
2
72
6
73
3
74
0
42
0.000000001
43
0.0000000001
44
0.0000000001
40
0
40
0
40
0
40
1
40
1
40
1
10
-37.142858374863827
20
-255.44065356254578
30
0
10
-34.939586985856259
20
-253.91968607902527
30
0
10
-31.727080214768613
20
-253.91968607902527
30
0
0
LINE
5
645
100
AcDbEntity
8
0
100
AcDbLine
10
-31.727080214768613
20
-253.91968607902527
30
0
11
-28.770434726029599
21
-253.91968607902527
31
0
0
LINE
5
646
100
AcDbEntity
8
0
100
AcDbLine
10
-28.770434726029599
20
-253.91968607902527
30
0
11
-26.112296450883115
21
-246.41435623168945
31
0
0
LINE
5
647
100
AcDbEntity
8
0
100
AcDbLine
10
-26.112296450883115
20
-246.41435623168945
30
0
11
-20.938165057450497
21
-246.41435623168945
31
0
0
LINE
5
648
100
AcDbEntity
8
0
100
AcDbLine
10
-20.938165057450497
20
-246.41435623168945
30
0
11
-26.226012576371396
21
-261.3113009929657
31
0
0
LINE
5
649
100
AcDbEntity
8
0
100
AcDbLine
10
-26.226012576371396
20
-261.3113009929657
30
0
11
-20.355365145951474
21
-261.3113009929657
31
0
0
LINE
5
650
100
AcDbEntity
8
0
100
AcDbLine
10
-29.552237857133115
20
-256.19402766227722
30
0
11
-33.162758219987118
21
-256.19402766227722
31
0
0
LINE
5
651
100
AcDbEntity
8
0
100
AcDbLine
10
-33.162758219987118
20
-256.19402766227722
30
0
11
-34.243070948868954
21
-259.25017714500427
31
0
0
SPLINE
5
652
100
AcDbEntity
8
0
100
AcDbSpline
70
0
71
2
72
6
73
3
74
0
42
0.000000001
43
0.0000000001
44
0.0000000001
40
0
40
0
40
0
40
1
40
1
40
1
10
-34.243070948868954
20
-259.25017714500427
30
0
10
-34.385216105729306
20
-259.67661738395691
30
0
10
-34.385216105729306
20
-260.01776814460754
30
0
0
SPLINE
5
653
100
AcDbEntity
8
0
100
AcDbSpline
70
0
71
2
72
6
73
3
74
0
42
0.000000001
43
0.0000000001
44
0.0000000001
40
0
40
0
40
0
40
1
40
1
40
1
10
-34.385216105729306
20
-260.01776814460754
30
0
10
-34.385216105729306
20
-260.97014784812927
30
0
10
-33.176972735673154
20
-261.2260115146637
30
0
0
SPLINE
5
654
100
AcDbEntity
8
0
100
AcDbSpline
70
0
71
2
72
6
73
3
74
0
42
0.000000001
43
0.0000000001
44
0.0000000001
40
0
40
0
40
0
40
1
40
1
40
1
10
-33.176972735673154
20
-261.2260115146637
30
0
10
-32.750532496720517
20
-261.3113009929657
30
0
10
-31.357498038560117
20
-261.3113009929657
30
0
0
LINE
5
655
100
AcDbEntity
8
0
100
AcDbLine
10
-31.357498038560117
20
-261.3113009929657
30
0
11
-29.552237857133115
21
-256.19402766227722
31
0
0
SPLINE
5
656
100
AcDbEntity
8
0
100
AcDbSpline
70
0
71
2
72
6
73
3
74
0
42
0.000000001
43
0.0000000001
44
0.0000000001
40
0
40
0
40
0
40
1
40
1
40
1
10
101.81947499513629
20
-253.90547156333923
30
0
10
101.36460572481158
20
-256.17981314659119
30
0
10
98.152096569538145
20
-256.17981314659119
30
0
0
LINE
5
657
100
AcDbEntity
8
0
100
AcDbLine
10
98.152096569538145
20
-256.17981314659119
30
0
11
88.69936019182208
21
-256.17981314659119
31
0
0
SPLINE
5
658
100
AcDbEntity
8
0
100
AcDbSpline
70
0
71
2
72
6
73
3
74
0
42
0.000000001
43
0.0000000001
44
0.0000000001
40
0
40
0
40
0
40
1
40
1
40
1
10
88.69936019182208
20
-256.17981314659119
30
0
10
90.00710755586627
20
-257.38805890083313
30
0
10
89.893389046192198
20
-260.42999148368835
30
0
0
SPLINE
5
659
100
AcDbEntity
8
0
100
AcDbSpline
70
0
71
2
72
6
73
3
74
0
42
0.000000001
43
0.0000000001
44
0.0000000001
40
0
40
0
40
0
40
1
40
1
40
1
10
89.893389046192198
20
-260.42999148368835
30
0
10
89.751243889331846
20
-264.02629733085632
30
0
10
86.055436432361631
20
-266.84079527854919
30
0
0
SPLINE
5
660
100
AcDbEntity
8
0
100
AcDbSpline
70
0
71
2
72
6
73
3
74
0
42
0.000000001
43
0.0000000001
44
0.0000000001
40
0
40
0
40
0
40
1
40
1
40
1
10
86.055436432361631
20
-266.84079527854919
30
0
10
82.729211151599912
20
-269.3852174282074
30
0
10
79.673062860965757
20
-269.2999279499054
30
0
0
SPLINE
5
661
100
AcDbEntity
8
0
100
AcDbSpline
70
0
71
2
72
6
73
3
74
0
42
0.000000001
43
0.0000000001
44
0.0000000001
40
0
40
0
40
0
40
1
40
1
40
1
10
79.673062860965757
20
-269.2999279499054
30
0
10
79.090261757373838
20
-269.28571343421936
30
0
10
78.635393679142027
20
-268.84506106376648
30
0
0
SPLINE
5
662
100
AcDbEntity
8
0
100
AcDbSpline
70
0
71
2
72
6
73
3
74
0
42
0.000000001
43
0.0000000001
44
0.0000000001
40
0
40
0
40
0
40
1
40
1
40
1
10
78.635393679142027
20
-268.84506106376648
30
0
10
78.180525600910215
20
-268.40440630912781
30
0
10
78.180525600910215
20
-267.79317736625671
30
0
0
SPLINE
5
663
100
AcDbEntity
8
0
100
AcDbSpline
70
0
71
2
72
6
73
3
74
0
42
0.000000001
43
0.0000000001
44
0.0000000001
40
0
40
0
40
0
40
1
40
1
40
1
10
78.180525600910215
20
-267.79317736625671
30
0
10
78.180525600910215
20
-267.55152821540833
30
0
10
78.280027210712461
20
-267.2956645488739
30
0
0
LINE
5
664
100
AcDbEntity
8
0
100
AcDbLine
10
78.280027210712461
20
-267.2956645488739
30
0
11
81.876331865787535
21
-257.13219523429871
31
0
0
SPLINE
5
665
100
AcDbEntity
8
0
100
AcDbSpline
70
0
71
2
72
6
73
3
74
0
42
0.000000001
43
0.0000000001
44
0.0000000001
40
0
40
0
40
0
40
1
40
1
40
1
10
81.876331865787535
20
-257.13219523429871
30
0
10
81.151385605335264
20
-256.93319201469421
30
0
10
80.653872787952452
20
-256.36460423469543
30
0
0
SPLINE
5
666
100
AcDbEntity
8
0
100
AcDbSpline
70
0
71
2
72
6
73
3
74
0
42
0.000000001
43
0.0000000001
44
0.0000000001
40
0
40
0
40
0
40
1
40
1
40
1
10
80.653872787952452
20
-256.36460423469543
30
0
10
80.085287392139463
20
-255.73916077613831
30
0
10
80.085287392139463
20
-254.92892622947693
30
0
0
SPLINE
5
667
100
AcDbEntity
8
0
100
AcDbSpline
70
0
71
2
72
6
73
3
74
0
42
0.000000001
43
0.0000000001
44
0.0000000001
40
0
40
0
40
0
40
1
40
1
40
1
10
80.085287392139463
20
-254.92892622947693
30
0
10
80.085287392139463
20
-254.43141341209412
30
0
10
80.312722027301817
20
-253.90547156333923
30
0
0
LINE
5
668
100
AcDbEntity
8
0
100
AcDbLine
10
80.312722027301817
20
-253.90547156333923
30
0
11
82.985074818134336
21
-253.90547156333923
31
0
0
LINE
5
669
100
AcDbEntity
8
0
100
AcDbLine
10
82.985074818134336
20
-253.90547156333923
30
0
11
85.64321070909503
21
-246.42857074737549
31
0
0
LINE
5
670
100
AcDbEntity
8
0
100
AcDbLine
10
85.64321070909503
20
-246.42857074737549
30
0
11
90.760484039783506
21
-246.42857074737549
31
0
0
LINE
5
671
100
AcDbEntity
8
0
100
AcDbLine
10
90.760484039783506
20
-246.42857074737549
30
0
11
87.619047462940244
21
-253.90547156333923
31
0
0
LINE
5
672
100
AcDbEntity
8
0
100
AcDbLine
10
87.619047462940244
20
-253.90547156333923
30
0
11
101.81947499513629
21
-253.90547156333923
31
0
0
SPLINE
5
673
100
AcDbEntity
8
0
100
AcDbSpline
70
0
71
2
72
6
73
3
74
0
42
0.000000001
43
0.0000000001
44
0.0000000001
40
0
40
0
40
0
40
1
40
1
40
1
10
85.700071156024961
20
-262.62615561485291
30
0
10
86.069650948047666
20
-261.53873324394226
30
0
10
86.069650948047666
20
-260.71428418159485
30
0
0
SPLINE
5
674
100
AcDbEntity
8
0
100
AcDbSpline
70
0
71
2
72
6
73
3
74
0
42
0.000000001
43
0.0000000001
44
0.0000000001
40
0
40
0
40
0
40
1
40
1
40
1
10
86.069650948047666
20
-260.71428418159485
30
0
10
86.069650948047666
20
-259.5486843585968
30
0
10
85.31627446413043
20
-258.96588444709778
30
0
0
SPLINE
5
675
100
AcDbEntity
8
0
100
AcDbSpline
70
0
71
2
72
6
73
3
74
0
42
0.000000001
43
0.0000000001
44
0.0000000001
40
0
40
0
40
0
40
1
40
1
40
1
10
85.31627446413043
20
-258.96588444709778
30
0
10
84.150674641132383
20
-261.69509530067444
30
0
10
81.677327454090147
20
-267.15351700782776
30
0
0
SPLINE
5
676
100
AcDbEntity
8
0
100
AcDbSpline
70
0
71
2
72
6
73
3
74
0
42
0.000000001
43
0.0000000001
44
0.0000000001
40
0
40
0
40
0
40
1
40
1
40
1
10
81.677327454090147
20
-267.15351700782776
30
0
10
82.828712761402159
20
-266.5565025806427
30
0
10
84.093816578388243
20
-265.10661005973816
30
0
0
SPLINE
5
677
100
AcDbEntity
8
0
100
AcDbSpline
70
0
71
2
72
6
73
3
74
0
42
0.000000001
43
0.0000000001
44
0.0000000001
40
0
40
0
40
0
40
1
40
1
40
1
10
84.093816578388243
20
-265.10661005973816
30
0
10
85.330488979816465
20
-263.71357321739197
30
0
10
85.700071156024961
20
-262.62615561485291
30
0
0
SPLINE
5
678
100
AcDbEntity
8
0
100
AcDbSpline
70
0
71
2
72
6
73
3
74
0
42
0.000000001
43
0.0000000001
44
0.0000000001
40
0
40
0
40
0
40
1
40
1
40
1
10
159.40298393368724
20
-257.55863666534424
30
0
10
158.74911144375804
20
-259.83297824859619
30
0
10
155.18123462796214
20
-259.83297824859619
30
0
0
LINE
5
679
100
AcDbEntity
8
0
100
AcDbLine
10
155.18123462796214
20
-259.83297824859619
30
0
11
152.65102937817576
21
-259.83297824859619
31
0
0
SPLINE
5
680
100
AcDbEntity
8
0
100
AcDbSpline
70
0
71
2
72
6
73
3
74
0
42
0.000000001
43
0.0000000001
44
0.0000000001
40
0
40
0
40
0
40
1
40
1
40
1
10
152.65102937817576
20
-259.83297824859619
30
0
10
151.38592556118968
20
-263.27291965484619
30
0
10
150.13503864407542
20
-264.80810165405273
30
0
0
SPLINE
5
681
100
AcDbEntity
8
0
100
AcDbSpline
70
0
71
2
72
6
73
3
74
0
42
0.000000001
43
0.0000000001
44
0.0000000001
40
0
40
0
40
0
40
1
40
1
40
1
10
150.13503864407542
20
-264.80810165405273
30
0
10
148.30134943127635
20
-267.05401420593262
30
0
10
145.48685148358348
20
-267.05401420593262
30
0
0
SPLINE
5
682
100
AcDbEntity
8
0
100
AcDbSpline
70
0
71
2
72
6
73
3
74
0
42
0.000000001
43
0.0000000001
44
0.0000000001
40
0
40
0
40
0
40
1
40
1
40
1
10
145.48685148358348
20
-267.05401420593262
30
0
10
143.8948114216328
20
-267.05401420593262
30
0
10
142.94953659176829
20
-266.16559982299805
30
0
0
SPLINE
5
683
100
AcDbEntity
8
0
100
AcDbSpline
70
0
71
2
72
6
73
3
74
0
42
0.000000001
43
0.0000000001
44
0.0000000001
40
0
40
0
40
0
40
1
40
1
40
1
10
142.94953659176829
20
-266.16559982299805
30
0
10
142.00426414608958
20
-265.27718544006348
30
0
10
142.00426414608958
20
-263.69935989379883
30
0
0
SPLINE
5
684
100
AcDbEntity
8
0
100
AcDbSpline
70
0
71
2
72
6
73
3
74
0
42
0.000000001
43
0.0000000001
44
0.0000000001
40
0
40
0
40
0
40
1
40
1
40
1
10
142.00426414608958
20
-263.69935989379883
30
0
10
142.00426414608958
20
-260.6147837638855
30
0
10
143.80952194333079
20
-259.71926212310791
30
0
0
SPLINE
5
685
100
AcDbEntity
8
0
100
AcDbSpline
70
0
71
2
72
6
73
3
74
0
42
0.000000001
43
0.0000000001
44
0.0000000001
40
0
40
0
40
0
40
1
40
1
40
1
10
143.80952194333079
20
-259.71926212310791
30
0
10
142.47334793210032
20
-259.40653800964355
30
0
10
141.60625293850902
20
-258.4825873374939
30
0
0
SPLINE
5
686
100
AcDbEntity
8
0
100
AcDbSpline
70
0
71
2
72
6
73
3
74
0
42
0.000000001
43
0.0000000001
44
0.0000000001
40
0
40
0
40
0
40
1
40
1
40
1
10
141.60625293850902
20
-258.4825873374939
30
0
10
140.59701517224315
20
-257.43070363998413
30
0
10
140.59701517224315
20
-255.93816757202148
30
0
0
SPLINE
5
687
100
AcDbEntity
8
0
100
AcDbSpline
70
0
71
2
72
6
73
3
74
0
42
0.000000001
43
0.0000000001
44
0.0000000001
40
0
40
0
40
0
40
1
40
1
40
1
10
140.59701517224315
20
-255.93816757202148
30
0
10
140.59701517224315
20
-255.35536527633667
30
0
10
140.7818038761616
20
-254.71570730209351
30
0
0
SPLINE
5
688
100
AcDbEntity
8
0
100
AcDbSpline
70
0
71
2
72
6
73
3
74
0
42
0.000000001
43
0.0000000001
44
0.0000000001
40
0
40
0
40
0
40
1
40
1
40
1
10
140.7818038761616
20
-254.71570730209351
30
0
10
141.39303520321849
20
-252.39871978759766
30
0
10
143.46837118268016
20
-251.21890544891357
30
0
0
SPLINE
5
689
100
AcDbEntity
8
0
100
AcDbSpline
70
0
71
2
72
6
73
3
74
0
42
0.000000001
43
0.0000000001
44
0.0000000001
40
0
40
0
40
0
40
1
40
1
40
1
10
143.46837118268016
20
-251.21890544891357
30
0
10
145.2878458797932
20
-250.16702175140381
30
0
10
147.84648254513743
20
-250.16702175140381
30
0
0
LINE
5
690
100
AcDbEntity
8
0
100
AcDbLine
10
147.84648254513743
20
-250.16702175140381
30
0
11
155.97725704312327
21
-250.16702175140381
31
0
0
LINE
5
691
100
AcDbEntity
8
0
100
AcDbLine
10
155.97725704312327
20
-250.16702175140381
30
0
11
153.37597683072093
21
-257.55863666534424
31
0
0
LINE
5
692
100
AcDbEntity
8
0
100
AcDbLine
10
153.37597683072093
20
-257.55863666534424
30
0
11
159.40298393368724
21
-257.55863666534424
31
0
0
LINE
5
693
100
AcDbEntity
8
0
100
AcDbLine
10
150.03553703427318
20
-252.44136571884155
30
0
11
147.0078165829182
21
-252.44136571884155
31
0
0
LINE
5
694
100
AcDbEntity
8
0
100
AcDbLine
10
147.0078165829182
20
-252.44136571884155
30
0
11
145.87064579129222
21
-256.05188369750977
31
0
0
SPLINE
5
695
100
AcDbEntity
8
0
100
AcDbSpline
70
0
71
2
72
6
73
3
74
0
42
0.000000001
43
0.0000000001
44
0.0000000001
40
0
40
0
40
0
40
1
40
1
40
1
10
145.87064579129222
20
-256.05188369750977
30
0
10
145.77114418148997
20
-256.37881994247437
30
0
10
145.77114418148997
20
-256.64889812469482
30
0
0
SPLINE
5
696
100
AcDbEntity
8
0
100
AcDbSpline
70
0
71
2
72
6
73
3
74
0
42
0.000000001
43
0.0000000001
44
0.0000000001
40
0
40
0
40
0
40
1
40
1
40
1
10
145.77114418148997
20
-256.64889812469482
30
0
10
145.77114418148997
20
-257.85714387893677
30
0
10
147.53375843167308
20
-257.85714387893677
30
0
0
SPLINE
5
697
100
AcDbEntity
8
0
100
AcDbSpline
70
0
71
2
72
6
73
3
74
0
42
0.000000001
43
0.0000000001
44
0.0000000001
40
0
40
0
40
0
40
1
40
1
40
1
10
147.53375843167308
20
-257.85714387893677
30
0
10
147.64747694134715
20
-257.85714387893677
30
0
10
147.86780431866649
20
-257.84292697906494
30
0
0
SPLINE
5
698
100
AcDbEntity
8
0
100
AcDbSpline
70
0
71
2
72
6
73
3
74
0
42
0.000000001
43
0.0000000001
44
0.0000000001
40
0
40
0
40
0
40
1
40
1
40
1
10
147.86780431866649
20
-257.84292697906494
30
0
10
148.08812931180003
20
-257.82871246337891
30
0
10
148.2018478214741
20
-257.82871246337891
30
0
0
LINE
5
699
100
AcDbEntity
8
0
100
AcDbLine
10
148.2018478214741
20
-257.82871246337891
30
0
11
150.03553703427318
21
-252.44136571884155
31
0
0
SPLINE
5
700
100
AcDbEntity
8
0
100
AcDbSpline
70
0
71
2
72
6
73
3
74
0
42
0.000000001
43
0.0000000001
44
0.0000000001
40
0
40
0
40
0
40
1
40
1
40
1
10
147.53375843167308
20
-260.21677494049072
30
0
10
146.60980775952342
20
-260.21677494049072
30
0
10
145.80668047070506
20
-261.27576351165771
30
0
0
SPLINE
5
701
100
AcDbEntity
8
0
100
AcDbSpline
70
0
71
2
72
6
73
3
74
0
42
0.000000001
43
0.0000000001
44
0.0000000001
40
0
40
0
40
0
40
1
40
1
40
1
10
145.80668047070506
20
-261.27576351165771
30
0
10
145.0035531818867
20
-262.3347544670105
30
0
10
145.0035531818867
20
-263.38664054870605
30
0
0
SPLINE
5
702
100
AcDbEntity
8
0
100
AcDbSpline
70
0
71
2
72
6
73
3
74
0
42
0.000000001
43
0.0000000001
44
0.0000000001
40
0
40
0
40
0
40
1
40
1
40
1
10
145.0035531818867
20
-263.38664054870605
30
0
10
145.0035531818867
20
-264.32480335235596
30
0
10
145.81378772854808
20
-264.89338874816895
30
0
0
LINE
5
703
100
AcDbEntity
8
0
100
AcDbLine
10
145.81378772854808
20
-264.89338874816895
30
0
11
147.53375843167308
21
-260.21677494049072
31
0
0
SPLINE
5
704
100
AcDbEntity
8
0
100
AcDbSpline
70
0
71
2
72
6
73
3
74
0
42
0.000000001
43
0.0000000001
44
0.0000000001
40
0
40
0
40
0
40
1
40
1
40
1
10
39.182657822966611
20
-257.55863666534424
30
0
10
38.884150609374082
20
-258.65316390991211
30
0
10
37.818052396178281
20
-259.27860736846924
30
0
0
SPLINE
5
705
100
AcDbEntity
8
0
100
AcDbSpline
70
0
71
2
72
6
73
3
74
0
42
0.000000001
43
0.0000000001
44
0.0000000001
40
0
40
0
40
0
40
1
40
1
40
1
10
37.818052396178281
20
-259.27860736846924
30
0
10
36.865672692656553
20
-259.83297824859619
30
0
10
35.643212422728574
20
-259.83297824859619
30
0
0
LINE
5
706
100
AcDbEntity
8
0
100
AcDbLine
10
35.643212422728574
20
-259.83297824859619
30
0
11
27.725658044219053
21
-259.83297824859619
31
0
0
SPLINE
5
707
100
AcDbEntity
8
0
100
AcDbSpline
70
0
71
2
72
6
73
3
74
0
42
0.000000001
43
0.0000000001
44
0.0000000001
40
0
40
0
40
0
40
1
40
1
40
1
10
27.725658044219053
20
-259.83297824859619
30
0
10
20.8173414319754
20
-259.83297824859619
30
0
10
20.8173414319754
20
-255.66808700561523
30
0
0
SPLINE
5
708
100
AcDbEntity
8
0
100
AcDbSpline
70
0
71
2
72
6
73
3
74
0
42
0.000000001
43
0.0000000001
44
0.0000000001
40
0
40
0
40
0
40
1
40
1
40
1
10
20.8173414319754
20
-255.66808700561523
30
0
10
20.8173414319754
20
-252.99573659896851
30
0
10
23.176972493529355
20
-251.474769115448
30
0
0
SPLINE
5
709
100
AcDbEntity
8
0
100
AcDbSpline
70
0
71
2
72
6
73
3
74
0
42
0.000000001
43
0.0000000001
44
0.0000000001
40
0
40
0
40
0
40
1
40
1
40
1
10
23.176972493529355
20
-251.474769115448
30
0
10
25.20966492593292
20
-250.16702175140381
30
0
10
28.009950742125547
20
-250.16702175140381
30
0
0
LINE
5
710
100
AcDbEntity
8
0
100
AcDbLine
10
28.009950742125547
20
-250.16702175140381
30
0
11
30.071072205901181
21
-250.16702175140381
31
0
0
SPLINE
5
711
100
AcDbEntity
8
0
100
AcDbSpline
70
0
71
2
72
6
73
3
74
0
42
0.000000001
43
0.0000000001
44
0.0000000001
40
0
40
0
40
0
40
1
40
1
40
1
10
30.071072205901181
20
-250.16702175140381
30
0
10
31.876332387328183
20
-250.16702175140381
30
0
10
33.240937814116513
20
-250.72139263153076
30
0
0
SPLINE
5
712
100
AcDbEntity
8
0
100
AcDbSpline
70
0
71
2
72
6
73
3
74
0
42
0.000000001
43
0.0000000001
44
0.0000000001
40
0
40
0
40
0
40
1
40
1
40
1
10
33.240937814116513
20
-250.72139263153076
30
0
10
35.060412511229551
20
-251.46055459976196
30
0
10
35.145699605345762
20
-252.96730518341064
30
0
0
SPLINE
5
713
100
AcDbEntity
8
0
100
AcDbSpline
70
0
71
2
72
6
73
3
74
0
42
0.000000001
43
0.0000000001
44
0.0000000001
40
0
40
0
40
0
40
1
40
1
40
1
10
35.145699605345762
20
-252.96730518341064
30
0
10
35.216774567961728
20
-254.48827266693115
30
0
10
33.681592568755185
20
-255.49751281738281
30
0
0
LINE
5
714
100
AcDbEntity
8
0
100
AcDbLine
10
33.681592568755185
20
-255.49751281738281
30
0
11
28.97654496133331
21
-255.49751281738281
31
0
0
LINE
5
715
100
AcDbEntity
8
0
100
AcDbLine
10
28.97654496133331
20
-255.49751281738281
30
0
11
30.511726960539853
21
-252.44136333465576
31
0
0
LINE
5
716
100
AcDbEntity
8
0
100
AcDbLine
10
30.511726960539853
20
-252.44136333465576
30
0
11
27.512437924742734
21
-252.44136333465576
31
0
0
LINE
5
717
100
AcDbEntity
8
0
100
AcDbLine
10
27.512437924742734
20
-252.44136333465576
30
0
11
26.346838101744687
21
-255.86709260940552
31
0
0
SPLINE
5
718
100
AcDbEntity
8
0
100
AcDbSpline
70
0
71
2
72
6
73
3
74
0
42
0.000000001
43
0.0000000001
44
0.0000000001
40
0
40
0
40
0
40
1
40
1
40
1
10
26.346838101744687
20
-255.86709260940552
30
0
10
26.24733410775665
20
-256.16559982299805
30
0
10
26.24733410775665
20
-256.40724897384644
30
0
0
SPLINE
5
719
100
AcDbEntity
8
0
100
AcDbSpline
70
0
71
2
72
6
73
3
74
0
42
0.000000001
43
0.0000000001
44
0.0000000001
40
0
40
0
40
0
40
1
40
1
40
1
10
26.24733410775665
20
-256.40724897384644
30
0
10
26.24733410775665
20
-257.55863666534424
30
0
10
28.095237836241758
20
-257.55863666534424
30
0
0
LINE
5
720
100
AcDbEntity
8
0
100
AcDbLine
10
28.095237836241758
20
-257.55863666534424
30
0
11
39.182657822966611
21
-257.55863666534424
31
0
0
SPLINE
5
721
100
AcDbEntity
8
0
100
AcDbSpline
70
0
71
2
72
6
73
3
74
0
42
0.000000001
43
0.0000000001
44
0.0000000001
40
0
40
0
40
0
40
1
40
1
40
1
10
220.1421454548836
20
-261.3113009929657
30
0
10
219.7725656628609
20
-262.56218791007996
30
0
10
218.56432229280475
20
-263.15920233726501
30
0
0
SPLINE
5
722
100
AcDbEntity
8
0
100
AcDbSpline
70
0
71
2
72
6
73
3
74
0
42
0.000000001
43
0.0000000001
44
0.0000000001
40
0
40
0
40
0
40
1
40
1
40
1
10
218.56432229280475
20
-263.15920233726501
30
0
10
217.69722729921344
20
-263.58564257621765
30
0
10
216.70220166444781
20
-263.58564257621765
30
0
0
LINE
5
723
100
AcDbEntity
8
0
100
AcDbLine
10
216.70220166444781
20
-263.58564257621765
30
0
11
210.64676553010943
21
-263.58564257621765
31
0
0
SPLINE
5
724
100
AcDbEntity
8
0
100
AcDbSpline
70
0
71
2
72
6
73
3
74
0
42
0.000000001
43
0.0000000001
44
0.0000000001
40
0
40
0
40
0
40
1
40
1
40
1
10
210.64676553010943
20
-263.58564257621765
30
0
10
209.04051095247272
20
-263.58564257621765
30
0
10
209.04051095247272
20
-262.4200427532196
30
0
0
SPLINE
5
725
100
AcDbEntity
8
0
100
AcDbSpline
70
0
71
2
72
6
73
3
74
0
42
0.000000001
43
0.0000000001
44
0.0000000001
40
0
40
0
40
0
40
1
40
1
40
1
10
209.04051095247272
20
-262.4200427532196
30
0
10
209.04051095247272
20
-261.9651734828949
30
0
10
209.25372868776324
20
-261.3113009929657
30
0
0
LINE
5
726
100
AcDbEntity
8
0
100
AcDbLine
10
209.25372868776324
20
-261.3113009929657
30
0
11
210.27718335390094
21
-258.28358054161072
31
0
0
LINE
5
727
100
AcDbEntity
8
0
100
AcDbLine
10
210.27718335390094
20
-258.28358054161072
30
0
11
204.88983660936358
21
-262.71854996681213
31
0
0
SPLINE
5
728
100
AcDbEntity
8
0
100
AcDbSpline
70
0
71
2
72
6
73
3
74
0
42
0.000000001
43
0.0000000001
44
0.0000000001
40
0
40
0
40
0
40
1
40
1
40
1
10
204.88983660936358
20
-262.71854996681213
30
0
10
203.89481097459796
20
-263.58564257621765
30
0
10
202.78606921434405
20
-263.58564257621765
30
0
0
LINE
5
729
100
AcDbEntity
8
0
100
AcDbLine
10
202.78606921434405
20
-263.58564257621765
30
0
11
199.85785275697711
21
-263.58564257621765
31
0
0
LINE
5
730
100
AcDbEntity
8
0
100
AcDbLine
10
199.85785275697711
20
-263.58564257621765
30
0
11
205.94171792268756
21
-246.41435623168945
31
0
0
LINE
5
731
100
AcDbEntity
8
0
100
AcDbLine
10
205.94171792268756
20
-246.41435623168945
30
0
11
211.05899125337604
21
-246.41435623168945
31
0
0
LINE
5
732
100
AcDbEntity
8
0
100
AcDbLine
10
211.05899125337604
20
-246.41435623168945
30
0
11
206.7803838849068
21
-258.49680066108704
31
0
0
LINE
5
733
100
AcDbEntity
8
0
100
AcDbLine
10
206.7803838849068
20
-258.49680066108704
30
0
11
211.11584931612018
21
-254.94314074516296
31
0
0
SPLINE
5
734
100
AcDbEntity
8
0
100
AcDbSpline
70
0
71
2
72
6
73
3
74
0
42
0.000000001
43
0.0000000001
44
0.0000000001
40
0
40
0
40
0
40
1
40
1
40
1
10
211.11584931612018
20
-254.94314074516296
30
0
10
212.79317647218707
20
-253.5643208026886
30
0
10
214.92537289857867
20
-253.5643208026886
30
0
0
SPLINE
5
735
100
AcDbEntity
8
0
100
AcDbSpline
70
0
71
2
72
6
73
3
74
0
42
0.000000001
43
0.0000000001
44
0.0000000001
40
0
40
0
40
0
40
1
40
1
40
1
10
214.92537289857867
20
-253.5643208026886
30
0
10
216.34683638811114
20
-253.5643208026886
30
0
10
216.34683638811114
20
-255.01421332359314
30
0
0
SPLINE
5
736
100
AcDbEntity
8
0
100
AcDbSpline
70
0
71
2
72
6
73
3
74
0
42
0.000000001
43
0.0000000001
44
0.0000000001
40
0
40
0
40
0
40
1
40
1
40
1
10
216.34683638811114
20
-255.01421332359314
30
0
10
216.34683638811114
20
-255.54015517234802
30
0
10
216.09097272157672
20
-256.22245907783508
30
0
0
LINE
5
737
100
AcDbEntity
8
0
100
AcDbLine
10
216.09097272157672
20
-256.22245907783508
30
0
11
214.28571492433551
21
-261.3113009929657
31
0
0
LINE
5
738
100
AcDbEntity
8
0
100
AcDbLine
10
214.28571492433551
20
-261.3113009929657
30
0
11
220.1421454548836
21
-261.3113009929657
31
0
0
SPLINE
5
739
100
AcDbEntity
8
0
100
AcDbSpline
70
0
71
2
72
6
73
3
74
0
42
0.000000001
43
0.0000000001
44
0.0000000001
40
0
40
0
40
0
40
1
40
1
40
1
10
199.85785365104675
20
261.02700829505926
30
0
10
200.22743344306946
20
262.27789521217352
30
0
10
201.43567681312561
20
262.87490963935858
30
0
0
SPLINE
5
740
100
AcDbEntity
8
0
100
AcDbSpline
70
0
71
2
72
6
73
3
74
0
42
0.000000001
43
0.0000000001
44
0.0000000001
40
0
40
0
40
0
40
1
40
1
40
1
10
201.43567681312561
20
262.87490963935858
30
0
10
202.30277180671692
20
263.30134987831121
30
0
10
203.29779744148254
20
263.30134987831121
30
0
0
LINE
5
741
100
AcDbEntity
8
0
100
AcDbLine
10
203.29779744148254
20
263.30134987831121
30
0
11
209.35323357582092
21
263.30134987831121
31
0
0
SPLINE
5
742
100
AcDbEntity
8
0
100
AcDbSpline
70
0
71
2
72
6
73
3
74
0
42
0.000000001
43
0.0000000001
44
0.0000000001
40
0
40
0
40
0
40
1
40
1
40
1
10
209.35323357582092
20
263.30134987831121
30
0
10
210.95948815345764
20
263.30134987831121
30
0
10
210.95948815345764
20
262.13575005531317
30
0
0
SPLINE
5
743
100
AcDbEntity
8
0
100
AcDbSpline
70
0
71
2
72
6
73
3
74
0
42
0.000000001
43
0.0000000001
44
0.0000000001
40
0
40
0
40
0
40
1
40
1
40
1
10
210.95948815345764
20
262.13575005531317
30
0
10
210.95948815345764
20
261.68088078498846
30
0
10
210.74627041816711
20
261.02700829505926
30
0
0
LINE
5
744
100
AcDbEntity
8
0
100
AcDbLine
10
210.74627041816711
20
261.02700829505926
30
0
11
209.72281575202942
21
257.99928784370428
31
0
0
LINE
5
745
100
AcDbEntity
8
0
100
AcDbLine
10
209.72281575202942
20
257.99928784370428
30
0
11
215.11016249656677
21
262.4342572689057
31
0
0
SPLINE
5
746
100
AcDbEntity
8
0
100
AcDbSpline
70
0
71
2
72
6
73
3
74
0
42
0.000000001
43
0.0000000001
44
0.0000000001
40
0
40
0
40
0
40
1
40
1
40
1
10
215.11016249656677
20
262.4342572689057
30
0
10
216.1051881313324
20
263.30134987831121
30
0
10
217.2139298915863
20
263.30134987831121
30
0
0
LINE
5
747
100
AcDbEntity
8
0
100
AcDbLine
10
217.2139298915863
20
263.30134987831121
30
0
11
220.14214634895325
21
263.30134987831121
31
0
0
LINE
5
748
100
AcDbEntity
8
0
100
AcDbLine
10
220.14214634895325
20
263.30134987831121
30
0
11
214.0582811832428
21
246.13006353378302
31
0
0
LINE
5
749
100
AcDbEntity
8
0
100
AcDbLine
10
214.0582811832428
20
246.13006353378302
30
0
11
208.94100785255432
21
246.13006353378302
31
0
0
LINE
5
750
100
AcDbEntity
8
0
100
AcDbLine
10
208.94100785255432
20
246.13006353378302
30
0
11
213.21961522102356
21
258.2125079631806
31
0
0
LINE
5
751
100
AcDbEntity
8
0
100
AcDbLine
10
213.21961522102356
20
258.2125079631806
30
0
11
208.88414978981018
21
254.65884804725653
31
0
0
SPLINE
5
752
100
AcDbEntity
8
0
100
AcDbSpline
70
0
71
2
72
6
73
3
74
0
42
0.000000001
43
0.0000000001
44
0.0000000001
40
0
40
0
40
0
40
1
40
1
40
1
10
208.88414978981018
20
254.65884804725653
30
0
10
207.20682263374329
20
253.28002810478216
30
0
10
205.07462620735168
20
253.28002810478216
30
0
0
SPLINE
5
753
100
AcDbEntity
8
0
100
AcDbSpline
70
0
71
2
72
6
73
3
74
0
42
0.000000001
43
0.0000000001
44
0.0000000001
40
0
40
0
40
0
40
1
40
1
40
1
10
205.07462620735168
20
253.28002810478216
30
0
10
203.65316271781921
20
253.28002810478216
30
0
10
203.65316271781921
20
254.7299206256867
30
0
0
SPLINE
5
754
100
AcDbEntity
8
0
100
AcDbSpline
70
0
71
2
72
6
73
3
74
0
42
0.000000001
43
0.0000000001
44
0.0000000001
40
0
40
0
40
0
40
1
40
1
40
1
10
203.65316271781921
20
254.7299206256867
30
0
10
203.65316271781921
20
255.25586247444159
30
0
10
203.90902638435364
20
255.93816637992865
30
0
0
LINE
5
755
100
AcDbEntity
8
0
100
AcDbLine
10
203.90902638435364
20
255.93816637992865
30
0
11
205.71428418159485
21
261.02700829505926
31
0
0
LINE
5
756
100
AcDbEntity
8
0
100
AcDbLine
10
205.71428418159485
20
261.02700829505926
30
0
11
199.85785365104675
21
261.02700829505926
31
0
0
SPLINE
5
757
100
AcDbEntity
8
0
100
AcDbSpline
70
0
71
2
72
6
73
3
74
0
42
0.000000001
43
0.0000000001
44
0.0000000001
40
0
40
0
40
0
40
1
40
1
40
1
10
140.59701517224312
20
257.2743439674378
30
0
10
141.25088766217232
20
259.54868555068975
30
0
10
144.81876447796822
20
259.54868555068975
30
0
0
LINE
5
758
100
AcDbEntity
8
0
100
AcDbLine
10
144.81876447796822
20
259.54868555068975
30
0
11
147.34896972775459
21
259.54868555068975
31
0
0
SPLINE
5
759
100
AcDbEntity
8
0
100
AcDbSpline
70
0
71
2
72
6
73
3
74
0
42
0.000000001
43
0.0000000001
44
0.0000000001
40
0
40
0
40
0
40
1
40
1
40
1
10
147.34896972775459
20
259.54868555068975
30
0
10
148.61407354474068
20
262.98862695693975
30
0
10
149.86496046185493
20
264.5238089561463
30
0
0
SPLINE
5
760
100
AcDbEntity
8
0
100
AcDbSpline
70
0
71
2
72
6
73
3
74
0
42
0.000000001
43
0.0000000001
44
0.0000000001
40
0
40
0
40
0
40
1
40
1
40
1
10
149.86496046185493
20
264.5238089561463
30
0
10
151.69864967465401
20
266.76972150802618
30
0
10
154.51314762234688
20
266.76972150802618
30
0
0
SPLINE
5
761
100
AcDbEntity
8
0
100
AcDbSpline
70
0
71
2
72
6
73
3
74
0
42
0.000000001
43
0.0000000001
44
0.0000000001
40
0
40
0
40
0
40
1
40
1
40
1
10
154.51314762234688
20
266.76972150802618
30
0
10
156.10518768429756
20
266.76972150802618
30
0
10
157.05046251416206
20
265.88130712509161
30
0
0
SPLINE
5
762
100
AcDbEntity
8
0
100
AcDbSpline
70
0
71
2
72
6
73
3
74
0
42
0.000000001
43
0.0000000001
44
0.0000000001
40
0
40
0
40
0
40
1
40
1
40
1
10
157.05046251416206
20
265.88130712509161
30
0
10
157.99573495984077
20
264.99289274215704
30
0
10
157.99573495984077
20
263.41506719589239
30
0
0
SPLINE
5
763
100
AcDbEntity
8
0
100
AcDbSpline
70
0
71
2
72
6
73
3
74
0
42
0.000000001
43
0.0000000001
44
0.0000000001
40
0
40
0
40
0
40
1
40
1
40
1
10
157.99573495984077
20
263.41506719589239
30
0
10
157.99573495984077
20
260.33049106597906
30
0
10
156.19047716259956
20
259.43496942520147
30
0
0
SPLINE
5
764
100
AcDbEntity
8
0
100
AcDbSpline
70
0
71
2
72
6
73
3
74
0
42
0.000000001
43
0.0000000001
44
0.0000000001
40
0
40
0
40
0
40
1
40
1
40
1
10
156.19047716259956
20
259.43496942520147
30
0
10
157.52665117383003
20
259.12224531173712
30
0
10
158.39374616742134
20
258.19829463958746
30
0
0
SPLINE
5
765
100
AcDbEntity
8
0
100
AcDbSpline
70
0
71
2
72
6
73
3
74
0
42
0.000000001
43
0.0000000001
44
0.0000000001
40
0
40
0
40
0
40
1
40
1
40
1
10
158.39374616742134
20
258.19829463958746
30
0
10
159.40298393368721
20
257.14641094207769
30
0
10
159.40298393368721
20
255.65387487411505
30
0
0
SPLINE
5
766
100
AcDbEntity
8
0
100
AcDbSpline
70
0
71
2
72
6
73
3
74
0
42
0.000000001
43
0.0000000001
44
0.0000000001
40
0
40
0
40
0
40
1
40
1
40
1
10
159.40298393368721
20
255.65387487411505
30
0
10
159.40298393368721
20
255.07107257843023
30
0
10
159.21819522976875
20
254.43141460418707
30
0
0
SPLINE
5
767
100
AcDbEntity
8
0
100
AcDbSpline
70
0
71
2
72
6
73
3
74
0
42
0.000000001
43
0.0000000001
44
0.0000000001
40
0
40
0
40
0
40
1
40
1
40
1
10
159.21819522976875
20
254.43141460418707
30
0
10
158.60696390271187
20
252.11442708969122
30
0
10
156.5316279232502
20
250.93461275100714
30
0
0
SPLINE
5
768
100
AcDbEntity
8
0
100
AcDbSpline
70
0
71
2
72
6
73
3
74
0
42
0.000000001
43
0.0000000001
44
0.0000000001
40
0
40
0
40
0
40
1
40
1
40
1
10
156.5316279232502
20
250.93461275100714
30
0
10
154.71215322613716
20
249.88272905349737
30
0
10
152.15351656079292
20
249.88272905349737
30
0
0
LINE
5
769
100
AcDbEntity
8
0
100
AcDbLine
10
152.15351656079292
20
249.88272905349737
30
0
11
144.02274206280708
21
249.88272905349737
31
0
0
LINE
5
770
100
AcDbEntity
8
0
100
AcDbLine
10
144.02274206280708
20
249.88272905349734
30
0
11
146.62402227520943
21
257.2743439674378
31
0
0
LINE
5
771
100
AcDbEntity
8
0
100
AcDbLine
10
146.62402227520943
20
257.2743439674378
30
0
11
140.59701517224312
21
257.2743439674378
31
0
0
LINE
5
772
100
AcDbEntity
8
0
100
AcDbLine
10
149.96446207165718
20
252.15707302093512
30
0
11
152.99218252301216
21
252.15707302093512
31
0
0
LINE
5
773
100
AcDbEntity
8
0
100
AcDbLine
10
152.99218252301216
20
252.15707302093512
30
0
11
154.12935331463814
21
255.76759099960333
31
0
0
SPLINE
5
774
100
AcDbEntity
8
0
100
AcDbSpline
70
0
71
2
72
6
73
3
74
0
42
0.000000001
43
0.0000000001
44
0.0000000001
40
0
40
0
40
0
40
1
40
1
40
1
10
154.12935331463814
20
255.76759099960333
30
0
10
154.22885492444038
20
256.09452724456793
30
0
10
154.22885492444038
20
256.36460542678839
30
0
0
SPLINE
5
775
100
AcDbEntity
8
0
100
AcDbSpline
70
0
71
2
72
6
73
3
74
0
42
0.000000001
43
0.0000000001
44
0.0000000001
40
0
40
0
40
0
40
1
40
1
40
1
10
154.22885492444038
20
256.36460542678839
30
0
10
154.22885492444038
20
257.57285118103033
30
0
10
152.46624067425728
20
257.57285118103033
30
0
0
SPLINE
5
776
100
AcDbEntity
8
0
100
AcDbSpline
70
0
71
2
72
6
73
3
74
0
42
0.000000001
43
0.0000000001
44
0.0000000001
40
0
40
0
40
0
40
1
40
1
40
1
10
152.46624067425728
20
257.57285118103033
30
0
10
152.35252216458321
20
257.57285118103033
30
0
10
152.13219478726387
20
257.5586342811585
30
0
0
SPLINE
5
777
100
AcDbEntity
8
0
100
AcDbSpline
70
0
71
2
72
6
73
3
74
0
42
0.000000001
43
0.0000000001
44
0.0000000001
40
0
40
0
40
0
40
1
40
1
40
1
10
152.13219478726387
20
257.5586342811585
30
0
10
151.91186979413033
20
257.54441976547247
30
0
10
151.79815128445625
20
257.54441976547247
30
0
0
LINE
5
778
100
AcDbEntity
8
0
100
AcDbLine
10
151.79815128445625
20
257.54441976547247
30
0
11
149.96446207165718
21
252.15707302093512
31
0
0
SPLINE
5
779
100
AcDbEntity
8
0
100
AcDbSpline
70
0
71
2
72
6
73
3
74
0
42
0.000000001
43
0.0000000001
44
0.0000000001
40
0
40
0
40
0
40
1
40
1
40
1
10
152.46624067425728
20
259.93248224258429
30
0
10
153.39019134640694
20
259.93248224258429
30
0
10
154.1933186352253
20
260.99147081375128
30
0
0
SPLINE
5
780
100
AcDbEntity
8
0
100
AcDbSpline
70
0
71
2
72
6
73
3
74
0
42
0.000000001
43
0.0000000001
44
0.0000000001
40
0
40
0
40
0
40
1
40
1
40
1
10
154.1933186352253
20
260.99147081375128
30
0
10
154.99644592404366
20
262.05046176910406
30
0
10
154.99644592404366
20
263.10234785079962
30
0
0
SPLINE
5
781
100
AcDbEntity
8
0
100
AcDbSpline
70
0
71
2
72
6
73
3
74
0
42
0.000000001
43
0.0000000001
44
0.0000000001
40
0
40
0
40
0
40
1
40
1
40
1
10
154.99644592404366
20
263.10234785079962
30
0
10
154.99644592404366
20
264.04051065444952
30
0
10
154.18621137738228
20
264.60909605026251
30
0
0
LINE
5
782
100
AcDbEntity
8
0
100
AcDbLine
10
154.18621137738228
20
264.60909605026251
30
0
11
152.46624067425728
21
259.93248224258429
31
0
0
SPLINE
5
783
100
AcDbEntity
8
0
100
AcDbSpline
70
0
71
2
72
6
73
3
74
0
42
0.000000001
43
0.0000000001
44
0.0000000001
40
0
40
0
40
0
40
1
40
1
40
1
10
78.180524110794067
20
253.62117886543277
30
0
10
78.635393381118774
20
255.89552044868472
30
0
10
81.847902536392212
20
255.89552044868472
30
0
0
LINE
5
784
100
AcDbEntity
8
0
100
AcDbLine
10
81.847902536392212
20
255.89552044868472
30
0
11
91.300638914108276
21
255.89552044868472
31
0
0
SPLINE
5
785
100
AcDbEntity
8
0
100
AcDbSpline
70
0
71
2
72
6
73
3
74
0
42
0.000000001
43
0.0000000001
44
0.0000000001
40
0
40
0
40
0
40
1
40
1
40
1
10
91.300638914108276
20
255.89552044868472
30
0
10
89.992891550064087
20
257.10376620292669
30
0
10
90.106610059738159
20
260.14569878578192
30
0
0
SPLINE
5
786
100
AcDbEntity
8
0
100
AcDbSpline
70
0
71
2
72
6
73
3
74
0
42
0.000000001
43
0.0000000001
44
0.0000000001
40
0
40
0
40
0
40
1
40
1
40
1
10
90.106610059738159
20
260.14569878578192
30
0
10
90.248755216598511
20
263.74200463294989
30
0
10
93.944562673568726
20
266.55650258064276
30
0
0
SPLINE
5
787
100
AcDbEntity
8
0
100
AcDbSpline
70
0
71
2
72
6
73
3
74
0
42
0.000000001
43
0.0000000001
44
0.0000000001
40
0
40
0
40
0
40
1
40
1
40
1
10
93.944562673568726
20
266.55650258064276
30
0
10
97.270787954330444
20
269.10092473030096
30
0
10
100.3269362449646
20
269.01563525199896
30
0
0
SPLINE
5
788
100
AcDbEntity
8
0
100
AcDbSpline
70
0
71
2
72
6
73
3
74
0
42
0.000000001
43
0.0000000001
44
0.0000000001
40
0
40
0
40
0
40
1
40
1
40
1
10
100.3269362449646
20
269.01563525199896
30
0
10
100.90973734855652
20
269.00142073631292
30
0
10
101.36460542678833
20
268.56076836586004
30
0
0
SPLINE
5
789
100
AcDbEntity
8
0
100
AcDbSpline
70
0
71
2
72
6
73
3
74
0
42
0.000000001
43
0.0000000001
44
0.0000000001
40
0
40
0
40
0
40
1
40
1
40
1
10
101.36460542678833
20
268.56076836586004
30
0
10
101.81947350502014
20
268.12011361122137
30
0
10
101.81947350502014
20
267.50888466835028
30
0
0
SPLINE
5
790
100
AcDbEntity
8
0
100
AcDbSpline
70
0
71
2
72
6
73
3
74
0
42
0.000000001
43
0.0000000001
44
0.0000000001
40
0
40
0
40
0
40
1
40
1
40
1
10
101.81947350502014
20
267.50888466835028
30
0
10
101.81947350502014
20
267.26723551750189
30
0
10
101.7199718952179
20
267.01137185096746
30
0
0
LINE
5
791
100
AcDbEntity
8
0
100
AcDbLine
10
101.7199718952179
20
267.01137185096746
30
0
11
98.123667240142822
21
256.84790253639227
31
0
0
SPLINE
5
792
100
AcDbEntity
8
0
100
AcDbSpline
70
0
71
2
72
6
73
3
74
0
42
0.000000001
43
0.0000000001
44
0.0000000001
40
0
40
0
40
0
40
1
40
1
40
1
10
98.123667240142822
20
256.84790253639227
30
0
10
98.848613500595093
20
256.64889931678778
30
0
10
99.346126317977905
20
256.080311536789
30
0
0
SPLINE
5
793
100
AcDbEntity
8
0
100
AcDbSpline
70
0
71
2
72
6
73
3
74
0
42
0.000000001
43
0.0000000001
44
0.0000000001
40
0
40
0
40
0
40
1
40
1
40
1
10
99.346126317977905
20
256.080311536789
30
0
10
99.914711713790894
20
255.45486807823184
30
0
10
99.914711713790894
20
254.64463353157046
30
0
0
SPLINE
5
794
100
AcDbEntity
8
0
100
AcDbSpline
70
0
71
2
72
6
73
3
74
0
42
0.000000001
43
0.0000000001
44
0.0000000001
40
0
40
0
40
0
40
1
40
1
40
1
10
99.914711713790894
20
254.64463353157046
30
0
10
99.914711713790894
20
254.14712071418765
30
0
10
99.68727707862854
20
253.62117886543277
30
0
0
LINE
5
795
100
AcDbEntity
8
0
100
AcDbLine
10
99.68727707862854
20
253.62117886543277
30
0
11
97.014924287796021
21
253.62117886543277
31
0
0
LINE
5
796
100
AcDbEntity
8
0
100
AcDbLine
10
97.014924287796021
20
253.62117886543277
30
0
11
94.356788396835327
21
246.14427804946902
31
0
0
LINE
5
797
100
AcDbEntity
8
0
100
AcDbLine
10
94.356788396835327
20
246.14427804946902
30
0
11
89.239515066146851
21
246.14427804946902
31
0
0
LINE
5
798
100
AcDbEntity
8
0
100
AcDbLine
10
89.239515066146851
20
246.14427804946902
30
0
11
92.380951642990112
21
253.62117886543277
31
0
0
LINE
5
799
100
AcDbEntity
8
0
100
AcDbLine
10
92.380951642990112
20
253.62117886543277
30
0
11
78.180524110794067
21
253.62117886543277
31
0
0
SPLINE
5
800
100
AcDbEntity
8
0
100
AcDbSpline
70
0
71
2
72
6
73
3
74
0
42
0.000000001
43
0.0000000001
44
0.0000000001
40
0
40
0
40
0
40
1
40
1
40
1
10
94.299927949905396
20
262.34186291694647
30
0
10
93.93034815788269
20
261.25444054603582
30
0
10
93.93034815788269
20
260.42999148368841
30
0
0
SPLINE
5
801
100
AcDbEntity
8
0
100
AcDbSpline
70
0
71
2
72
6
73
3
74
0
42
0.000000001
43
0.0000000001
44
0.0000000001
40
0
40
0
40
0
40
1
40
1
40
1
10
93.93034815788269
20
260.42999148368841
30
0
10
93.93034815788269
20
259.26439166069036
30
0
10
94.683724641799927
20
258.68159174919134
30
0
0
SPLINE
5
802
100
AcDbEntity
8
0
100
AcDbSpline
70
0
71
2
72
6
73
3
74
0
42
0.000000001
43
0.0000000001
44
0.0000000001
40
0
40
0
40
0
40
1
40
1
40
1
10
94.683724641799927
20
258.68159174919134
30
0
10
95.849324464797974
20
261.410802602768
30
0
10
98.32267165184021
20
266.86922430992132
30
0
0
SPLINE
5
803
100
AcDbEntity
8
0
100
AcDbSpline
70
0
71
2
72
6
73
3
74
0
42
0.000000001
43
0.0000000001
44
0.0000000001
40
0
40
0
40
0
40
1
40
1
40
1
10
98.32267165184021
20
266.86922430992132
30
0
10
97.171286344528198
20
266.27220988273626
30
0
10
95.906182527542114
20
264.82231736183172
30
0
0
SPLINE
5
804
100
AcDbEntity
8
0
100
AcDbSpline
70
0
71
2
72
6
73
3
74
0
42
0.000000001
43
0.0000000001
44
0.0000000001
40
0
40
0
40
0
40
1
40
1
40
1
10
95.906182527542114
20
264.82231736183172
30
0
10
94.669510126113892
20
263.42928051948553
30
0
10
94.299927949905396
20
262.34186291694647
30
0
0
SPLINE
5
805
100
AcDbEntity
8
0
100
AcDbSpline
70
0
71
2
72
6
73
3
74
0
42
0.000000001
43
0.0000000001
44
0.0000000001
40
0
40
0
40
0
40
1
40
1
40
1
10
20.817341282963753
20
257.2743439674378
30
0
10
21.115848496556282
20
258.36887121200567
30
0
10
22.181946709752083
20
258.9943146705628
30
0
0
SPLINE
5
806
100
AcDbEntity
8
0
100
AcDbSpline
70
0
71
2
72
6
73
3
74
0
42
0.000000001
43
0.0000000001
44
0.0000000001
40
0
40
0
40
0
40
1
40
1
40
1
10
22.181946709752083
20
258.9943146705628
30
0
10
23.134326413273811
20
259.54868555068975
30
0
10
24.35678668320179
20
259.54868555068975
30
0
0
LINE
5
807
100
AcDbEntity
8
0
100
AcDbLine
10
24.35678668320179
20
259.54868555068975
30
0
11
32.274341061711311
21
259.54868555068975
31
0
0
SPLINE
5
808
100
AcDbEntity
8
0
100
AcDbSpline
70
0
71
2
72
6
73
3
74
0
42
0.000000001
43
0.0000000001
44
0.0000000001
40
0
40
0
40
0
40
1
40
1
40
1
10
32.274341061711311
20
259.54868555068975
30
0
10
39.182657673954964
20
259.54868555068975
30
0
10
39.182657673954964
20
255.38379430770877
30
0
0
SPLINE
5
809
100
AcDbEntity
8
0
100
AcDbSpline
70
0
71
2
72
6
73
3
74
0
42
0.000000001
43
0.0000000001
44
0.0000000001
40
0
40
0
40
0
40
1
40
1
40
1
10
39.182657673954964
20
255.38379430770877
30
0
10
39.182657673954964
20
252.71144390106204
30
0
10
36.823026612401009
20
251.19047641754153
30
0
0
SPLINE
5
810
100
AcDbEntity
8
0
100
AcDbSpline
70
0
71
2
72
6
73
3
74
0
42
0.000000001
43
0.0000000001
44
0.0000000001
40
0
40
0
40
0
40
1
40
1
40
1
10
36.823026612401009
20
251.19047641754153
30
0
10
34.790334179997444
20
249.88272905349734
30
0
10
31.990048363804817
20
249.88272905349734
30
0
0
LINE
5
811
100
AcDbEntity
8
0
100
AcDbLine
10
31.990048363804817
20
249.88272905349734
30
0
11
29.928926900029182
21
249.88272905349734
31
0
0
SPLINE
5
812
100
AcDbEntity
8
0
100
AcDbSpline
70
0
71
2
72
6
73
3
74
0
42
0.000000001
43
0.0000000001
44
0.0000000001
40
0
40
0
40
0
40
1
40
1
40
1
10
29.928926900029182
20
249.88272905349734
30
0
10
28.12366671860218
20
249.88272905349734
30
0
10
26.75906129181385
20
250.4370999336243
30
0
0
SPLINE
5
813
100
AcDbEntity
8
0
100
AcDbSpline
70
0
71
2
72
6
73
3
74
0
42
0.000000001
43
0.0000000001
44
0.0000000001
40
0
40
0
40
0
40
1
40
1
40
1
10
26.75906129181385
20
250.4370999336243
30
0
10
24.939586594700813
20
251.1762619018555
30
0
10
24.854299500584602
20
252.68301248550418
30
0
0
SPLINE
5
814
100
AcDbEntity
8
0
100
AcDbSpline
70
0
71
2
72
6
73
3
74
0
42
0.000000001
43
0.0000000001
44
0.0000000001
40
0
40
0
40
0
40
1
40
1
40
1
10
24.854299500584602
20
252.68301248550418
30
0
10
24.783224537968636
20
254.20397996902469
30
0
10
26.318406537175179
20
255.21322011947635
30
0
0
LINE
5
815
100
AcDbEntity
8
0
100
AcDbLine
10
26.318406537175179
20
255.21322011947635
30
0
11
31.023454144597054
21
255.21322011947635
31
0
0
LINE
5
816
100
AcDbEntity
8
0
100
AcDbLine
10
31.023454144597054
20
255.21322011947635
30
0
11
29.488272145390511
21
252.1570706367493
31
0
0
LINE
5
817
100
AcDbEntity
8
0
100
AcDbLine
10
29.488272145390511
20
252.1570706367493
30
0
11
32.48756118118763
21
252.1570706367493
31
0
0
LINE
5
818
100
AcDbEntity
8
0
100
AcDbLine
10
32.48756118118763
20
252.1570706367493
30
0
11
33.653161004185677
21
255.58279991149905
31
0
0
SPLINE
5
819
100
AcDbEntity
8
0
100
AcDbSpline
70
0
71
2
72
6
73
3
74
0
42
0.000000001
43
0.0000000001
44
0.0000000001
40
0
40
0
40
0
40
1
40
1
40
1
10
33.653161004185677
20
255.58279991149905
30
0
10
33.752664998173714
20
255.88130712509158
30
0
10
33.752664998173714
20
256.12295627594
30
0
0
SPLINE
5
820
100
AcDbEntity
8
0
100
AcDbSpline
70
0
71
2
72
6
73
3
74
0
42
0.000000001
43
0.0000000001
44
0.0000000001
40
0
40
0
40
0
40
1
40
1
40
1
10
33.752664998173714
20
256.12295627594
30
0
10
33.752664998173714
20
257.2743439674378
30
0
10
31.904761269688606
20
257.2743439674378
30
0
0
LINE
5
821
100
AcDbEntity
8
0
100
AcDbLine
10
31.904761269688606
20
257.2743439674378
30
0
11
20.817341282963753
21
257.2743439674378
31
0
0
SPLINE
5
822
100
AcDbEntity
8
0
100
AcDbSpline
70
0
71
2
72
6
73
3
74
0
42
0.000000001
43
0.0000000001
44
0.0000000001
40
0
40
0
40
0
40
1
40
1
40
1
10
-39.644635748118162
20
261.02700829505926
30
0
10
-38.933902811259031
20
263.30134987831121
30
0
10
-36.162046026438475
20
263.30134987831121
30
0
0
LINE
5
823
100
AcDbEntity
8
0
100
AcDbLine
10
-36.162046026438475
20
263.30134987831121
30
0
11
-30.74626786634326
21
263.30134987831121
31
0
0
SPLINE
5
824
100
AcDbEntity
8
0
100
AcDbSpline
70
0
71
2
72
6
73
3
74
0
42
0.000000001
43
0.0000000001
44
0.0000000001
40
0
40
0
40
0
40
1
40
1
40
1
10
-30.74626786634326
20
263.30134987831121
30
0
10
-28.400853704661131
20
263.30134987831121
30
0
10
-28.443497251719236
20
261.82302594184881
30
0
0
SPLINE
5
825
100
AcDbEntity
8
0
100
AcDbSpline
70
0
71
2
72
6
73
3
74
0
42
0.000000001
43
0.0000000001
44
0.0000000001
40
0
40
0
40
0
40
1
40
1
40
1
10
-28.443497251719236
20
261.82302594184881
30
0
10
-26.879886221140623
20
263.65671515464788
30
0
10
-24.250176977366209
20
263.65671515464788
30
0
0
SPLINE
5
826
100
AcDbEntity
8
0
100
AcDbSpline
70
0
71
2
72
6
73
3
74
0
42
0.000000001
43
0.0000000001
44
0.0000000001
40
0
40
0
40
0
40
1
40
1
40
1
10
-24.250176977366209
20
263.65671515464788
30
0
10
-22.530206274241209
20
263.65671515464788
30
0
10
-21.464108061045408
20
262.69012093544012
30
0
0
SPLINE
5
827
100
AcDbEntity
8
0
100
AcDbSpline
70
0
71
2
72
6
73
3
74
0
42
0.000000001
43
0.0000000001
44
0.0000000001
40
0
40
0
40
0
40
1
40
1
40
1
10
-21.464108061045408
20
262.69012093544012
30
0
10
-20.355366300791502
20
261.6950953006745
30
0
10
-20.355366300791502
20
259.98933911323553
30
0
0
SPLINE
5
828
100
AcDbEntity
8
0
100
AcDbSpline
70
0
71
2
72
6
73
3
74
0
42
0.000000001
43
0.0000000001
44
0.0000000001
40
0
40
0
40
0
40
1
40
1
40
1
10
-20.355366300791502
20
259.98933911323553
30
0
10
-20.355366300791502
20
256.90476059913641
30
0
10
-22.857142519205809
20
255.15636086463931
30
0
0
SPLINE
5
829
100
AcDbEntity
8
0
100
AcDbSpline
70
0
71
2
72
6
73
3
74
0
42
0.000000001
43
0.0000000001
44
0.0000000001
40
0
40
0
40
0
40
1
40
1
40
1
10
-22.857142519205809
20
255.15636086463931
30
0
10
-25.060413908213377
20
253.6353933811188
30
0
10
-28.272920679301023
20
253.6353933811188
30
0
0
LINE
5
830
100
AcDbEntity
8
0
100
AcDbLine
10
-28.272920679301023
20
253.6353933811188
30
0
11
-31.229566168040037
21
253.6353933811188
31
0
0
LINE
5
831
100
AcDbEntity
8
0
100
AcDbLine
10
-31.229566168040037
20
253.6353933811188
30
0
11
-33.887704443186522
21
246.13006353378299
31
0
0
LINE
5
832
100
AcDbEntity
8
0
100
AcDbLine
10
-33.887704443186522
20
246.13006353378299
30
0
11
-39.061835836619139
21
246.13006353378299
31
0
0
LINE
5
833
100
AcDbEntity
8
0
100
AcDbLine
10
-39.061835836619139
20
246.13006353378299
30
0
11
-33.77398831769824
21
261.02700829505926
31
0
0
LINE
5
834
100
AcDbEntity
8
0
100
AcDbLine
10
-33.77398831769824
20
261.02700829505926
30
0
11
-39.644635748118162
21
261.02700829505926
31
0
0
LINE
5
835
100
AcDbEntity
8
0
100
AcDbLine
10
-30.447763036936522
20
255.90973496437076
30
0
11
-26.837242674082518
21
255.90973496437076
31
0
0
LINE
5
836
100
AcDbEntity
8
0
100
AcDbLine
10
-26.837242674082518
20
255.90973496437076
30
0
11
-25.756929945200682
21
258.96588444709784
31
0
0
SPLINE
5
837
100
AcDbEntity
8
0
100
AcDbSpline
70
0
71
2
72
6
73
3
74
0
42
0.000000001
43
0.0000000001
44
0.0000000001
40
0
40
0
40
0
40
1
40
1
40
1
10
-25.756929945200682
20
258.96588444709784
30
0
10
-25.61478478834033
20
259.39232468605047
30
0
10
-25.61478478834033
20
259.73347544670111
30
0
0
SPLINE
5
838
100
AcDbEntity
8
0
100
AcDbSpline
70
0
71
2
72
6
73
3
74
0
42
0.000000001
43
0.0000000001
44
0.0000000001
40
0
40
0
40
0
40
1
40
1
40
1
10
-25.61478478834033
20
259.73347544670111
30
0
10
-25.61478478834033
20
260.68585515022284
30
0
10
-26.823028158396482
20
260.94171881675726
30
0
0
SPLINE
5
839
100
AcDbEntity
8
0
100
AcDbSpline
70
0
71
2
72
6
73
3
74
0
42
0.000000001
43
0.0000000001
44
0.0000000001
40
0
40
0
40
0
40
1
40
1
40
1
10
-26.823028158396482
20
260.94171881675726
30
0
10
-27.249468397349119
20
261.02700829505926
30
0
10
-28.64250285550952
20
261.02700829505926
30
0
0
LINE
5
840
100
AcDbEntity
8
0
100
AcDbLine
10
-28.64250285550952
20
261.02700829505926
30
0
11
-30.447763036936522
21
255.90973496437076
31
0
0
SPLINE
5
841
100
AcDbEntity
8
0
100
AcDbSpline
70
0
71
2
72
6
73
3
74
0
42
0.000000001
43
0.0000000001
44
0.0000000001
40
0
40
0
40
0
40
1
40
1
40
1
10
-99.097370877861977
20
257.2743439674378
30
0
10
-98.784649148583412
20
258.38308572769171
30
0
10
-97.789623513817787
20
258.9943146705628
30
0
0
SPLINE
5
842
100
AcDbEntity
8
0
100
AcDbSpline
70
0
71
2
72
6
73
3
74
0
42
0.000000001
43
0.0000000001
44
0.0000000001
40
0
40
0
40
0
40
1
40
1
40
1
10
-97.789623513817787
20
258.9943146705628
30
0
10
-96.879887357354164
20
259.54868555068975
30
0
10
-95.671643987298012
20
259.54868555068975
30
0
0
LINE
5
843
100
AcDbEntity
8
0
100
AcDbLine
10
-95.671643987298012
20
259.54868555068975
30
0
11
-87.114429250359535
21
259.54868555068975
31
0
0
SPLINE
5
844
100
AcDbEntity
8
0
100
AcDbSpline
70
0
71
2
72
6
73
3
74
0
42
0.000000001
43
0.0000000001
44
0.0000000001
40
0
40
0
40
0
40
1
40
1
40
1
10
-87.114429250359535
20
259.54868555068975
30
0
10
-84.669508710503578
20
259.54868555068975
30
0
10
-83.006396070122719
20
258.72423648834234
30
0
0
SPLINE
5
845
100
AcDbEntity
8
0
100
AcDbSpline
70
0
71
2
72
6
73
3
74
0
42
0.000000001
43
0.0000000001
44
0.0000000001
40
0
40
0
40
0
40
1
40
1
40
1
10
-83.006396070122719
20
258.72423648834234
30
0
10
-80.902628675103188
20
257.68656730651861
30
0
10
-80.902628675103188
20
255.59701442718509
30
0
0
SPLINE
5
846
100
AcDbEntity
8
0
100
AcDbSpline
70
0
71
2
72
6
73
3
74
0
42
0.000000001
43
0.0000000001
44
0.0000000001
40
0
40
0
40
0
40
1
40
1
40
1
10
-80.902628675103188
20
255.59701442718509
30
0
10
-80.902628675103188
20
255.36957979202273
30
0
10
-80.931060090661049
20
255.12793302536014
30
0
0
SPLINE
5
847
100
AcDbEntity
8
0
100
AcDbSpline
70
0
71
2
72
6
73
3
74
0
42
0.000000001
43
0.0000000001
44
0.0000000001
40
0
40
0
40
0
40
1
40
1
40
1
10
-80.931060090661049
20
255.12793302536014
30
0
10
-81.215352788567543
20
252.58351087570193
30
0
10
-83.574981465935707
20
251.14783287048343
30
0
0
SPLINE
5
848
100
AcDbEntity
8
0
100
AcDbSpline
70
0
71
2
72
6
73
3
74
0
42
0.000000001
43
0.0000000001
44
0.0000000001
40
0
40
0
40
0
40
1
40
1
40
1
10
-83.574981465935707
20
251.14783287048343
30
0
10
-85.650319829583168
20
249.88272905349734
30
0
10
-88.479032292962074
20
249.88272905349734
30
0
0
LINE
5
849
100
AcDbEntity
8
0
100
AcDbLine
10
-88.479032292962074
20
249.88272905349734
30
0
11
-92.061123624444008
21
249.88272905349734
31
0
0
SPLINE
5
850
100
AcDbEntity
8
0
100
AcDbSpline
70
0
71
2
72
6
73
3
74
0
42
0.000000001
43
0.0000000001
44
0.0000000001
40
0
40
0
40
0
40
1
40
1
40
1
10
-92.061123624444008
20
249.88272905349734
30
0
10
-93.26936699450016
20
249.88272905349734
30
0
10
-94.122247472405434
20
250.65032005310061
30
0
0
SPLINE
5
851
100
AcDbEntity
8
0
100
AcDbSpline
70
0
71
2
72
6
73
3
74
0
42
0.000000001
43
0.0000000001
44
0.0000000001
40
0
40
0
40
0
40
1
40
1
40
1
10
-94.122247472405434
20
250.65032005310061
30
0
10
-94.975123181939125
20
251.41791105270389
30
0
10
-94.975123181939125
20
252.52665281295779
30
0
0
SPLINE
5
852
100
AcDbEntity
8
0
100
AcDbSpline
70
0
71
2
72
6
73
3
74
0
42
0.000000001
43
0.0000000001
44
0.0000000001
40
0
40
0
40
0
40
1
40
1
40
1
10
-94.975123181939125
20
252.52665281295779
30
0
10
-94.975123181939125
20
253.64960908889773
30
0
10
-94.115137830376625
20
254.43141460418704
30
0
0
SPLINE
5
853
100
AcDbEntity
8
0
100
AcDbSpline
70
0
71
2
72
6
73
3
74
0
42
0.000000001
43
0.0000000001
44
0.0000000001
40
0
40
0
40
0
40
1
40
1
40
1
10
-94.115137830376625
20
254.43141460418704
30
0
10
-93.255152478814125
20
255.21322011947635
30
0
10
-92.061123624444008
20
255.21322011947635
30
0
0
SPLINE
5
854
100
AcDbEntity
8
0
100
AcDbSpline
70
0
71
2
72
6
73
3
74
0
42
0.000000001
43
0.0000000001
44
0.0000000001
40
0
40
0
40
0
40
1
40
1
40
1
10
-92.061123624444008
20
255.21322011947635
30
0
10
-90.852880254387856
20
255.21322011947635
30
0
10
-90.0071070343256
20
254.42430734634402
30
0
0
SPLINE
5
855
100
AcDbEntity
8
0
100
AcDbSpline
70
0
71
2
72
6
73
3
74
0
42
0.000000001
43
0.0000000001
44
0.0000000001
40
0
40
0
40
0
40
1
40
1
40
1
10
-90.0071070343256
20
254.42430734634402
30
0
10
-89.161336198449135
20
253.6353945732117
30
0
10
-89.17555071413517
20
252.49822378158572
30
0
0
SPLINE
5
856
100
AcDbEntity
8
0
100
AcDbSpline
70
0
71
2
72
6
73
3
74
0
42
0.000000001
43
0.0000000001
44
0.0000000001
40
0
40
0
40
0
40
1
40
1
40
1
10
-89.17555071413517
20
252.49822378158572
30
0
10
-89.17555071413517
20
252.49822378158572
30
0
10
-89.17555071413517
20
252.1570706367493
30
0
0
LINE
5
857
100
AcDbEntity
8
0
100
AcDbLine
10
-89.17555071413517
20
252.1570706367493
30
0
11
-87.45558001101017
21
252.1570706367493
31
0
0
LINE
5
858
100
AcDbEntity
8
0
100
AcDbLine
10
-87.45558001101017
20
252.1570706367493
30
0
11
-86.346838250756264
21
255.29850721359256
31
0
0
SPLINE
5
859
100
AcDbEntity
8
0
100
AcDbSpline
70
0
71
2
72
6
73
3
74
0
42
0.000000001
43
0.0000000001
44
0.0000000001
40
0
40
0
40
0
40
1
40
1
40
1
10
-86.346838250756264
20
255.29850721359256
30
0
10
-86.204690709710121
20
255.69651842117312
30
0
10
-86.204690709710121
20
256.02345466613775
30
0
0
SPLINE
5
860
100
AcDbEntity
8
0
100
AcDbSpline
70
0
71
2
72
6
73
3
74
0
42
0.000000001
43
0.0000000001
44
0.0000000001
40
0
40
0
40
0
40
1
40
1
40
1
10
-86.204690709710121
20
256.02345466613775
30
0
10
-86.204690709710121
20
257.2743439674378
30
0
10
-88.180527463555336
20
257.2743439674378
30
0
0
LINE
5
861
100
AcDbEntity
8
0
100
AcDbLine
10
-88.180527463555336
20
257.2743439674378
30
0
11
-99.097370877861977
21
257.2743439674378
31
0
0
SPLINE
5
862
100
AcDbEntity
8
0
100
AcDbSpline
70
0
71
2
72
6
73
3
74
0
42
0.000000001
43
0.0000000001
44
0.0000000001
40
0
40
0
40
0
40
1
40
1
40
1
10
-162.87846679799259
20
253.62117886543274
30
0
10
-161.94030399434268
20
255.89552044868469
30
0
10
-159.73703498952091
20
255.89552044868469
30
0
0
LINE
5
863
100
AcDbEntity
8
0
100
AcDbLine
10
-159.73703498952091
20
255.89552044868469
30
0
11
-152.06112499348819
21
255.89552044868469
31
0
0
SPLINE
5
864
100
AcDbEntity
8
0
100
AcDbSpline
70
0
71
2
72
6
73
3
74
0
42
0.000000001
43
0.0000000001
44
0.0000000001
40
0
40
0
40
0
40
1
40
1
40
1
10
-152.06112499348819
20
255.89552044868469
30
0
10
-151.50675411336124
20
259.9609100818634
30
0
10
-147.86780471913517
20
261.87988638877869
30
0
0
SPLINE
5
865
100
AcDbEntity
8
0
100
AcDbSpline
70
0
71
2
72
6
73
3
74
0
42
0.000000001
43
0.0000000001
44
0.0000000001
40
0
40
0
40
0
40
1
40
1
40
1
10
-147.86780471913517
20
261.87988638877869
30
0
10
-145.19545431248844
20
263.28713536262518
30
0
10
-141.62757749669254
20
263.28713536262518
30
0
0
LINE
5
866
100
AcDbEntity
8
0
100
AcDbLine
10
-141.62757749669254
20
263.28713536262518
30
0
11
-139.04051299206913
21
263.28713536262518
31
0
0
SPLINE
5
867
100
AcDbEntity
8
0
100
AcDbSpline
70
0
71
2
72
6
73
3
74
0
42
0.000000001
43
0.0000000001
44
0.0000000001
40
0
40
0
40
0
40
1
40
1
40
1
10
-139.04051299206913
20
263.28713536262518
30
0
10
-138.34399576298892
20
263.28713536262518
30
0
10
-137.81805391423404
20
262.94598460197454
30
0
0
SPLINE
5
868
100
AcDbEntity
8
0
100
AcDbSpline
70
0
71
2
72
6
73
3
74
0
42
0.000000001
43
0.0000000001
44
0.0000000001
40
0
40
0
40
0
40
1
40
1
40
1
10
-137.81805391423404
20
262.94598460197454
30
0
10
-137.12153668515384
20
262.49111533164984
30
0
10
-137.12153668515384
20
261.56716465950018
30
0
0
SPLINE
5
869
100
AcDbEntity
8
0
100
AcDbSpline
70
0
71
2
72
6
73
3
74
0
42
0.000000001
43
0.0000000001
44
0.0000000001
40
0
40
0
40
0
40
1
40
1
40
1
10
-137.12153668515384
20
261.56716465950018
30
0
10
-137.12153668515384
20
261.0412228107453
30
0
10
-137.3489701282233
20
260.37313342094427
30
0
0
LINE
5
870
100
AcDbEntity
8
0
100
AcDbLine
10
-137.3489701282233
20
260.37313342094427
30
0
11
-142.42359752766788
21
246.14427804946902
31
0
0
LINE
5
871
100
AcDbEntity
8
0
100
AcDbLine
10
-142.42359752766788
20
246.14427804946902
30
0
11
-147.54087085835636
21
246.14427804946902
31
0
0
LINE
5
872
100
AcDbEntity
8
0
100
AcDbLine
10
-147.54087085835636
20
246.14427804946902
30
0
11
-142.23880882374942
21
260.98436236381536
31
0
0
SPLINE
5
873
100
AcDbEntity
8
0
100
AcDbSpline
70
0
71
2
72
6
73
3
74
0
42
0.000000001
43
0.0000000001
44
0.0000000001
40
0
40
0
40
0
40
1
40
1
40
1
10
-142.23880882374942
20
260.98436236381536
30
0
10
-145.29495592229068
20
261.05543732643133
30
0
10
-146.58848877064884
20
258.53944420814514
30
0
0
SPLINE
5
874
100
AcDbEntity
8
0
100
AcDbSpline
70
0
71
2
72
6
73
3
74
0
42
0.000000001
43
0.0000000001
44
0.0000000001
40
0
40
0
40
0
40
1
40
1
40
1
10
-146.58848877064884
20
258.53944420814514
30
0
10
-145.26652689091861
20
257.71499514579779
30
0
10
-145.26652689091861
20
256.29353165626532
30
0
0
SPLINE
5
875
100
AcDbEntity
8
0
100
AcDbSpline
70
0
71
2
72
6
73
3
74
0
42
0.000000001
43
0.0000000001
44
0.0000000001
40
0
40
0
40
0
40
1
40
1
40
1
10
-145.26652689091861
20
256.29353165626532
30
0
10
-145.26652689091861
20
255.18478989601138
30
0
10
-146.12651224248111
20
254.40298438072207
30
0
0
SPLINE
5
876
100
AcDbEntity
8
0
100
AcDbSpline
70
0
71
2
72
6
73
3
74
0
42
0.000000001
43
0.0000000001
44
0.0000000001
40
0
40
0
40
0
40
1
40
1
40
1
10
-146.12651224248111
20
254.40298438072207
30
0
10
-146.9864999782294
20
253.62117886543274
30
0
10
-148.18052883259952
20
253.62117886543274
30
0
0
LINE
5
877
100
AcDbEntity
8
0
100
AcDbLine
10
-148.18052883259952
20
253.62117886543274
30
0
11
-162.87846679799259
21
253.62117886543274
31
0
0
SPLINE
5
878
100
AcDbEntity
8
0
100
AcDbSpline
70
0
71
2
72
6
73
3
74
0
42
0.000000001
43
0.0000000001
44
0.0000000001
40
0
40
0
40
0
40
1
40
1
40
1
10
-219.36034128069878
20
257.27434396743774
30
0
10
-218.67803975939751
20
259.5486855506897
30
0
10
-215.87775394320488
20
259.5486855506897
30
0
0
LINE
5
879
100
AcDbEntity
8
0
100
AcDbLine
10
-215.87775394320488
20
259.5486855506897
30
0
11
-210.49040481448174
21
259.5486855506897
31
0
0
SPLINE
5
880
100
AcDbEntity
8
0
100
AcDbSpline
70
0
71
2
72
6
73
3
74
0
42
0.000000001
43
0.0000000001
44
0.0000000001
40
0
40
0
40
0
40
1
40
1
40
1
10
-210.49040481448174
20
259.5486855506897
30
0
10
-208.18763419985771
20
259.5486855506897
30
0
10
-208.18763419985771
20
258.07036161422729
30
0
0
SPLINE
5
881
100
AcDbEntity
8
0
100
AcDbSpline
70
0
71
2
72
6
73
3
74
0
42
0.000000001
43
0.0000000001
44
0.0000000001
40
0
40
0
40
0
40
1
40
1
40
1
10
-208.18763419985771
20
258.07036161422729
30
0
10
-206.63823768496513
20
259.83297824859619
30
0
10
-204.37810823321342
20
259.83297824859619
30
0
0
SPLINE
5
882
100
AcDbEntity
8
0
100
AcDbSpline
70
0
71
2
72
6
73
3
74
0
42
0.000000001
43
0.0000000001
44
0.0000000001
40
0
40
0
40
0
40
1
40
1
40
1
10
-204.37810823321342
20
259.83297824859619
30
0
10
-202.71499559283257
20
259.83297824859619
30
0
10
-201.67732879519463
20
258.8095235824585
30
0
0
SPLINE
5
883
100
AcDbEntity
8
0
100
AcDbSpline
70
0
71
2
72
6
73
3
74
0
42
0.000000001
43
0.0000000001
44
0.0000000001
40
0
40
0
40
0
40
1
40
1
40
1
10
-201.67732879519463
20
258.8095235824585
30
0
10
-200.6396596133709
20
257.7860689163208
30
0
10
-200.6396596133709
20
256.13717079162598
30
0
0
SPLINE
5
884
100
AcDbEntity
8
0
100
AcDbSpline
70
0
71
2
72
6
73
3
74
0
42
0.000000001
43
0.0000000001
44
0.0000000001
40
0
40
0
40
0
40
1
40
1
40
1
10
-200.6396596133709
20
256.13717079162598
30
0
10
-200.6396596133709
20
253.16631078720093
30
0
10
-202.91400119662285
20
251.44634008407593
30
0
0
SPLINE
5
885
100
AcDbEntity
8
0
100
AcDbSpline
70
0
71
2
72
6
73
3
74
0
42
0.000000001
43
0.0000000001
44
0.0000000001
40
0
40
0
40
0
40
1
40
1
40
1
10
-202.91400119662285
20
251.44634008407593
30
0
10
-204.97512504458427
20
249.88272905349731
30
0
10
-208.0170576274395
20
249.88272905349731
30
0
0
LINE
5
886
100
AcDbEntity
8
0
100
AcDbLine
10
-208.0170576274395
20
249.88272905349731
30
0
11
-216.1336176097393
21
249.88272905349731
31
0
0
LINE
5
887
100
AcDbEntity
8
0
100
AcDbLine
10
-216.1336176097393
20
249.88272905349731
30
0
11
-213.46126481890678
21
257.27434396743774
31
0
0
LINE
5
888
100
AcDbEntity
8
0
100
AcDbLine
10
-213.46126481890678
20
257.27434396743774
30
0
11
-219.36034128069878
21
257.27434396743774
31
0
0
LINE
5
889
100
AcDbEntity
8
0
100
AcDbLine
10
-210.19189760088921
20
252.15707063674927
30
0
11
-207.05046102404594
21
252.15707063674927
31
0
0
LINE
5
890
100
AcDbEntity
8
0
100
AcDbLine
10
-207.05046102404594
20
252.15707063674927
30
0
11
-206.05543777346611
21
255.46908378601074
31
0
0
SPLINE
5
891
100
AcDbEntity
8
0
100
AcDbSpline
70
0
71
2
72
6
73
3
74
0
42
0.000000001
43
0.0000000001
44
0.0000000001
40
0
40
0
40
0
40
1
40
1
40
1
10
-206.05543777346611
20
255.46908378601074
30
0
10
-205.97014829516411
20
255.78180551528931
30
0
10
-205.97014829516411
20
256.03766918182373
30
0
0
SPLINE
5
892
100
AcDbEntity
8
0
100
AcDbSpline
70
0
71
2
72
6
73
3
74
0
42
0.000000001
43
0.0000000001
44
0.0000000001
40
0
40
0
40
0
40
1
40
1
40
1
10
-205.97014829516411
20
256.03766918182373
30
0
10
-205.97014829516411
20
257.27434396743774
30
0
10
-208.38663980364799
20
257.27434396743774
30
0
0
LINE
5
893
100
AcDbEntity
8
0
100
AcDbLine
10
-208.38663980364799
20
257.27434396743774
30
0
11
-210.19189760088921
21
252.15707063674927
31
0
0
ENDSEC
0
SECTION
2
OBJECTS
0
DICTIONARY
5
C
100
AcDbDictionary
3
ACAD_GROUP
350
D
3
ACAD_MLINESTYLE
350
17
0
DICTIONARY
5
D
100
AcDbDictionary
0
DICTIONARY
5
1A
330
C
100
AcDbDictionary
0
DICTIONARY
5
17
100
AcDbDictionary
0
ENDSEC
0
EOF
